<?xml version="1.0" encoding="UTF-8"?>
<svg version="1.1" xmlns="http://www.w3.org/2000/svg" width="22" height="22" viewBox="0 0 468 468">
<path d="M0 0 C7.92 0 15.84 0 24 0 C24 1.98 24 3.96 24 6 C29.94 6 35.88 6 42 6 C42 7.98 42 9.96 42 12 C47.94 12 53.88 12 60 12 C60 13.98 60 15.96 60 18 C65.94 18 71.88 18 78 18 C78 19.98 78 21.96 78 24 C81.96 24 85.92 24 90 24 C90 25.98 90 27.96 90 30 C95.94 30 101.88 30 108 30 C108 31.98 108 33.96 108 36 C111.96 36 115.92 36 120 36 C120 41.94 120 47.88 120 54 C118.02 54 116.04 54 114 54 C114 57.96 114 61.92 114 66 C112.02 66 110.04 66 108 66 C108 71.94 108 77.88 108 84 C106.02 84 104.04 84 102 84 C102 85.98 102 87.96 102 90 C107.94 90 113.88 90 120 90 C120 91.98 120 93.96 120 96 C123.96 96 127.92 96 132 96 C132 103.92 132 111.84 132 120 C130.02 120 128.04 120 126 120 C126 123.96 126 127.92 126 132 C131.94 132 137.88 132 144 132 C144 133.98 144 135.96 144 138 C145.98 138 147.96 138 150 138 C150 141.96 150 145.92 150 150 C153.96 150 157.92 150 162 150 C162 151.98 162 153.96 162 156 C165.96 156 169.92 156 174 156 C174 154.02 174 152.04 174 150 C175.98 150 177.96 150 180 150 C180 148.02 180 146.04 180 144 C181.98 144 183.96 144 186 144 C186 142.02 186 140.04 186 138 C189.96 138 193.92 138 198 138 C198 136.02 198 134.04 198 132 C203.94 132 209.88 132 216 132 C216 130.02 216 128.04 216 126 C217.98 126 219.96 126 222 126 C222 124.02 222 122.04 222 120 C227.94 120 233.88 120 240 120 C240 121.98 240 123.96 240 126 C243.96 126 247.92 126 252 126 C252 124.02 252 122.04 252 120 C250.02 120 248.04 120 246 120 C246 116.04 246 112.08 246 108 C251.94 108 257.88 108 264 108 C264 109.98 264 111.96 264 114 C269.94 114 275.88 114 282 114 C282 115.98 282 117.96 282 120 C285.96 120 289.92 120 294 120 C294 121.98 294 123.96 294 126 C297.96 126 301.92 126 306 126 C306 127.98 306 129.96 306 132 C307.98 132 309.96 132 312 132 C312 133.98 312 135.96 312 138 C315.96 138 319.92 138 324 138 C324 139.98 324 141.96 324 144 C325.98 144 327.96 144 330 144 C330 145.98 330 147.96 330 150 C335.94 150 341.88 150 348 150 C348 151.98 348 153.96 348 156 C353.94 156 359.88 156 366 156 C366 157.98 366 159.96 366 162 C369.96 162 373.92 162 378 162 C378 163.98 378 165.96 378 168 C379.98 168 381.96 168 384 168 C384 169.98 384 171.96 384 174 C385.98 174 387.96 174 390 174 C390 177.96 390 181.92 390 186 C391.98 186 393.96 186 396 186 C396 199.86 396 213.72 396 228 C399.96 228 403.92 228 408 228 C408 233.94 408 239.88 408 246 C406.02 246 404.04 246 402 246 C402 249.96 402 253.92 402 258 C400.02 258 398.04 258 396 258 C396 259.98 396 261.96 396 264 C394.02 264 392.04 264 390 264 C390 265.98 390 267.96 390 270 C388.02 270 386.04 270 384 270 C384 271.98 384 273.96 384 276 C380.04 276 376.08 276 372 276 C372 277.98 372 279.96 372 282 C366.06 282 360.12 282 354 282 C354 283.98 354 285.96 354 288 C342.12 288 330.24 288 318 288 C318 289.98 318 291.96 318 294 C316.02 294 314.04 294 312 294 C312 295.98 312 297.96 312 300 C310.02 300 308.04 300 306 300 C306 303.96 306 307.92 306 312 C304.02 312 302.04 312 300 312 C300 313.98 300 315.96 300 318 C298.02 318 296.04 318 294 318 C294 323.94 294 329.88 294 336 C280.14 336 266.28 336 252 336 C252 332.04 252 328.08 252 324 C250.02 324 248.04 324 246 324 C246 312.12 246 300.24 246 288 C238.08 288 230.16 288 222 288 C222 289.98 222 291.96 222 294 C214.08 294 206.16 294 198 294 C198 290.04 198 286.08 198 282 C194.04 282 190.08 282 186 282 C186 280.02 186 278.04 186 276 C184.02 276 182.04 276 180 276 C180 274.02 180 272.04 180 270 C178.02 270 176.04 270 174 270 C174 268.02 174 266.04 174 264 C172.02 264 170.04 264 168 264 C168 262.02 168 260.04 168 258 C166.02 258 164.04 258 162 258 C162 256.02 162 254.04 162 252 C160.02 252 158.04 252 156 252 C156 246.06 156 240.12 156 234 C154.02 234 152.04 234 150 234 C150 218.16 150 202.32 150 186 C151.98 186 153.96 186 156 186 C156 180.06 156 174.12 156 168 C152.04 168 148.08 168 144 168 C144 166.02 144 164.04 144 162 C140.04 162 136.08 162 132 162 C132 158.04 132 154.08 132 150 C126.06 150 120.12 150 114 150 C114 148.02 114 146.04 114 144 C110.04 144 106.08 144 102 144 C102 138.06 102 132.12 102 126 C103.98 126 105.96 126 108 126 C108 124.02 108 122.04 108 120 C96.12 120 84.24 120 72 120 C72 118.02 72 116.04 72 114 C70.02 114 68.04 114 66 114 C66 108.06 66 102.12 66 96 C67.98 96 69.96 96 72 96 C72 88.08 72 80.16 72 72 C62.1 72 52.2 72 42 72 C42 70.02 42 68.04 42 66 C30.12 66 18.24 66 6 66 C6 58.08 6 50.16 6 42 C4.02 42 2.04 42 0 42 C0 28.14 0 14.28 0 0 Z M372 210 C372 211.98 372 213.96 372 216 C373.98 216 375.96 216 378 216 C378 214.02 378 212.04 378 210 C376.02 210 374.04 210 372 210 Z " fill="#F7E901" transform="translate(24,0)"/>
<path d="M0 0 C7.92 0 15.84 0 24 0 C24 1.98 24 3.96 24 6 C29.94 6 35.88 6 42 6 C42 7.98 42 9.96 42 12 C47.94 12 53.88 12 60 12 C60 13.98 60 15.96 60 18 C65.94 18 71.88 18 78 18 C78 19.98 78 21.96 78 24 C81.96 24 85.92 24 90 24 C90 25.98 90 27.96 90 30 C95.94 30 101.88 30 108 30 C108 31.98 108 33.96 108 36 C111.96 36 115.92 36 120 36 C120 41.94 120 47.88 120 54 C118.02 54 116.04 54 114 54 C114 57.96 114 61.92 114 66 C112.02 66 110.04 66 108 66 C108 71.94 108 77.88 108 84 C106.02 84 104.04 84 102 84 C102 85.98 102 87.96 102 90 C107.94 90 113.88 90 120 90 C120 91.98 120 93.96 120 96 C123.96 96 127.92 96 132 96 C132 103.92 132 111.84 132 120 C130.02 120 128.04 120 126 120 C126 123.96 126 127.92 126 132 C131.94 132 137.88 132 144 132 C144 133.98 144 135.96 144 138 C145.98 138 147.96 138 150 138 C150 141.96 150 145.92 150 150 C153.96 150 157.92 150 162 150 C162 151.98 162 153.96 162 156 C165.96 156 169.92 156 174 156 C174 157.98 174 159.96 174 162 C172.02 162 170.04 162 168 162 C168 165.96 168 169.92 168 174 C166.02 174 164.04 174 162 174 C162 177.96 162 181.92 162 186 C160.02 186 158.04 186 156 186 C156 180.06 156 174.12 156 168 C152.04 168 148.08 168 144 168 C144 166.02 144 164.04 144 162 C140.04 162 136.08 162 132 162 C132 158.04 132 154.08 132 150 C126.06 150 120.12 150 114 150 C114 148.02 114 146.04 114 144 C110.04 144 106.08 144 102 144 C102 138.06 102 132.12 102 126 C103.98 126 105.96 126 108 126 C108 124.02 108 122.04 108 120 C96.12 120 84.24 120 72 120 C72 118.02 72 116.04 72 114 C70.02 114 68.04 114 66 114 C66 108.06 66 102.12 66 96 C67.98 96 69.96 96 72 96 C72 88.08 72 80.16 72 72 C62.1 72 52.2 72 42 72 C42 70.02 42 68.04 42 66 C30.12 66 18.24 66 6 66 C6 58.08 6 50.16 6 42 C4.02 42 2.04 42 0 42 C0 28.14 0 14.28 0 0 Z " fill="#F7E901" transform="translate(24,0)"/>
<path d="M0 0 C5.94 0 11.88 0 18 0 C18 1.98 18 3.96 18 6 C23.94 6 29.88 6 36 6 C36 7.98 36 9.96 36 12 C39.96 12 43.92 12 48 12 C48 13.98 48 15.96 48 18 C51.96 18 55.92 18 60 18 C60 19.98 60 21.96 60 24 C61.98 24 63.96 24 66 24 C66 25.98 66 27.96 66 30 C69.96 30 73.92 30 78 30 C78 31.98 78 33.96 78 36 C79.98 36 81.96 36 84 36 C84 37.98 84 39.96 84 42 C89.94 42 95.88 42 102 42 C102 43.98 102 45.96 102 48 C92.1 48 82.2 48 72 48 C72 49.98 72 51.96 72 54 C70.02 54 68.04 54 66 54 C66 52.02 66 50.04 66 48 C62.04 48 58.08 48 54 48 C54 46.02 54 44.04 54 42 C50.04 42 46.08 42 42 42 C42 40.02 42 38.04 42 36 C38.04 36 34.08 36 30 36 C30 34.02 30 32.04 30 30 C24.06 30 18.12 30 12 30 C12 28.02 12 26.04 12 24 C10.02 24 8.04 24 6 24 C6 29.94 6 35.88 6 42 C7.98 42 9.96 42 12 42 C12 43.98 12 45.96 12 48 C13.98 48 15.96 48 18 48 C18 49.98 18 51.96 18 54 C21.96 54 25.92 54 30 54 C30 55.98 30 57.96 30 60 C24.06 60 18.12 60 12 60 C12 61.98 12 63.96 12 66 C10.02 66 8.04 66 6 66 C6 69.96 6 73.92 6 78 C2.04 78 -1.92 78 -6 78 C-6 64.14 -6 50.28 -6 36 C-9.96 36 -13.92 36 -18 36 C-18 34.02 -18 32.04 -18 30 C-19.98 30 -21.96 30 -24 30 C-24 43.86 -24 57.72 -24 72 C-27.96 72 -31.92 72 -36 72 C-36 70.02 -36 68.04 -36 66 C-37.98 66 -39.96 66 -42 66 C-42 62.04 -42 58.08 -42 54 C-43.98 54 -45.96 54 -48 54 C-48 50.04 -48 46.08 -48 42 C-51.96 42 -55.92 42 -60 42 C-60 43.98 -60 45.96 -60 48 C-63.96 48 -67.92 48 -72 48 C-72 46.02 -72 44.04 -72 42 C-70.02 42 -68.04 42 -66 42 C-66 40.02 -66 38.04 -66 36 C-64.02 36 -62.04 36 -60 36 C-60 34.02 -60 32.04 -60 30 C-56.04 30 -52.08 30 -48 30 C-48 28.02 -48 26.04 -48 24 C-42.06 24 -36.12 24 -30 24 C-30 22.02 -30 20.04 -30 18 C-28.02 18 -26.04 18 -24 18 C-24 16.02 -24 14.04 -24 12 C-18.06 12 -12.12 12 -6 12 C-6 13.98 -6 15.96 -6 18 C-2.04 18 1.92 18 6 18 C6 16.02 6 14.04 6 12 C4.02 12 2.04 12 0 12 C0 8.04 0 4.08 0 0 Z " fill="#161F2B" transform="translate(270,108)"/>
<path d="M0 0 C1.98 0 3.96 0 6 0 C6 11.88 6 23.76 6 36 C9.96 36 13.92 36 18 36 C18 39.96 18 43.92 18 48 C19.98 48 21.96 48 24 48 C24 49.98 24 51.96 24 54 C25.98 54 27.96 54 30 54 C30 55.98 30 57.96 30 60 C33.96 60 37.92 60 42 60 C42 61.98 42 63.96 42 66 C43.98 66 45.96 66 48 66 C48 67.98 48 69.96 48 72 C49.98 72 51.96 72 54 72 C54 73.98 54 75.96 54 78 C57.96 78 61.92 78 66 78 C66 79.98 66 81.96 66 84 C73.92 84 81.84 84 90 84 C90 80.04 90 76.08 90 72 C91.98 72 93.96 72 96 72 C96 66.06 96 60.12 96 54 C94.02 54 92.04 54 90 54 C90 52.02 90 50.04 90 48 C93.96 48 97.92 48 102 48 C102 49.98 102 51.96 102 54 C103.98 54 105.96 54 108 54 C108 63.9 108 73.8 108 84 C113.94 84 119.88 84 126 84 C126 87.96 126 91.92 126 96 C118.08 96 110.16 96 102 96 C102 109.86 102 123.72 102 138 C100.02 138 98.04 138 96 138 C96 126.12 96 114.24 96 102 C88.08 102 80.16 102 72 102 C72 103.98 72 105.96 72 108 C64.08 108 56.16 108 48 108 C48 104.04 48 100.08 48 96 C44.04 96 40.08 96 36 96 C36 94.02 36 92.04 36 90 C34.02 90 32.04 90 30 90 C30 88.02 30 86.04 30 84 C28.02 84 26.04 84 24 84 C24 82.02 24 80.04 24 78 C22.02 78 20.04 78 18 78 C18 76.02 18 74.04 18 72 C16.02 72 14.04 72 12 72 C12 70.02 12 68.04 12 66 C10.02 66 8.04 66 6 66 C6 60.06 6 54.12 6 48 C4.02 48 2.04 48 0 48 C0 32.16 0 16.32 0 0 Z " fill="#EBB800" transform="translate(174,186)"/>
<path d="M0 0 C1.98 0 3.96 0 6 0 C6 9.9 6 19.8 6 30 C4.02 30 2.04 30 0 30 C0 31.98 0 33.96 0 36 C1.98 36 3.96 36 6 36 C6 37.98 6 39.96 6 42 C17.88 42 29.76 42 42 42 C42 43.98 42 45.96 42 48 C45.96 48 49.92 48 54 48 C54 51.96 54 55.92 54 60 C59.94 60 65.88 60 72 60 C72 61.98 72 63.96 72 66 C73.98 66 75.96 66 78 66 C78 69.96 78 73.92 78 78 C81.96 78 85.92 78 90 78 C90 79.98 90 81.96 90 84 C93.96 84 97.92 84 102 84 C102 85.98 102 87.96 102 90 C100.02 90 98.04 90 96 90 C96 93.96 96 97.92 96 102 C94.02 102 92.04 102 90 102 C90 105.96 90 109.92 90 114 C88.02 114 86.04 114 84 114 C84 108.06 84 102.12 84 96 C80.04 96 76.08 96 72 96 C72 94.02 72 92.04 72 90 C68.04 90 64.08 90 60 90 C60 86.04 60 82.08 60 78 C54.06 78 48.12 78 42 78 C42 76.02 42 74.04 42 72 C38.04 72 34.08 72 30 72 C30 66.06 30 60.12 30 54 C31.98 54 33.96 54 36 54 C36 52.02 36 50.04 36 48 C24.12 48 12.24 48 0 48 C0 46.02 0 44.04 0 42 C-1.98 42 -3.96 42 -6 42 C-6 36.06 -6 30.12 -6 24 C-4.02 24 -2.04 24 0 24 C0 16.08 0 8.16 0 0 Z " fill="#7E5701" transform="translate(96,72)"/>
<path d="M0 0 C1.98 0 3.96 0 6 0 C6 1.98 6 3.96 6 6 C21.84 6 37.68 6 54 6 C54 7.98 54 9.96 54 12 C42.12 12 30.24 12 18 12 C18 13.98 18 15.96 18 18 C16.02 18 14.04 18 12 18 C12 19.98 12 21.96 12 24 C10.02 24 8.04 24 6 24 C6 27.96 6 31.92 6 36 C4.02 36 2.04 36 0 36 C0 37.98 0 39.96 0 42 C-1.98 42 -3.96 42 -6 42 C-6 47.94 -6 53.88 -6 60 C-19.86 60 -33.72 60 -48 60 C-48 56.04 -48 52.08 -48 48 C-46.02 48 -44.04 48 -42 48 C-42 49.98 -42 51.96 -42 54 C-36.06 54 -30.12 54 -24 54 C-24 50.04 -24 46.08 -24 42 C-22.02 42 -20.04 42 -18 42 C-18 38.04 -18 34.08 -18 30 C-16.02 30 -14.04 30 -12 30 C-12 26.04 -12 22.08 -12 18 C-10.02 18 -8.04 18 -6 18 C-6 14.04 -6 10.08 -6 6 C-4.02 6 -2.04 6 0 6 C0 4.02 0 2.04 0 0 Z " fill="#A56F01" transform="translate(324,276)"/>
<path d="M0 0 C7.92 0 15.84 0 24 0 C24 1.98 24 3.96 24 6 C27.96 6 31.92 6 36 6 C36 7.98 36 9.96 36 12 C37.98 12 39.96 12 42 12 C42 13.98 42 15.96 42 18 C45.96 18 49.92 18 54 18 C54 19.98 54 21.96 54 24 C55.98 24 57.96 24 60 24 C60 25.98 60 27.96 60 30 C65.94 30 71.88 30 78 30 C78 31.98 78 33.96 78 36 C68.1 36 58.2 36 48 36 C48 37.98 48 39.96 48 42 C46.02 42 44.04 42 42 42 C42 40.02 42 38.04 42 36 C38.04 36 34.08 36 30 36 C30 34.02 30 32.04 30 30 C26.04 30 22.08 30 18 30 C18 28.02 18 26.04 18 24 C14.04 24 10.08 24 6 24 C6 22.02 6 20.04 6 18 C0.06 18 -5.88 18 -12 18 C-12 16.02 -12 14.04 -12 12 C-8.04 12 -4.08 12 0 12 C0 8.04 0 4.08 0 0 Z " fill="#CB8500" transform="translate(294,120)"/>
<path d="M0 0 C7.92 0 15.84 0 24 0 C24 15.84 24 31.68 24 48 C20.04 48 16.08 48 12 48 C12 46.02 12 44.04 12 42 C10.02 42 8.04 42 6 42 C6 38.04 6 34.08 6 30 C4.02 30 2.04 30 0 30 C0 26.04 0 22.08 0 18 C-3.96 18 -7.92 18 -12 18 C-12 19.98 -12 21.96 -12 24 C-15.96 24 -19.92 24 -24 24 C-24 22.02 -24 20.04 -24 18 C-22.02 18 -20.04 18 -18 18 C-18 16.02 -18 14.04 -18 12 C-16.02 12 -14.04 12 -12 12 C-12 10.02 -12 8.04 -12 6 C-8.04 6 -4.08 6 0 6 C0 4.02 0 2.04 0 0 Z " fill="#7E5701" transform="translate(222,132)"/>
<path d="M0 0 C5.94 0 11.88 0 18 0 C18 1.98 18 3.96 18 6 C29.88 6 41.76 6 54 6 C54 4.02 54 2.04 54 0 C63.9 0 73.8 0 84 0 C84 1.98 84 3.96 84 6 C82.02 6 80.04 6 78 6 C78 7.98 78 9.96 78 12 C74.04 12 70.08 12 66 12 C66 13.98 66 15.96 66 18 C44.22 18 22.44 18 0 18 C0 16.02 0 14.04 0 12 C-1.98 12 -3.96 12 -6 12 C-6 10.02 -6 8.04 -6 6 C-4.02 6 -2.04 6 0 6 C0 4.02 0 2.04 0 0 Z " fill="#EBB800" transform="translate(330,264)"/>
<path d="M0 0 C5.94 0 11.88 0 18 0 C18 3.96 18 7.92 18 12 C19.98 12 21.96 12 24 12 C24 15.96 24 19.92 24 24 C22.02 24 20.04 24 18 24 C18 25.98 18 27.96 18 30 C16.02 30 14.04 30 12 30 C12 31.98 12 33.96 12 36 C8.04 36 4.08 36 0 36 C0 34.02 0 32.04 0 30 C-1.98 30 -3.96 30 -6 30 C-6 28.02 -6 26.04 -6 24 C-7.98 24 -9.96 24 -12 24 C-12 20.04 -12 16.08 -12 12 C-10.02 12 -8.04 12 -6 12 C-6 10.02 -6 8.04 -6 6 C-4.02 6 -2.04 6 0 6 C0 4.02 0 2.04 0 0 Z " fill="#AB340E" transform="translate(360,222)"/>
<path d="M0 0 C9.9 0 19.8 0 30 0 C30 3.96 30 7.92 30 12 C33.96 12 37.92 12 42 12 C42 13.98 42 15.96 42 18 C45.96 18 49.92 18 54 18 C54 19.98 54 21.96 54 24 C52.02 24 50.04 24 48 24 C48 27.96 48 31.92 48 36 C46.02 36 44.04 36 42 36 C42 39.96 42 43.92 42 48 C40.02 48 38.04 48 36 48 C36 42.06 36 36.12 36 30 C32.04 30 28.08 30 24 30 C24 26.04 24 22.08 24 18 C22.02 18 20.04 18 18 18 C18 14.04 18 10.08 18 6 C12.06 6 6.12 6 0 6 C0 4.02 0 2.04 0 0 Z " fill="#703D1F" transform="translate(144,138)"/>
<path d="M0 0 C7.92 0 15.84 0 24 0 C24 1.98 24 3.96 24 6 C22.02 6 20.04 6 18 6 C18 7.98 18 9.96 18 12 C16.02 12 14.04 12 12 12 C12 21.9 12 31.8 12 42 C15.96 42 19.92 42 24 42 C24 43.98 24 45.96 24 48 C18.06 48 12.12 48 6 48 C6 46.02 6 44.04 6 42 C4.02 42 2.04 42 0 42 C0 28.14 0 14.28 0 0 Z " fill="#EBB800" transform="translate(276,282)"/>
<path d="M0 0 C1.98 0 3.96 0 6 0 C6 1.98 6 3.96 6 6 C7.98 6 9.96 6 12 6 C12 7.98 12 9.96 12 12 C13.98 12 15.96 12 18 12 C18 10.02 18 8.04 18 6 C19.98 6 21.96 6 24 6 C24 7.98 24 9.96 24 12 C27.96 12 31.92 12 36 12 C36 13.98 36 15.96 36 18 C30.06 18 24.12 18 18 18 C18 19.98 18 21.96 18 24 C16.02 24 14.04 24 12 24 C12 27.96 12 31.92 12 36 C8.04 36 4.08 36 0 36 C0 24.12 0 12.24 0 0 Z " fill="#7E5701" transform="translate(264,150)"/>
<path d="M0 0 C1.98 0 3.96 0 6 0 C6 9.9 6 19.8 6 30 C4.02 30 2.04 30 0 30 C0 31.98 0 33.96 0 36 C1.98 36 3.96 36 6 36 C6 37.98 6 39.96 6 42 C17.88 42 29.76 42 42 42 C42 45.96 42 49.92 42 54 C40.02 54 38.04 54 36 54 C36 52.02 36 50.04 36 48 C24.12 48 12.24 48 0 48 C0 46.02 0 44.04 0 42 C-1.98 42 -3.96 42 -6 42 C-6 36.06 -6 30.12 -6 24 C-4.02 24 -2.04 24 0 24 C0 16.08 0 8.16 0 0 Z " fill="#161F2B" transform="translate(96,72)"/>
<path d="M0 0 C1.98 0 3.96 0 6 0 C6 1.98 6 3.96 6 6 C21.84 6 37.68 6 54 6 C54 7.98 54 9.96 54 12 C42.12 12 30.24 12 18 12 C18 13.98 18 15.96 18 18 C16.02 18 14.04 18 12 18 C12 16.02 12 14.04 12 12 C8.04 12 4.08 12 0 12 C0 13.98 0 15.96 0 18 C-1.98 18 -3.96 18 -6 18 C-6 14.04 -6 10.08 -6 6 C-4.02 6 -2.04 6 0 6 C0 4.02 0 2.04 0 0 Z " fill="#8A6F2B" transform="translate(324,276)"/>
<path d="M0 0 C5.94 0 11.88 0 18 0 C18 1.98 18 3.96 18 6 C21.96 6 25.92 6 30 6 C30 11.94 30 17.88 30 24 C28.02 24 26.04 24 24 24 C24 27.96 24 31.92 24 36 C22.02 36 20.04 36 18 36 C18 30.06 18 24.12 18 18 C16.02 18 14.04 18 12 18 C12 14.04 12 10.08 12 6 C8.04 6 4.08 6 0 6 C0 4.02 0 2.04 0 0 Z " fill="#EBB800" transform="translate(114,30)"/>
<path d="M0 0 C9.9 0 19.8 0 30 0 C30 13.86 30 27.72 30 42 C28.02 42 26.04 42 24 42 C24 30.12 24 18.24 24 6 C16.08 6 8.16 6 0 6 C0 4.02 0 2.04 0 0 Z " fill="#161F2B" transform="translate(246,282)"/>
<path d="M0 0 C3.96 0 7.92 0 12 0 C12 5.94 12 11.88 12 18 C10.02 18 8.04 18 6 18 C6 21.96 6 25.92 6 30 C4.02 30 2.04 30 0 30 C0 28.02 0 26.04 0 24 C-3.96 24 -7.92 24 -12 24 C-12 20.04 -12 16.08 -12 12 C-6.06 12 -0.12 12 6 12 C6 10.02 6 8.04 6 6 C4.02 6 2.04 6 0 6 C0 4.02 0 2.04 0 0 Z " fill="#F2D601" transform="translate(420,228)"/>
<path d="M0 0 C5.94 0 11.88 0 18 0 C18 3.96 18 7.92 18 12 C19.98 12 21.96 12 24 12 C24 15.96 24 19.92 24 24 C20.04 24 16.08 24 12 24 C12 22.02 12 20.04 12 18 C10.02 18 8.04 18 6 18 C6 16.02 6 14.04 6 12 C4.02 12 2.04 12 0 12 C0 8.04 0 4.08 0 0 Z " fill="#DC0027" transform="translate(360,222)"/>
<path d="M0 0 C1.98 0 3.96 0 6 0 C6 1.98 6 3.96 6 6 C11.94 6 17.88 6 24 6 C24 7.98 24 9.96 24 12 C27.96 12 31.92 12 36 12 C36 19.92 36 27.84 36 36 C34.02 36 32.04 36 30 36 C30 30.06 30 24.12 30 18 C26.04 18 22.08 18 18 18 C18 16.02 18 14.04 18 12 C12.06 12 6.12 12 0 12 C0 8.04 0 4.08 0 0 Z " fill="#161F2B" transform="translate(120,84)"/>
<path d="M0 0 C3.96 0 7.92 0 12 0 C12 1.98 12 3.96 12 6 C15.96 6 19.92 6 24 6 C24 7.98 24 9.96 24 12 C27.96 12 31.92 12 36 12 C36 13.98 36 15.96 36 18 C26.1 18 16.2 18 6 18 C6 14.04 6 10.08 6 6 C4.02 6 2.04 6 0 6 C0 4.02 0 2.04 0 0 Z " fill="#F2D601" transform="translate(300,168)"/>
<path d="M0 0 C1.98 0 3.96 0 6 0 C6 1.98 6 3.96 6 6 C11.94 6 17.88 6 24 6 C24 7.98 24 9.96 24 12 C14.1 12 4.2 12 -6 12 C-6 13.98 -6 15.96 -6 18 C-7.98 18 -9.96 18 -12 18 C-12 16.02 -12 14.04 -12 12 C-15.96 12 -19.92 12 -24 12 C-24 10.02 -24 8.04 -24 6 C-16.08 6 -8.16 6 0 6 C0 4.02 0 2.04 0 0 Z " fill="#8A6F2B" transform="translate(348,144)"/>
<path d="M0 0 C1.98 0 3.96 0 6 0 C6 1.98 6 3.96 6 6 C11.94 6 17.88 6 24 6 C24 7.98 24 9.96 24 12 C20.04 12 16.08 12 12 12 C12 13.98 12 15.96 12 18 C13.98 18 15.96 18 18 18 C18 21.96 18 25.92 18 30 C16.02 30 14.04 30 12 30 C12 28.02 12 26.04 12 24 C10.02 24 8.04 24 6 24 C6 22.02 6 20.04 6 18 C4.02 18 2.04 18 0 18 C0 12.06 0 6.12 0 0 Z " fill="#F2D601" transform="translate(276,132)"/>
<path d="M0 0 C7.92 0 15.84 0 24 0 C24 1.98 24 3.96 24 6 C18.06 6 12.12 6 6 6 C6 17.88 6 29.76 6 42 C4.02 42 2.04 42 0 42 C0 28.14 0 14.28 0 0 Z " fill="#161F2B" transform="translate(24,0)"/>
<path d="M0 0 C3.96 0 7.92 0 12 0 C12 1.98 12 3.96 12 6 C10.02 6 8.04 6 6 6 C6 7.98 6 9.96 6 12 C7.98 12 9.96 12 12 12 C12 17.94 12 23.88 12 30 C8.04 30 4.08 30 0 30 C0 20.1 0 10.2 0 0 Z " fill="#161F2B" transform="translate(390,204)"/>
<path d="M0 0 C1.98 0 3.96 0 6 0 C6 5.94 6 11.88 6 18 C15.9 18 25.8 18 36 18 C36 19.98 36 21.96 36 24 C24.12 24 12.24 24 0 24 C0 16.08 0 8.16 0 0 Z " fill="#161F2B" transform="translate(30,42)"/>
<path d="M0 0 C5.94 0 11.88 0 18 0 C18 3.96 18 7.92 18 12 C23.94 12 29.88 12 36 12 C36 13.98 36 15.96 36 18 C28.08 18 20.16 18 12 18 C12 14.04 12 10.08 12 6 C8.04 6 4.08 6 0 6 C0 4.02 0 2.04 0 0 Z " fill="#161F2B" transform="translate(210,276)"/>
<path d="M0 0 C1.98 0 3.96 0 6 0 C6 15.84 6 31.68 6 48 C4.02 48 2.04 48 0 48 C0 32.16 0 16.32 0 0 Z " fill="#161F2B" transform="translate(174,186)"/>
<path d="M0 0 C3.96 0 7.92 0 12 0 C12 1.98 12 3.96 12 6 C13.98 6 15.96 6 18 6 C18 7.98 18 9.96 18 12 C19.98 12 21.96 12 24 12 C24 15.96 24 19.92 24 24 C22.02 24 20.04 24 18 24 C18 22.02 18 20.04 18 18 C14.04 18 10.08 18 6 18 C6 14.04 6 10.08 6 6 C4.02 6 2.04 6 0 6 C0 4.02 0 2.04 0 0 Z " fill="#EEC700" transform="translate(390,162)"/>
<path d="M0 0 C1.98 0 3.96 0 6 0 C6 1.98 6 3.96 6 6 C9.96 6 13.92 6 18 6 C18 11.94 18 17.88 18 24 C16.02 24 14.04 24 12 24 C12 22.02 12 20.04 12 18 C8.04 18 4.08 18 0 18 C0 12.06 0 6.12 0 0 Z " fill="#F2D601" transform="translate(246,138)"/>
<path d="M0 0 C5.94 0 11.88 0 18 0 C18 3.96 18 7.92 18 12 C10.08 12 2.16 12 -6 12 C-6 10.02 -6 8.04 -6 6 C-4.02 6 -2.04 6 0 6 C0 4.02 0 2.04 0 0 Z " fill="#8A6F2B" transform="translate(282,270)"/>
<path d="M0 0 C1.98 0 3.96 0 6 0 C6 13.86 6 27.72 6 42 C4.02 42 2.04 42 0 42 C0 28.14 0 14.28 0 0 Z " fill="#161F2B" transform="translate(414,186)"/>
<path d="M0 0 C7.92 0 15.84 0 24 0 C24 3.96 24 7.92 24 12 C25.98 12 27.96 12 30 12 C30 13.98 30 15.96 30 18 C26.04 18 22.08 18 18 18 C18 14.04 18 10.08 18 6 C12.06 6 6.12 6 0 6 C0 4.02 0 2.04 0 0 Z " fill="#161F2B" transform="translate(138,144)"/>
<path d="M0 0 C3.96 0 7.92 0 12 0 C12 3.96 12 7.92 12 12 C8.04 12 4.08 12 0 12 C0 13.98 0 15.96 0 18 C-1.98 18 -3.96 18 -6 18 C-6 14.04 -6 10.08 -6 6 C-4.02 6 -2.04 6 0 6 C0 4.02 0 2.04 0 0 Z " fill="#A56F01" transform="translate(324,288)"/>
<path d="M0 0 C11.88 0 23.76 0 36 0 C36 1.98 36 3.96 36 6 C24.12 6 12.24 6 0 6 C0 4.02 0 2.04 0 0 Z " fill="#161F2B" transform="translate(342,282)"/>
<path d="M0 0 C5.94 0 11.88 0 18 0 C18 7.92 18 15.84 18 24 C16.02 24 14.04 24 12 24 C12 18.06 12 12.12 12 6 C8.04 6 4.08 6 0 6 C0 4.02 0 2.04 0 0 Z " fill="#161F2B" transform="translate(168,162)"/>
<path d="M0 0 C1.98 0 3.96 0 6 0 C6 1.98 6 3.96 6 6 C11.94 6 17.88 6 24 6 C24 7.98 24 9.96 24 12 C16.08 12 8.16 12 0 12 C0 8.04 0 4.08 0 0 Z " fill="#8A6F2B" transform="translate(276,324)"/>
<path d="M0 0 C3.96 0 7.92 0 12 0 C12 3.96 12 7.92 12 12 C10.02 12 8.04 12 6 12 C6 13.98 6 15.96 6 18 C4.02 18 2.04 18 0 18 C0 12.06 0 6.12 0 0 Z " fill="#8A6F2B" transform="translate(300,318)"/>
<path d="M0 0 C9.9 0 19.8 0 30 0 C30 1.98 30 3.96 30 6 C20.1 6 10.2 6 0 6 C0 4.02 0 2.04 0 0 Z " fill="#161F2B" transform="translate(246,282)"/>
<path d="M0 0 C1.98 0 3.96 0 6 0 C6 9.9 6 19.8 6 30 C4.02 30 2.04 30 0 30 C0 20.1 0 10.2 0 0 Z " fill="#8A6F2B" transform="translate(276,240)"/>
<path d="M0 0 C3.96 0 7.92 0 12 0 C12 1.98 12 3.96 12 6 C13.98 6 15.96 6 18 6 C18 7.98 18 9.96 18 12 C12.06 12 6.12 12 0 12 C0 8.04 0 4.08 0 0 Z " fill="#EBB800" transform="translate(246,222)"/>
<path d="M0 0 C5.94 0 11.88 0 18 0 C18 1.98 18 3.96 18 6 C14.04 6 10.08 6 6 6 C6 7.98 6 9.96 6 12 C2.04 12 -1.92 12 -6 12 C-6 10.02 -6 8.04 -6 6 C-4.02 6 -2.04 6 0 6 C0 4.02 0 2.04 0 0 Z " fill="#EBB800" transform="translate(204,144)"/>
<path d="M0 0 C7.92 0 15.84 0 24 0 C24 3.96 24 7.92 24 12 C22.02 12 20.04 12 18 12 C18 10.02 18 8.04 18 6 C12.06 6 6.12 6 0 6 C0 4.02 0 2.04 0 0 Z " fill="#7E5701" transform="translate(144,138)"/>
<path d="M0 0 C9.9 0 19.8 0 30 0 C30 1.98 30 3.96 30 6 C20.1 6 10.2 6 0 6 C0 4.02 0 2.04 0 0 Z " fill="#161F2B" transform="translate(66,66)"/>
<path d="M0 0 C1.98 0 3.96 0 6 0 C6 5.94 6 11.88 6 18 C2.04 18 -1.92 18 -6 18 C-6 16.02 -6 14.04 -6 12 C-4.02 12 -2.04 12 0 12 C0 8.04 0 4.08 0 0 Z " fill="#161F2B" transform="translate(312,318)"/>
<path d="M0 0 C3.96 0 7.92 0 12 0 C12 5.94 12 11.88 12 18 C10.02 18 8.04 18 6 18 C6 14.04 6 10.08 6 6 C4.02 6 2.04 6 0 6 C0 4.02 0 2.04 0 0 Z " fill="#161F2B" transform="translate(420,228)"/>
<path d="M0 0 C1.98 0 3.96 0 6 0 C6 1.98 6 3.96 6 6 C9.96 6 13.92 6 18 6 C18 7.98 18 9.96 18 12 C12.06 12 6.12 12 0 12 C0 8.04 0 4.08 0 0 Z " fill="#8A6F2B" transform="translate(282,156)"/>
<path d="M0 0 C3.96 0 7.92 0 12 0 C12 1.98 12 3.96 12 6 C10.02 6 8.04 6 6 6 C6 7.98 6 9.96 6 12 C2.04 12 -1.92 12 -6 12 C-6 10.02 -6 8.04 -6 6 C-4.02 6 -2.04 6 0 6 C0 4.02 0 2.04 0 0 Z " fill="#F2D601" transform="translate(198,156)"/>
<path d="M0 0 C1.98 0 3.96 0 6 0 C6 1.98 6 3.96 6 6 C9.96 6 13.92 6 18 6 C18 7.98 18 9.96 18 12 C12.06 12 6.12 12 0 12 C0 8.04 0 4.08 0 0 Z " fill="#CB8500" transform="translate(246,138)"/>
<path d="M0 0 C1.98 0 3.96 0 6 0 C6 3.96 6 7.92 6 12 C7.98 12 9.96 12 12 12 C12 13.98 12 15.96 12 18 C8.04 18 4.08 18 0 18 C0 12.06 0 6.12 0 0 Z " fill="#161F2B" transform="translate(126,126)"/>
<path d="M0 0 C3.96 0 7.92 0 12 0 C12 5.94 12 11.88 12 18 C10.02 18 8.04 18 6 18 C6 14.04 6 10.08 6 6 C4.02 6 2.04 6 0 6 C0 4.02 0 2.04 0 0 Z " fill="#161F2B" transform="translate(132,36)"/>
<path d="M0 0 C5.94 0 11.88 0 18 0 C18 1.98 18 3.96 18 6 C12.06 6 6.12 6 0 6 C0 4.02 0 2.04 0 0 Z " fill="#161F2B" transform="translate(378,276)"/>
<path d="M0 0 C3.96 0 7.92 0 12 0 C12 3.96 12 7.92 12 12 C10.02 12 8.04 12 6 12 C6 10.02 6 8.04 6 6 C4.02 6 2.04 6 0 6 C0 4.02 0 2.04 0 0 Z " fill="#CB8500" transform="translate(198,264)"/>
<path d="M0 0 C3.96 0 7.92 0 12 0 C12 3.96 12 7.92 12 12 C10.02 12 8.04 12 6 12 C6 10.02 6 8.04 6 6 C4.02 6 2.04 6 0 6 C0 4.02 0 2.04 0 0 Z " fill="#CB8500" transform="translate(186,252)"/>
<path d="M0 0 C3.96 0 7.92 0 12 0 C12 3.96 12 7.92 12 12 C10.02 12 8.04 12 6 12 C6 10.02 6 8.04 6 6 C4.02 6 2.04 6 0 6 C0 4.02 0 2.04 0 0 Z " fill="#161F2B" transform="translate(414,246)"/>
<path d="M0 0 C1.98 0 3.96 0 6 0 C6 5.94 6 11.88 6 18 C4.02 18 2.04 18 0 18 C0 12.06 0 6.12 0 0 Z " fill="#161F2B" transform="translate(180,234)"/>
<path d="M0 0 C1.98 0 3.96 0 6 0 C6 1.98 6 3.96 6 6 C7.98 6 9.96 6 12 6 C12 7.98 12 9.96 12 12 C8.04 12 4.08 12 0 12 C0 8.04 0 4.08 0 0 Z " fill="#6A323F" transform="translate(390,222)"/>
<path d="M0 0 C3.96 0 7.92 0 12 0 C12 3.96 12 7.92 12 12 C10.02 12 8.04 12 6 12 C6 10.02 6 8.04 6 6 C4.02 6 2.04 6 0 6 C0 4.02 0 2.04 0 0 Z " fill="#EBB800" transform="translate(366,222)"/>
<path d="M0 0 C5.94 0 11.88 0 18 0 C18 1.98 18 3.96 18 6 C12.06 6 6.12 6 0 6 C0 4.02 0 2.04 0 0 Z " fill="#EBB800" transform="translate(282,168)"/>
<path d="M0 0 C5.94 0 11.88 0 18 0 C18 1.98 18 3.96 18 6 C12.06 6 6.12 6 0 6 C0 4.02 0 2.04 0 0 Z " fill="#161F2B" transform="translate(372,156)"/>
<path d="M0 0 C5.94 0 11.88 0 18 0 C18 1.98 18 3.96 18 6 C12.06 6 6.12 6 0 6 C0 4.02 0 2.04 0 0 Z " fill="#161F2B" transform="translate(354,150)"/>
<path d="M0 0 C5.94 0 11.88 0 18 0 C18 1.98 18 3.96 18 6 C12.06 6 6.12 6 0 6 C0 4.02 0 2.04 0 0 Z " fill="#8A6F2B" transform="translate(282,132)"/>
<path d="M0 0 C5.94 0 11.88 0 18 0 C18 1.98 18 3.96 18 6 C12.06 6 6.12 6 0 6 C0 4.02 0 2.04 0 0 Z " fill="#161F2B" transform="translate(222,132)"/>
<path d="M0 0 C5.94 0 11.88 0 18 0 C18 1.98 18 3.96 18 6 C12.06 6 6.12 6 0 6 C0 4.02 0 2.04 0 0 Z " fill="#161F2B" transform="translate(150,132)"/>
<path d="M0 0 C1.98 0 3.96 0 6 0 C6 5.94 6 11.88 6 18 C4.02 18 2.04 18 0 18 C0 12.06 0 6.12 0 0 Z " fill="#F2D601" transform="translate(144,102)"/>
<path d="M0 0 C3.96 0 7.92 0 12 0 C12 3.96 12 7.92 12 12 C10.02 12 8.04 12 6 12 C6 10.02 6 8.04 6 6 C4.02 6 2.04 6 0 6 C0 4.02 0 2.04 0 0 Z " fill="#F2D601" transform="translate(96,102)"/>
<path d="M0 0 C1.98 0 3.96 0 6 0 C6 5.94 6 11.88 6 18 C4.02 18 2.04 18 0 18 C0 12.06 0 6.12 0 0 Z " fill="#161F2B" transform="translate(126,66)"/>
<path d="M0 0 C5.94 0 11.88 0 18 0 C18 1.98 18 3.96 18 6 C12.06 6 6.12 6 0 6 C0 4.02 0 2.04 0 0 Z " fill="#161F2B" transform="translate(114,30)"/>
<path d="M0 0 C5.94 0 11.88 0 18 0 C18 1.98 18 3.96 18 6 C12.06 6 6.12 6 0 6 C0 4.02 0 2.04 0 0 Z " fill="#161F2B" transform="translate(84,18)"/>
<path d="M0 0 C5.94 0 11.88 0 18 0 C18 1.98 18 3.96 18 6 C12.06 6 6.12 6 0 6 C0 4.02 0 2.04 0 0 Z " fill="#161F2B" transform="translate(66,12)"/>
<path d="M0 0 C5.94 0 11.88 0 18 0 C18 1.98 18 3.96 18 6 C12.06 6 6.12 6 0 6 C0 4.02 0 2.04 0 0 Z " fill="#161F2B" transform="translate(48,6)"/>
<path d="M0 0 C5.94 0 11.88 0 18 0 C18 1.98 18 3.96 18 6 C12.06 6 6.12 6 0 6 C0 4.02 0 2.04 0 0 Z " fill="#F2D601" transform="translate(30,6)"/>
<path d="M0 0 C1.98 0 3.96 0 6 0 C6 3.96 6 7.92 6 12 C4.02 12 2.04 12 0 12 C0 8.04 0 4.08 0 0 Z " fill="#A56F01" transform="translate(306,318)"/>
<path d="M0 0 C3.96 0 7.92 0 12 0 C12 1.98 12 3.96 12 6 C8.04 6 4.08 6 0 6 C0 4.02 0 2.04 0 0 Z " fill="#F2D601" transform="translate(288,318)"/>
<path d="M0 0 C1.98 0 3.96 0 6 0 C6 3.96 6 7.92 6 12 C4.02 12 2.04 12 0 12 C0 8.04 0 4.08 0 0 Z " fill="#8A6F2B" transform="translate(306,306)"/>
<path d="M0 0 C1.98 0 3.96 0 6 0 C6 3.96 6 7.92 6 12 C4.02 12 2.04 12 0 12 C0 8.04 0 4.08 0 0 Z " fill="#161F2B" transform="translate(324,300)"/>
<path d="M0 0 C1.98 0 3.96 0 6 0 C6 3.96 6 7.92 6 12 C4.02 12 2.04 12 0 12 C0 8.04 0 4.08 0 0 Z " fill="#CB8500" transform="translate(318,294)"/>
<path d="M0 0 C1.98 0 3.96 0 6 0 C6 3.96 6 7.92 6 12 C4.02 12 2.04 12 0 12 C0 8.04 0 4.08 0 0 Z " fill="#8A6F2B" transform="translate(312,294)"/>
<path d="M0 0 C3.96 0 7.92 0 12 0 C12 1.98 12 3.96 12 6 C8.04 6 4.08 6 0 6 C0 4.02 0 2.04 0 0 Z " fill="#161F2B" transform="translate(396,270)"/>
<path d="M0 0 C3.96 0 7.92 0 12 0 C12 1.98 12 3.96 12 6 C8.04 6 4.08 6 0 6 C0 4.02 0 2.04 0 0 Z " fill="#7E5701" transform="translate(288,270)"/>
<path d="M0 0 C3.96 0 7.92 0 12 0 C12 1.98 12 3.96 12 6 C8.04 6 4.08 6 0 6 C0 4.02 0 2.04 0 0 Z " fill="#EBB800" transform="translate(282,264)"/>
<path d="M0 0 C1.98 0 3.96 0 6 0 C6 3.96 6 7.92 6 12 C4.02 12 2.04 12 0 12 C0 8.04 0 4.08 0 0 Z " fill="#F2D601" transform="translate(258,258)"/>
<path d="M0 0 C3.96 0 7.92 0 12 0 C12 1.98 12 3.96 12 6 C8.04 6 4.08 6 0 6 C0 4.02 0 2.04 0 0 Z " fill="#DC0027" transform="translate(360,252)"/>
<path d="M0 0 C3.96 0 7.92 0 12 0 C12 1.98 12 3.96 12 6 C8.04 6 4.08 6 0 6 C0 4.02 0 2.04 0 0 Z " fill="#8A6F2B" transform="translate(264,234)"/>
<path d="M0 0 C3.96 0 7.92 0 12 0 C12 1.98 12 3.96 12 6 C8.04 6 4.08 6 0 6 C0 4.02 0 2.04 0 0 Z " fill="#EBB800" transform="translate(264,228)"/>
<path d="M0 0 C3.96 0 7.92 0 12 0 C12 1.98 12 3.96 12 6 C8.04 6 4.08 6 0 6 C0 4.02 0 2.04 0 0 Z " fill="#8A6F2B" transform="translate(252,228)"/>
<path d="M0 0 C1.98 0 3.96 0 6 0 C6 3.96 6 7.92 6 12 C4.02 12 2.04 12 0 12 C0 8.04 0 4.08 0 0 Z " fill="#EBB800" transform="translate(408,216)"/>
<path d="M0 0 C1.98 0 3.96 0 6 0 C6 3.96 6 7.92 6 12 C4.02 12 2.04 12 0 12 C0 8.04 0 4.08 0 0 Z " fill="#F2D601" transform="translate(408,186)"/>
<path d="M0 0 C3.96 0 7.92 0 12 0 C12 1.98 12 3.96 12 6 C8.04 6 4.08 6 0 6 C0 4.02 0 2.04 0 0 Z " fill="#CB8500" transform="translate(324,180)"/>
<path d="M0 0 C1.98 0 3.96 0 6 0 C6 3.96 6 7.92 6 12 C4.02 12 2.04 12 0 12 C0 8.04 0 4.08 0 0 Z " fill="#161F2B" transform="translate(408,174)"/>
<path d="M0 0 C3.96 0 7.92 0 12 0 C12 1.98 12 3.96 12 6 C8.04 6 4.08 6 0 6 C0 4.02 0 2.04 0 0 Z " fill="#8A6F2B" transform="translate(312,174)"/>
<path d="M0 0 C3.96 0 7.92 0 12 0 C12 1.98 12 3.96 12 6 C8.04 6 4.08 6 0 6 C0 4.02 0 2.04 0 0 Z " fill="#F2D601" transform="translate(276,174)"/>
<path d="M0 0 C3.96 0 7.92 0 12 0 C12 1.98 12 3.96 12 6 C8.04 6 4.08 6 0 6 C0 4.02 0 2.04 0 0 Z " fill="#8A6F2B" transform="translate(300,168)"/>
<path d="M0 0 C1.98 0 3.96 0 6 0 C6 3.96 6 7.92 6 12 C4.02 12 2.04 12 0 12 C0 8.04 0 4.08 0 0 Z " fill="#F2D601" transform="translate(222,162)"/>
<path d="M0 0 C3.96 0 7.92 0 12 0 C12 1.98 12 3.96 12 6 C8.04 6 4.08 6 0 6 C0 4.02 0 2.04 0 0 Z " fill="#161F2B" transform="translate(390,162)"/>
<path d="M0 0 C1.98 0 3.96 0 6 0 C6 3.96 6 7.92 6 12 C4.02 12 2.04 12 0 12 C0 8.04 0 4.08 0 0 Z " fill="#CB8500" transform="translate(282,156)"/>
<path d="M0 0 C1.98 0 3.96 0 6 0 C6 3.96 6 7.92 6 12 C4.02 12 2.04 12 0 12 C0 8.04 0 4.08 0 0 Z " fill="#694118" transform="translate(186,162)"/>
<path d="M0 0 C3.96 0 7.92 0 12 0 C12 1.98 12 3.96 12 6 C8.04 6 4.08 6 0 6 C0 4.02 0 2.04 0 0 Z " fill="#F2D601" transform="translate(342,156)"/>
<path d="M0 0 C3.96 0 7.92 0 12 0 C12 1.98 12 3.96 12 6 C8.04 6 4.08 6 0 6 C0 4.02 0 2.04 0 0 Z " fill="#161F2B" transform="translate(186,156)"/>
<path d="M0 0 C3.96 0 7.92 0 12 0 C12 1.98 12 3.96 12 6 C8.04 6 4.08 6 0 6 C0 4.02 0 2.04 0 0 Z " fill="#F2D601" transform="translate(210,150)"/>
<path d="M0 0 C3.96 0 7.92 0 12 0 C12 1.98 12 3.96 12 6 C8.04 6 4.08 6 0 6 C0 4.02 0 2.04 0 0 Z " fill="#EBB800" transform="translate(198,150)"/>
<path d="M0 0 C3.96 0 7.92 0 12 0 C12 1.98 12 3.96 12 6 C8.04 6 4.08 6 0 6 C0 4.02 0 2.04 0 0 Z " fill="#161F2B" transform="translate(174,150)"/>
<path d="M0 0 C3.96 0 7.92 0 12 0 C12 1.98 12 3.96 12 6 C8.04 6 4.08 6 0 6 C0 4.02 0 2.04 0 0 Z " fill="#8A6F2B" transform="translate(312,144)"/>
<path d="M0 0 C1.98 0 3.96 0 6 0 C6 3.96 6 7.92 6 12 C4.02 12 2.04 12 0 12 C0 8.04 0 4.08 0 0 Z " fill="#EBB800" transform="translate(246,138)"/>
<path d="M0 0 C3.96 0 7.92 0 12 0 C12 1.98 12 3.96 12 6 C8.04 6 4.08 6 0 6 C0 4.02 0 2.04 0 0 Z " fill="#161F2B" transform="translate(336,138)"/>
<path d="M0 0 C1.98 0 3.96 0 6 0 C6 3.96 6 7.92 6 12 C4.02 12 2.04 12 0 12 C0 8.04 0 4.08 0 0 Z " fill="#A56F01" transform="translate(330,132)"/>
<path d="M0 0 C3.96 0 7.92 0 12 0 C12 1.98 12 3.96 12 6 C8.04 6 4.08 6 0 6 C0 4.02 0 2.04 0 0 Z " fill="#8A6F2B" transform="translate(300,138)"/>
<path d="M0 0 C3.96 0 7.92 0 12 0 C12 1.98 12 3.96 12 6 C8.04 6 4.08 6 0 6 C0 4.02 0 2.04 0 0 Z " fill="#161F2B" transform="translate(210,138)"/>
<path d="M0 0 C1.98 0 3.96 0 6 0 C6 3.96 6 7.92 6 12 C4.02 12 2.04 12 0 12 C0 8.04 0 4.08 0 0 Z " fill="#161F2B" transform="translate(168,138)"/>
<path d="M0 0 C1.98 0 3.96 0 6 0 C6 3.96 6 7.92 6 12 C4.02 12 2.04 12 0 12 C0 8.04 0 4.08 0 0 Z " fill="#703D1F" transform="translate(240,132)"/>
<path d="M0 0 C3.96 0 7.92 0 12 0 C12 1.98 12 3.96 12 6 C8.04 6 4.08 6 0 6 C0 4.02 0 2.04 0 0 Z " fill="#161F2B" transform="translate(318,126)"/>
<path d="M0 0 C1.98 0 3.96 0 6 0 C6 3.96 6 7.92 6 12 C4.02 12 2.04 12 0 12 C0 8.04 0 4.08 0 0 Z " fill="#703D1F" transform="translate(132,126)"/>
<path d="M0 0 C3.96 0 7.92 0 12 0 C12 1.98 12 3.96 12 6 C8.04 6 4.08 6 0 6 C0 4.02 0 2.04 0 0 Z " fill="#161F2B" transform="translate(306,120)"/>
<path d="M0 0 C3.96 0 7.92 0 12 0 C12 1.98 12 3.96 12 6 C8.04 6 4.08 6 0 6 C0 4.02 0 2.04 0 0 Z " fill="#A56F01" transform="translate(294,120)"/>
<path d="M0 0 C1.98 0 3.96 0 6 0 C6 3.96 6 7.92 6 12 C4.02 12 2.04 12 0 12 C0 8.04 0 4.08 0 0 Z " fill="#161F2B" transform="translate(144,120)"/>
<path d="M0 0 C1.98 0 3.96 0 6 0 C6 3.96 6 7.92 6 12 C4.02 12 2.04 12 0 12 C0 8.04 0 4.08 0 0 Z " fill="#161F2B" transform="translate(132,54)"/>
<path d="M0 0 C1.98 0 3.96 0 6 0 C6 3.96 6 7.92 6 12 C4.02 12 2.04 12 0 12 C0 8.04 0 4.08 0 0 Z " fill="#F2D601" transform="translate(126,36)"/>
<path d="M0 0 C3.96 0 7.92 0 12 0 C12 1.98 12 3.96 12 6 C8.04 6 4.08 6 0 6 C0 4.02 0 2.04 0 0 Z " fill="#161F2B" transform="translate(102,24)"/>
<path d="M0 0 C1.98 0 3.96 0 6 0 C6 1.98 6 3.96 6 6 C4.02 6 2.04 6 0 6 C0 4.02 0 2.04 0 0 Z " fill="#161F2B" transform="translate(294,330)"/>
<path d="M0 0 C1.98 0 3.96 0 6 0 C6 1.98 6 3.96 6 6 C4.02 6 2.04 6 0 6 C0 4.02 0 2.04 0 0 Z " fill="#8A6F2B" transform="translate(288,330)"/>
<path d="M0 0 C1.98 0 3.96 0 6 0 C6 1.98 6 3.96 6 6 C4.02 6 2.04 6 0 6 C0 4.02 0 2.04 0 0 Z " fill="#161F2B" transform="translate(282,330)"/>
<path d="M0 0 C1.98 0 3.96 0 6 0 C6 1.98 6 3.96 6 6 C4.02 6 2.04 6 0 6 C0 4.02 0 2.04 0 0 Z " fill="#CB8500" transform="translate(282,324)"/>
<path d="M0 0 C1.98 0 3.96 0 6 0 C6 1.98 6 3.96 6 6 C4.02 6 2.04 6 0 6 C0 4.02 0 2.04 0 0 Z " fill="#161F2B" transform="translate(276,324)"/>
<path d="M0 0 C1.98 0 3.96 0 6 0 C6 1.98 6 3.96 6 6 C4.02 6 2.04 6 0 6 C0 4.02 0 2.04 0 0 Z " fill="#CB8500" transform="translate(306,318)"/>
<path d="M0 0 C1.98 0 3.96 0 6 0 C6 1.98 6 3.96 6 6 C4.02 6 2.04 6 0 6 C0 4.02 0 2.04 0 0 Z " fill="#CB8500" transform="translate(276,318)"/>
<path d="M0 0 C1.98 0 3.96 0 6 0 C6 1.98 6 3.96 6 6 C4.02 6 2.04 6 0 6 C0 4.02 0 2.04 0 0 Z " fill="#161F2B" transform="translate(318,312)"/>
<path d="M0 0 C1.98 0 3.96 0 6 0 C6 1.98 6 3.96 6 6 C4.02 6 2.04 6 0 6 C0 4.02 0 2.04 0 0 Z " fill="#A56F01" transform="translate(312,312)"/>
<path d="M0 0 C1.98 0 3.96 0 6 0 C6 1.98 6 3.96 6 6 C4.02 6 2.04 6 0 6 C0 4.02 0 2.04 0 0 Z " fill="#EBB800" transform="translate(300,312)"/>
<path d="M0 0 C1.98 0 3.96 0 6 0 C6 1.98 6 3.96 6 6 C4.02 6 2.04 6 0 6 C0 4.02 0 2.04 0 0 Z " fill="#CB8500" transform="translate(312,306)"/>
<path d="M0 0 C1.98 0 3.96 0 6 0 C6 1.98 6 3.96 6 6 C4.02 6 2.04 6 0 6 C0 4.02 0 2.04 0 0 Z " fill="#F2D601" transform="translate(300,306)"/>
<path d="M0 0 C1.98 0 3.96 0 6 0 C6 1.98 6 3.96 6 6 C4.02 6 2.04 6 0 6 C0 4.02 0 2.04 0 0 Z " fill="#EBB800" transform="translate(306,300)"/>
<path d="M0 0 C1.98 0 3.96 0 6 0 C6 1.98 6 3.96 6 6 C4.02 6 2.04 6 0 6 C0 4.02 0 2.04 0 0 Z " fill="#161F2B" transform="translate(330,294)"/>
<path d="M0 0 C1.98 0 3.96 0 6 0 C6 1.98 6 3.96 6 6 C4.02 6 2.04 6 0 6 C0 4.02 0 2.04 0 0 Z " fill="#A56F01" transform="translate(324,294)"/>
<path d="M0 0 C1.98 0 3.96 0 6 0 C6 1.98 6 3.96 6 6 C4.02 6 2.04 6 0 6 C0 4.02 0 2.04 0 0 Z " fill="#F2D601" transform="translate(306,294)"/>
<path d="M0 0 C1.98 0 3.96 0 6 0 C6 1.98 6 3.96 6 6 C4.02 6 2.04 6 0 6 C0 4.02 0 2.04 0 0 Z " fill="#F2D601" transform="translate(288,294)"/>
<path d="M0 0 C1.98 0 3.96 0 6 0 C6 1.98 6 3.96 6 6 C4.02 6 2.04 6 0 6 C0 4.02 0 2.04 0 0 Z " fill="#161F2B" transform="translate(336,288)"/>
<path d="M0 0 C1.98 0 3.96 0 6 0 C6 1.98 6 3.96 6 6 C4.02 6 2.04 6 0 6 C0 4.02 0 2.04 0 0 Z " fill="#CB8500" transform="translate(324,288)"/>
<path d="M0 0 C1.98 0 3.96 0 6 0 C6 1.98 6 3.96 6 6 C4.02 6 2.04 6 0 6 C0 4.02 0 2.04 0 0 Z " fill="#EBB800" transform="translate(312,288)"/>
<path d="M0 0 C1.98 0 3.96 0 6 0 C6 1.98 6 3.96 6 6 C4.02 6 2.04 6 0 6 C0 4.02 0 2.04 0 0 Z " fill="#F2D601" transform="translate(294,288)"/>
<path d="M0 0 C1.98 0 3.96 0 6 0 C6 1.98 6 3.96 6 6 C4.02 6 2.04 6 0 6 C0 4.02 0 2.04 0 0 Z " fill="#F2D601" transform="translate(312,282)"/>
<path d="M0 0 C1.98 0 3.96 0 6 0 C6 1.98 6 3.96 6 6 C4.02 6 2.04 6 0 6 C0 4.02 0 2.04 0 0 Z " fill="#8A6F2B" transform="translate(270,282)"/>
<path d="M0 0 C1.98 0 3.96 0 6 0 C6 1.98 6 3.96 6 6 C4.02 6 2.04 6 0 6 C0 4.02 0 2.04 0 0 Z " fill="#CB8500" transform="translate(240,282)"/>
<path d="M0 0 C1.98 0 3.96 0 6 0 C6 1.98 6 3.96 6 6 C4.02 6 2.04 6 0 6 C0 4.02 0 2.04 0 0 Z " fill="#CB8500" transform="translate(228,282)"/>
<path d="M0 0 C1.98 0 3.96 0 6 0 C6 1.98 6 3.96 6 6 C4.02 6 2.04 6 0 6 C0 4.02 0 2.04 0 0 Z " fill="#CB8500" transform="translate(372,276)"/>
<path d="M0 0 C1.98 0 3.96 0 6 0 C6 1.98 6 3.96 6 6 C4.02 6 2.04 6 0 6 C0 4.02 0 2.04 0 0 Z " fill="#CB8500" transform="translate(330,276)"/>
<path d="M0 0 C1.98 0 3.96 0 6 0 C6 1.98 6 3.96 6 6 C4.02 6 2.04 6 0 6 C0 4.02 0 2.04 0 0 Z " fill="#EBB800" transform="translate(318,276)"/>
<path d="M0 0 C1.98 0 3.96 0 6 0 C6 1.98 6 3.96 6 6 C4.02 6 2.04 6 0 6 C0 4.02 0 2.04 0 0 Z " fill="#CB8500" transform="translate(390,270)"/>
<path d="M0 0 C1.98 0 3.96 0 6 0 C6 1.98 6 3.96 6 6 C4.02 6 2.04 6 0 6 C0 4.02 0 2.04 0 0 Z " fill="#CB8500" transform="translate(324,270)"/>
<path d="M0 0 C1.98 0 3.96 0 6 0 C6 1.98 6 3.96 6 6 C4.02 6 2.04 6 0 6 C0 4.02 0 2.04 0 0 Z " fill="#F2D601" transform="translate(318,270)"/>
<path d="M0 0 C1.98 0 3.96 0 6 0 C6 1.98 6 3.96 6 6 C4.02 6 2.04 6 0 6 C0 4.02 0 2.04 0 0 Z " fill="#CB8500" transform="translate(270,270)"/>
<path d="M0 0 C1.98 0 3.96 0 6 0 C6 1.98 6 3.96 6 6 C4.02 6 2.04 6 0 6 C0 4.02 0 2.04 0 0 Z " fill="#CB8500" transform="translate(210,270)"/>
<path d="M0 0 C1.98 0 3.96 0 6 0 C6 1.98 6 3.96 6 6 C4.02 6 2.04 6 0 6 C0 4.02 0 2.04 0 0 Z " fill="#161F2B" transform="translate(204,270)"/>
<path d="M0 0 C1.98 0 3.96 0 6 0 C6 1.98 6 3.96 6 6 C4.02 6 2.04 6 0 6 C0 4.02 0 2.04 0 0 Z " fill="#161F2B" transform="translate(408,264)"/>
<path d="M0 0 C1.98 0 3.96 0 6 0 C6 1.98 6 3.96 6 6 C4.02 6 2.04 6 0 6 C0 4.02 0 2.04 0 0 Z " fill="#CB8500" transform="translate(402,264)"/>
<path d="M0 0 C1.98 0 3.96 0 6 0 C6 1.98 6 3.96 6 6 C4.02 6 2.04 6 0 6 C0 4.02 0 2.04 0 0 Z " fill="#F2D601" transform="translate(378,264)"/>
<path d="M0 0 C1.98 0 3.96 0 6 0 C6 1.98 6 3.96 6 6 C4.02 6 2.04 6 0 6 C0 4.02 0 2.04 0 0 Z " fill="#F2D601" transform="translate(348,264)"/>
<path d="M0 0 C1.98 0 3.96 0 6 0 C6 1.98 6 3.96 6 6 C4.02 6 2.04 6 0 6 C0 4.02 0 2.04 0 0 Z " fill="#F2D601" transform="translate(324,264)"/>
<path d="M0 0 C1.98 0 3.96 0 6 0 C6 1.98 6 3.96 6 6 C4.02 6 2.04 6 0 6 C0 4.02 0 2.04 0 0 Z " fill="#F2D601" transform="translate(240,264)"/>
<path d="M0 0 C1.98 0 3.96 0 6 0 C6 1.98 6 3.96 6 6 C4.02 6 2.04 6 0 6 C0 4.02 0 2.04 0 0 Z " fill="#161F2B" transform="translate(198,264)"/>
<path d="M0 0 C1.98 0 3.96 0 6 0 C6 1.98 6 3.96 6 6 C4.02 6 2.04 6 0 6 C0 4.02 0 2.04 0 0 Z " fill="#161F2B" transform="translate(414,258)"/>
<path d="M0 0 C1.98 0 3.96 0 6 0 C6 1.98 6 3.96 6 6 C4.02 6 2.04 6 0 6 C0 4.02 0 2.04 0 0 Z " fill="#CB8500" transform="translate(408,258)"/>
<path d="M0 0 C1.98 0 3.96 0 6 0 C6 1.98 6 3.96 6 6 C4.02 6 2.04 6 0 6 C0 4.02 0 2.04 0 0 Z " fill="#EBB800" transform="translate(402,258)"/>
<path d="M0 0 C1.98 0 3.96 0 6 0 C6 1.98 6 3.96 6 6 C4.02 6 2.04 6 0 6 C0 4.02 0 2.04 0 0 Z " fill="#F2D601" transform="translate(396,258)"/>
<path d="M0 0 C1.98 0 3.96 0 6 0 C6 1.98 6 3.96 6 6 C4.02 6 2.04 6 0 6 C0 4.02 0 2.04 0 0 Z " fill="#CB8500" transform="translate(198,258)"/>
<path d="M0 0 C1.98 0 3.96 0 6 0 C6 1.98 6 3.96 6 6 C4.02 6 2.04 6 0 6 C0 4.02 0 2.04 0 0 Z " fill="#161F2B" transform="translate(192,258)"/>
<path d="M0 0 C1.98 0 3.96 0 6 0 C6 1.98 6 3.96 6 6 C4.02 6 2.04 6 0 6 C0 4.02 0 2.04 0 0 Z " fill="#EBB800" transform="translate(414,252)"/>
<path d="M0 0 C1.98 0 3.96 0 6 0 C6 1.98 6 3.96 6 6 C4.02 6 2.04 6 0 6 C0 4.02 0 2.04 0 0 Z " fill="#F2D601" transform="translate(408,252)"/>
<path d="M0 0 C1.98 0 3.96 0 6 0 C6 1.98 6 3.96 6 6 C4.02 6 2.04 6 0 6 C0 4.02 0 2.04 0 0 Z " fill="#EBB800" transform="translate(372,252)"/>
<path d="M0 0 C1.98 0 3.96 0 6 0 C6 1.98 6 3.96 6 6 C4.02 6 2.04 6 0 6 C0 4.02 0 2.04 0 0 Z " fill="#EBB800" transform="translate(354,252)"/>
<path d="M0 0 C1.98 0 3.96 0 6 0 C6 1.98 6 3.96 6 6 C4.02 6 2.04 6 0 6 C0 4.02 0 2.04 0 0 Z " fill="#F2D601" transform="translate(264,252)"/>
<path d="M0 0 C1.98 0 3.96 0 6 0 C6 1.98 6 3.96 6 6 C4.02 6 2.04 6 0 6 C0 4.02 0 2.04 0 0 Z " fill="#161F2B" transform="translate(186,252)"/>
<path d="M0 0 C1.98 0 3.96 0 6 0 C6 1.98 6 3.96 6 6 C4.02 6 2.04 6 0 6 C0 4.02 0 2.04 0 0 Z " fill="#8A6F2B" transform="translate(414,246)"/>
<path d="M0 0 C1.98 0 3.96 0 6 0 C6 1.98 6 3.96 6 6 C4.02 6 2.04 6 0 6 C0 4.02 0 2.04 0 0 Z " fill="#CB8500" transform="translate(408,246)"/>
<path d="M0 0 C1.98 0 3.96 0 6 0 C6 1.98 6 3.96 6 6 C4.02 6 2.04 6 0 6 C0 4.02 0 2.04 0 0 Z " fill="#EBB800" transform="translate(378,246)"/>
<path d="M0 0 C1.98 0 3.96 0 6 0 C6 1.98 6 3.96 6 6 C4.02 6 2.04 6 0 6 C0 4.02 0 2.04 0 0 Z " fill="#EBB800" transform="translate(348,246)"/>
<path d="M0 0 C1.98 0 3.96 0 6 0 C6 1.98 6 3.96 6 6 C4.02 6 2.04 6 0 6 C0 4.02 0 2.04 0 0 Z " fill="#CB8500" transform="translate(186,246)"/>
<path d="M0 0 C1.98 0 3.96 0 6 0 C6 1.98 6 3.96 6 6 C4.02 6 2.04 6 0 6 C0 4.02 0 2.04 0 0 Z " fill="#EBB800" transform="translate(420,240)"/>
<path d="M0 0 C1.98 0 3.96 0 6 0 C6 1.98 6 3.96 6 6 C4.02 6 2.04 6 0 6 C0 4.02 0 2.04 0 0 Z " fill="#EBB800" transform="translate(408,240)"/>
<path d="M0 0 C1.98 0 3.96 0 6 0 C6 1.98 6 3.96 6 6 C4.02 6 2.04 6 0 6 C0 4.02 0 2.04 0 0 Z " fill="#CB8500" transform="translate(270,240)"/>
<path d="M0 0 C1.98 0 3.96 0 6 0 C6 1.98 6 3.96 6 6 C4.02 6 2.04 6 0 6 C0 4.02 0 2.04 0 0 Z " fill="#F2D601" transform="translate(264,240)"/>
<path d="M0 0 C1.98 0 3.96 0 6 0 C6 1.98 6 3.96 6 6 C4.02 6 2.04 6 0 6 C0 4.02 0 2.04 0 0 Z " fill="#F2D601" transform="translate(420,234)"/>
<path d="M0 0 C1.98 0 3.96 0 6 0 C6 1.98 6 3.96 6 6 C4.02 6 2.04 6 0 6 C0 4.02 0 2.04 0 0 Z " fill="#E86D48" transform="translate(378,234)"/>
<path d="M0 0 C1.98 0 3.96 0 6 0 C6 1.98 6 3.96 6 6 C4.02 6 2.04 6 0 6 C0 4.02 0 2.04 0 0 Z " fill="#EBB800" transform="translate(276,234)"/>
<path d="M0 0 C1.98 0 3.96 0 6 0 C6 1.98 6 3.96 6 6 C4.02 6 2.04 6 0 6 C0 4.02 0 2.04 0 0 Z " fill="#EBB800" transform="translate(258,234)"/>
<path d="M0 0 C1.98 0 3.96 0 6 0 C6 1.98 6 3.96 6 6 C4.02 6 2.04 6 0 6 C0 4.02 0 2.04 0 0 Z " fill="#F2D601" transform="translate(252,234)"/>
<path d="M0 0 C1.98 0 3.96 0 6 0 C6 1.98 6 3.96 6 6 C4.02 6 2.04 6 0 6 C0 4.02 0 2.04 0 0 Z " fill="#EBB800" transform="translate(414,228)"/>
<path d="M0 0 C1.98 0 3.96 0 6 0 C6 1.98 6 3.96 6 6 C4.02 6 2.04 6 0 6 C0 4.02 0 2.04 0 0 Z " fill="#F2D601" transform="translate(408,228)"/>
<path d="M0 0 C1.98 0 3.96 0 6 0 C6 1.98 6 3.96 6 6 C4.02 6 2.04 6 0 6 C0 4.02 0 2.04 0 0 Z " fill="#D04A66" transform="translate(396,228)"/>
<path d="M0 0 C1.98 0 3.96 0 6 0 C6 1.98 6 3.96 6 6 C4.02 6 2.04 6 0 6 C0 4.02 0 2.04 0 0 Z " fill="#EBB800" transform="translate(378,228)"/>
<path d="M0 0 C1.98 0 3.96 0 6 0 C6 1.98 6 3.96 6 6 C4.02 6 2.04 6 0 6 C0 4.02 0 2.04 0 0 Z " fill="#E86D48" transform="translate(372,228)"/>
<path d="M0 0 C1.98 0 3.96 0 6 0 C6 1.98 6 3.96 6 6 C4.02 6 2.04 6 0 6 C0 4.02 0 2.04 0 0 Z " fill="#EBB800" transform="translate(348,228)"/>
<path d="M0 0 C1.98 0 3.96 0 6 0 C6 1.98 6 3.96 6 6 C4.02 6 2.04 6 0 6 C0 4.02 0 2.04 0 0 Z " fill="#EBB800" transform="translate(246,228)"/>
<path d="M0 0 C1.98 0 3.96 0 6 0 C6 1.98 6 3.96 6 6 C4.02 6 2.04 6 0 6 C0 4.02 0 2.04 0 0 Z " fill="#CB8500" transform="translate(180,228)"/>
<path d="M0 0 C1.98 0 3.96 0 6 0 C6 1.98 6 3.96 6 6 C4.02 6 2.04 6 0 6 C0 4.02 0 2.04 0 0 Z " fill="#E86D48" transform="translate(366,222)"/>
<path d="M0 0 C1.98 0 3.96 0 6 0 C6 1.98 6 3.96 6 6 C4.02 6 2.04 6 0 6 C0 4.02 0 2.04 0 0 Z " fill="#EBB800" transform="translate(354,222)"/>
<path d="M0 0 C1.98 0 3.96 0 6 0 C6 1.98 6 3.96 6 6 C4.02 6 2.04 6 0 6 C0 4.02 0 2.04 0 0 Z " fill="#CB8500" transform="translate(246,222)"/>
<path d="M0 0 C1.98 0 3.96 0 6 0 C6 1.98 6 3.96 6 6 C4.02 6 2.04 6 0 6 C0 4.02 0 2.04 0 0 Z " fill="#F2D601" transform="translate(408,210)"/>
<path d="M0 0 C1.98 0 3.96 0 6 0 C6 1.98 6 3.96 6 6 C4.02 6 2.04 6 0 6 C0 4.02 0 2.04 0 0 Z " fill="#EBB800" transform="translate(408,186)"/>
<path d="M0 0 C1.98 0 3.96 0 6 0 C6 1.98 6 3.96 6 6 C4.02 6 2.04 6 0 6 C0 4.02 0 2.04 0 0 Z " fill="#F2D601" transform="translate(402,180)"/>
<path d="M0 0 C1.98 0 3.96 0 6 0 C6 1.98 6 3.96 6 6 C4.02 6 2.04 6 0 6 C0 4.02 0 2.04 0 0 Z " fill="#8A6F2B" transform="translate(324,180)"/>
<path d="M0 0 C1.98 0 3.96 0 6 0 C6 1.98 6 3.96 6 6 C4.02 6 2.04 6 0 6 C0 4.02 0 2.04 0 0 Z " fill="#CB8500" transform="translate(318,180)"/>
<path d="M0 0 C1.98 0 3.96 0 6 0 C6 1.98 6 3.96 6 6 C4.02 6 2.04 6 0 6 C0 4.02 0 2.04 0 0 Z " fill="#EBB800" transform="translate(312,180)"/>
<path d="M0 0 C1.98 0 3.96 0 6 0 C6 1.98 6 3.96 6 6 C4.02 6 2.04 6 0 6 C0 4.02 0 2.04 0 0 Z " fill="#A56F01" transform="translate(264,180)"/>
<path d="M0 0 C1.98 0 3.96 0 6 0 C6 1.98 6 3.96 6 6 C4.02 6 2.04 6 0 6 C0 4.02 0 2.04 0 0 Z " fill="#EBB800" transform="translate(324,174)"/>
<path d="M0 0 C1.98 0 3.96 0 6 0 C6 1.98 6 3.96 6 6 C4.02 6 2.04 6 0 6 C0 4.02 0 2.04 0 0 Z " fill="#CB8500" transform="translate(306,174)"/>
<path d="M0 0 C1.98 0 3.96 0 6 0 C6 1.98 6 3.96 6 6 C4.02 6 2.04 6 0 6 C0 4.02 0 2.04 0 0 Z " fill="#EBB800" transform="translate(300,174)"/>
<path d="M0 0 C1.98 0 3.96 0 6 0 C6 1.98 6 3.96 6 6 C4.02 6 2.04 6 0 6 C0 4.02 0 2.04 0 0 Z " fill="#F2D601" transform="translate(294,174)"/>
<path d="M0 0 C1.98 0 3.96 0 6 0 C6 1.98 6 3.96 6 6 C4.02 6 2.04 6 0 6 C0 4.02 0 2.04 0 0 Z " fill="#EBB800" transform="translate(276,174)"/>
<path d="M0 0 C1.98 0 3.96 0 6 0 C6 1.98 6 3.96 6 6 C4.02 6 2.04 6 0 6 C0 4.02 0 2.04 0 0 Z " fill="#EBB800" transform="translate(228,174)"/>
<path d="M0 0 C1.98 0 3.96 0 6 0 C6 1.98 6 3.96 6 6 C4.02 6 2.04 6 0 6 C0 4.02 0 2.04 0 0 Z " fill="#EBB800" transform="translate(186,174)"/>
<path d="M0 0 C1.98 0 3.96 0 6 0 C6 1.98 6 3.96 6 6 C4.02 6 2.04 6 0 6 C0 4.02 0 2.04 0 0 Z " fill="#161F2B" transform="translate(402,168)"/>
<path d="M0 0 C1.98 0 3.96 0 6 0 C6 1.98 6 3.96 6 6 C4.02 6 2.04 6 0 6 C0 4.02 0 2.04 0 0 Z " fill="#EBB800" transform="translate(396,168)"/>
<path d="M0 0 C1.98 0 3.96 0 6 0 C6 1.98 6 3.96 6 6 C4.02 6 2.04 6 0 6 C0 4.02 0 2.04 0 0 Z " fill="#F2D601" transform="translate(390,168)"/>
<path d="M0 0 C1.98 0 3.96 0 6 0 C6 1.98 6 3.96 6 6 C4.02 6 2.04 6 0 6 C0 4.02 0 2.04 0 0 Z " fill="#EBB800" transform="translate(312,168)"/>
<path d="M0 0 C1.98 0 3.96 0 6 0 C6 1.98 6 3.96 6 6 C4.02 6 2.04 6 0 6 C0 4.02 0 2.04 0 0 Z " fill="#CB8500" transform="translate(294,168)"/>
<path d="M0 0 C1.98 0 3.96 0 6 0 C6 1.98 6 3.96 6 6 C4.02 6 2.04 6 0 6 C0 4.02 0 2.04 0 0 Z " fill="#EBB800" transform="translate(384,162)"/>
<path d="M0 0 C1.98 0 3.96 0 6 0 C6 1.98 6 3.96 6 6 C4.02 6 2.04 6 0 6 C0 4.02 0 2.04 0 0 Z " fill="#F2D601" transform="translate(378,162)"/>
<path d="M0 0 C1.98 0 3.96 0 6 0 C6 1.98 6 3.96 6 6 C4.02 6 2.04 6 0 6 C0 4.02 0 2.04 0 0 Z " fill="#EBB800" transform="translate(300,162)"/>
<path d="M0 0 C1.98 0 3.96 0 6 0 C6 1.98 6 3.96 6 6 C4.02 6 2.04 6 0 6 C0 4.02 0 2.04 0 0 Z " fill="#703D1F" transform="translate(276,162)"/>
<path d="M0 0 C1.98 0 3.96 0 6 0 C6 1.98 6 3.96 6 6 C4.02 6 2.04 6 0 6 C0 4.02 0 2.04 0 0 Z " fill="#EBB800" transform="translate(222,162)"/>
<path d="M0 0 C1.98 0 3.96 0 6 0 C6 1.98 6 3.96 6 6 C4.02 6 2.04 6 0 6 C0 4.02 0 2.04 0 0 Z " fill="#EBB800" transform="translate(192,162)"/>
<path d="M0 0 C1.98 0 3.96 0 6 0 C6 1.98 6 3.96 6 6 C4.02 6 2.04 6 0 6 C0 4.02 0 2.04 0 0 Z " fill="#EBB800" transform="translate(366,156)"/>
<path d="M0 0 C1.98 0 3.96 0 6 0 C6 1.98 6 3.96 6 6 C4.02 6 2.04 6 0 6 C0 4.02 0 2.04 0 0 Z " fill="#F2D601" transform="translate(360,156)"/>
<path d="M0 0 C1.98 0 3.96 0 6 0 C6 1.98 6 3.96 6 6 C4.02 6 2.04 6 0 6 C0 4.02 0 2.04 0 0 Z " fill="#EBB800" transform="translate(342,156)"/>
<path d="M0 0 C1.98 0 3.96 0 6 0 C6 1.98 6 3.96 6 6 C4.02 6 2.04 6 0 6 C0 4.02 0 2.04 0 0 Z " fill="#A56F01" transform="translate(336,156)"/>
<path d="M0 0 C1.98 0 3.96 0 6 0 C6 1.98 6 3.96 6 6 C4.02 6 2.04 6 0 6 C0 4.02 0 2.04 0 0 Z " fill="#EBB800" transform="translate(330,156)"/>
<path d="M0 0 C1.98 0 3.96 0 6 0 C6 1.98 6 3.96 6 6 C4.02 6 2.04 6 0 6 C0 4.02 0 2.04 0 0 Z " fill="#F2D601" transform="translate(324,156)"/>
<path d="M0 0 C1.98 0 3.96 0 6 0 C6 1.98 6 3.96 6 6 C4.02 6 2.04 6 0 6 C0 4.02 0 2.04 0 0 Z " fill="#EBB800" transform="translate(288,156)"/>
<path d="M0 0 C1.98 0 3.96 0 6 0 C6 1.98 6 3.96 6 6 C4.02 6 2.04 6 0 6 C0 4.02 0 2.04 0 0 Z " fill="#8A6F2B" transform="translate(282,156)"/>
<path d="M0 0 C1.98 0 3.96 0 6 0 C6 1.98 6 3.96 6 6 C4.02 6 2.04 6 0 6 C0 4.02 0 2.04 0 0 Z " fill="#703D1F" transform="translate(270,156)"/>
<path d="M0 0 C1.98 0 3.96 0 6 0 C6 1.98 6 3.96 6 6 C4.02 6 2.04 6 0 6 C0 4.02 0 2.04 0 0 Z " fill="#EBB800" transform="translate(198,156)"/>
<path d="M0 0 C1.98 0 3.96 0 6 0 C6 1.98 6 3.96 6 6 C4.02 6 2.04 6 0 6 C0 4.02 0 2.04 0 0 Z " fill="#703D1F" transform="translate(180,156)"/>
<path d="M0 0 C1.98 0 3.96 0 6 0 C6 1.98 6 3.96 6 6 C4.02 6 2.04 6 0 6 C0 4.02 0 2.04 0 0 Z " fill="#7E5701" transform="translate(174,156)"/>
<path d="M0 0 C1.98 0 3.96 0 6 0 C6 1.98 6 3.96 6 6 C4.02 6 2.04 6 0 6 C0 4.02 0 2.04 0 0 Z " fill="#EBB800" transform="translate(318,150)"/>
<path d="M0 0 C1.98 0 3.96 0 6 0 C6 1.98 6 3.96 6 6 C4.02 6 2.04 6 0 6 C0 4.02 0 2.04 0 0 Z " fill="#F2D601" transform="translate(312,150)"/>
<path d="M0 0 C1.98 0 3.96 0 6 0 C6 1.98 6 3.96 6 6 C4.02 6 2.04 6 0 6 C0 4.02 0 2.04 0 0 Z " fill="#EBB800" transform="translate(282,150)"/>
<path d="M0 0 C1.98 0 3.96 0 6 0 C6 1.98 6 3.96 6 6 C4.02 6 2.04 6 0 6 C0 4.02 0 2.04 0 0 Z " fill="#703D1F" transform="translate(264,150)"/>
<path d="M0 0 C1.98 0 3.96 0 6 0 C6 1.98 6 3.96 6 6 C4.02 6 2.04 6 0 6 C0 4.02 0 2.04 0 0 Z " fill="#EBB800" transform="translate(258,150)"/>
<path d="M0 0 C1.98 0 3.96 0 6 0 C6 1.98 6 3.96 6 6 C4.02 6 2.04 6 0 6 C0 4.02 0 2.04 0 0 Z " fill="#161F2B" transform="translate(198,150)"/>
<path d="M0 0 C1.98 0 3.96 0 6 0 C6 1.98 6 3.96 6 6 C4.02 6 2.04 6 0 6 C0 4.02 0 2.04 0 0 Z " fill="#161F2B" transform="translate(348,144)"/>
<path d="M0 0 C1.98 0 3.96 0 6 0 C6 1.98 6 3.96 6 6 C4.02 6 2.04 6 0 6 C0 4.02 0 2.04 0 0 Z " fill="#A56F01" transform="translate(342,144)"/>
<path d="M0 0 C1.98 0 3.96 0 6 0 C6 1.98 6 3.96 6 6 C4.02 6 2.04 6 0 6 C0 4.02 0 2.04 0 0 Z " fill="#EBB800" transform="translate(306,144)"/>
<path d="M0 0 C1.98 0 3.96 0 6 0 C6 1.98 6 3.96 6 6 C4.02 6 2.04 6 0 6 C0 4.02 0 2.04 0 0 Z " fill="#F2D601" transform="translate(300,144)"/>
<path d="M0 0 C1.98 0 3.96 0 6 0 C6 1.98 6 3.96 6 6 C4.02 6 2.04 6 0 6 C0 4.02 0 2.04 0 0 Z " fill="#EBB800" transform="translate(276,144)"/>
<path d="M0 0 C1.98 0 3.96 0 6 0 C6 1.98 6 3.96 6 6 C4.02 6 2.04 6 0 6 C0 4.02 0 2.04 0 0 Z " fill="#161F2B" transform="translate(204,144)"/>
<path d="M0 0 C1.98 0 3.96 0 6 0 C6 1.98 6 3.96 6 6 C4.02 6 2.04 6 0 6 C0 4.02 0 2.04 0 0 Z " fill="#7E5701" transform="translate(162,144)"/>
<path d="M0 0 C1.98 0 3.96 0 6 0 C6 1.98 6 3.96 6 6 C4.02 6 2.04 6 0 6 C0 4.02 0 2.04 0 0 Z " fill="#EBB800" transform="translate(294,138)"/>
<path d="M0 0 C1.98 0 3.96 0 6 0 C6 1.98 6 3.96 6 6 C4.02 6 2.04 6 0 6 C0 4.02 0 2.04 0 0 Z " fill="#F7E901" transform="translate(282,138)"/>
<path d="M0 0 C1.98 0 3.96 0 6 0 C6 1.98 6 3.96 6 6 C4.02 6 2.04 6 0 6 C0 4.02 0 2.04 0 0 Z " fill="#CB8500" transform="translate(246,138)"/>
<path d="M0 0 C1.98 0 3.96 0 6 0 C6 1.98 6 3.96 6 6 C4.02 6 2.04 6 0 6 C0 4.02 0 2.04 0 0 Z " fill="#703D1F" transform="translate(222,138)"/>
<path d="M0 0 C1.98 0 3.96 0 6 0 C6 1.98 6 3.96 6 6 C4.02 6 2.04 6 0 6 C0 4.02 0 2.04 0 0 Z " fill="#703D1F" transform="translate(162,138)"/>
<path d="M0 0 C1.98 0 3.96 0 6 0 C6 1.98 6 3.96 6 6 C4.02 6 2.04 6 0 6 C0 4.02 0 2.04 0 0 Z " fill="#703D1F" transform="translate(138,138)"/>
<path d="M0 0 C1.98 0 3.96 0 6 0 C6 1.98 6 3.96 6 6 C4.02 6 2.04 6 0 6 C0 4.02 0 2.04 0 0 Z " fill="#161F2B" transform="translate(330,132)"/>
<path d="M0 0 C1.98 0 3.96 0 6 0 C6 1.98 6 3.96 6 6 C4.02 6 2.04 6 0 6 C0 4.02 0 2.04 0 0 Z " fill="#A56F01" transform="translate(324,132)"/>
<path d="M0 0 C1.98 0 3.96 0 6 0 C6 1.98 6 3.96 6 6 C4.02 6 2.04 6 0 6 C0 4.02 0 2.04 0 0 Z " fill="#EBB800" transform="translate(276,132)"/>
<path d="M0 0 C1.98 0 3.96 0 6 0 C6 1.98 6 3.96 6 6 C4.02 6 2.04 6 0 6 C0 4.02 0 2.04 0 0 Z " fill="#703D1F" transform="translate(144,132)"/>
<path d="M0 0 C1.98 0 3.96 0 6 0 C6 1.98 6 3.96 6 6 C4.02 6 2.04 6 0 6 C0 4.02 0 2.04 0 0 Z " fill="#A56F01" transform="translate(312,126)"/>
<path d="M0 0 C1.98 0 3.96 0 6 0 C6 1.98 6 3.96 6 6 C4.02 6 2.04 6 0 6 C0 4.02 0 2.04 0 0 Z " fill="#8A6F2B" transform="translate(276,126)"/>
<path d="M0 0 C1.98 0 3.96 0 6 0 C6 1.98 6 3.96 6 6 C4.02 6 2.04 6 0 6 C0 4.02 0 2.04 0 0 Z " fill="#EBB800" transform="translate(144,114)"/>
<path d="M0 0 C1.98 0 3.96 0 6 0 C6 1.98 6 3.96 6 6 C4.02 6 2.04 6 0 6 C0 4.02 0 2.04 0 0 Z " fill="#F2D601" transform="translate(138,114)"/>
<path d="M0 0 C1.98 0 3.96 0 6 0 C6 1.98 6 3.96 6 6 C4.02 6 2.04 6 0 6 C0 4.02 0 2.04 0 0 Z " fill="#F2D601" transform="translate(108,108)"/>
<path d="M0 0 C1.98 0 3.96 0 6 0 C6 1.98 6 3.96 6 6 C4.02 6 2.04 6 0 6 C0 4.02 0 2.04 0 0 Z " fill="#EBB800" transform="translate(102,108)"/>
<path d="M0 0 C1.98 0 3.96 0 6 0 C6 1.98 6 3.96 6 6 C4.02 6 2.04 6 0 6 C0 4.02 0 2.04 0 0 Z " fill="#EBB800" transform="translate(144,102)"/>
<path d="M0 0 C1.98 0 3.96 0 6 0 C6 1.98 6 3.96 6 6 C4.02 6 2.04 6 0 6 C0 4.02 0 2.04 0 0 Z " fill="#F2D601" transform="translate(138,102)"/>
<path d="M0 0 C1.98 0 3.96 0 6 0 C6 1.98 6 3.96 6 6 C4.02 6 2.04 6 0 6 C0 4.02 0 2.04 0 0 Z " fill="#EBB800" transform="translate(96,102)"/>
<path d="M0 0 C1.98 0 3.96 0 6 0 C6 1.98 6 3.96 6 6 C4.02 6 2.04 6 0 6 C0 4.02 0 2.04 0 0 Z " fill="#EBB800" transform="translate(132,96)"/>
<path d="M0 0 C1.98 0 3.96 0 6 0 C6 1.98 6 3.96 6 6 C4.02 6 2.04 6 0 6 C0 4.02 0 2.04 0 0 Z " fill="#F2D601" transform="translate(126,96)"/>
<path d="M0 0 C1.98 0 3.96 0 6 0 C6 1.98 6 3.96 6 6 C4.02 6 2.04 6 0 6 C0 4.02 0 2.04 0 0 Z " fill="#EBB800" transform="translate(120,78)"/>
<path d="M0 0 C1.98 0 3.96 0 6 0 C6 1.98 6 3.96 6 6 C4.02 6 2.04 6 0 6 C0 4.02 0 2.04 0 0 Z " fill="#F2D601" transform="translate(120,72)"/>
<path d="M0 0 C1.98 0 3.96 0 6 0 C6 1.98 6 3.96 6 6 C4.02 6 2.04 6 0 6 C0 4.02 0 2.04 0 0 Z " fill="#EBB800" transform="translate(96,66)"/>
<path d="M0 0 C1.98 0 3.96 0 6 0 C6 1.98 6 3.96 6 6 C4.02 6 2.04 6 0 6 C0 4.02 0 2.04 0 0 Z " fill="#EBB800" transform="translate(126,60)"/>
<path d="M0 0 C1.98 0 3.96 0 6 0 C6 1.98 6 3.96 6 6 C4.02 6 2.04 6 0 6 C0 4.02 0 2.04 0 0 Z " fill="#EBB800" transform="translate(66,60)"/>
<path d="M0 0 C1.98 0 3.96 0 6 0 C6 1.98 6 3.96 6 6 C4.02 6 2.04 6 0 6 C0 4.02 0 2.04 0 0 Z " fill="#F2D601" transform="translate(126,54)"/>
<path d="M0 0 C1.98 0 3.96 0 6 0 C6 1.98 6 3.96 6 6 C4.02 6 2.04 6 0 6 C0 4.02 0 2.04 0 0 Z " fill="#EBB800" transform="translate(126,36)"/>
<path d="M0 0 C1.98 0 3.96 0 6 0 C6 1.98 6 3.96 6 6 C4.02 6 2.04 6 0 6 C0 4.02 0 2.04 0 0 Z " fill="#F2D601" transform="translate(120,36)"/>
<path d="M0 0 C1.98 0 3.96 0 6 0 C6 1.98 6 3.96 6 6 C4.02 6 2.04 6 0 6 C0 4.02 0 2.04 0 0 Z " fill="#EBB800" transform="translate(108,30)"/>
<path d="M0 0 C1.98 0 3.96 0 6 0 C6 1.98 6 3.96 6 6 C4.02 6 2.04 6 0 6 C0 4.02 0 2.04 0 0 Z " fill="#F2D601" transform="translate(102,30)"/>
<path d="M0 0 C1.98 0 3.96 0 6 0 C6 1.98 6 3.96 6 6 C4.02 6 2.04 6 0 6 C0 4.02 0 2.04 0 0 Z " fill="#EBB800" transform="translate(96,24)"/>
<path d="M0 0 C1.98 0 3.96 0 6 0 C6 1.98 6 3.96 6 6 C4.02 6 2.04 6 0 6 C0 4.02 0 2.04 0 0 Z " fill="#F2D601" transform="translate(90,24)"/>
<path d="M0 0 C1.98 0 3.96 0 6 0 C6 1.98 6 3.96 6 6 C4.02 6 2.04 6 0 6 C0 4.02 0 2.04 0 0 Z " fill="#EBB800" transform="translate(78,18)"/>
<path d="M0 0 C1.98 0 3.96 0 6 0 C6 1.98 6 3.96 6 6 C4.02 6 2.04 6 0 6 C0 4.02 0 2.04 0 0 Z " fill="#F2D601" transform="translate(72,18)"/>
<path d="M0 0 C1.98 0 3.96 0 6 0 C6 1.98 6 3.96 6 6 C4.02 6 2.04 6 0 6 C0 4.02 0 2.04 0 0 Z " fill="#EBB800" transform="translate(60,12)"/>
<path d="M0 0 C1.98 0 3.96 0 6 0 C6 1.98 6 3.96 6 6 C4.02 6 2.04 6 0 6 C0 4.02 0 2.04 0 0 Z " fill="#F2D601" transform="translate(54,12)"/>
<path d="M0 0 C1.98 0 3.96 0 6 0 C6 1.98 6 3.96 6 6 C4.02 6 2.04 6 0 6 C0 4.02 0 2.04 0 0 Z " fill="#F2D601" transform="translate(30,12)"/>
<path d="M0 0 C1.98 0 3.96 0 6 0 C6 1.98 6 3.96 6 6 C4.02 6 2.04 6 0 6 C0 4.02 0 2.04 0 0 Z " fill="#EBB800" transform="translate(42,6)"/>
<path d="M0 0 C1.98 0 3.96 0 6 0 C6 1.98 6 3.96 6 6 C4.02 6 2.04 6 0 6 C0 4.02 0 2.04 0 0 Z " fill="#EBB800" transform="translate(30,6)"/>
</svg>
