<?xml version="1.0" encoding="UTF-8"?>
<svg version="1.1" xmlns="http://www.w3.org/2000/svg" width="22" height="22" viewBox="0 0 468 468">
<path d="M0 0 C3.96 0 7.92 0 12 0 C12 1.98 12 3.96 12 6 C19.92 6 27.84 6 36 6 C36 7.98 36 9.96 36 12 C41.94 12 47.88 12 54 12 C54 13.98 54 15.96 54 18 C59.94 18 65.88 18 72 18 C72 19.98 72 21.96 72 24 C77.94 24 83.88 24 90 24 C90 25.98 90 27.96 90 30 C93.96 30 97.92 30 102 30 C102 45.84 102 61.68 102 78 C100.02 78 98.04 78 96 78 C96 81.96 96 85.92 96 90 C105.9 90 115.8 90 126 90 C126 101.88 126 113.76 126 126 C133.92 126 141.84 126 150 126 C150 135.9 150 145.8 150 156 C159.9 156 169.8 156 180 156 C180 154.02 180 152.04 180 150 C181.98 150 183.96 150 186 150 C186 148.02 186 146.04 186 144 C187.98 144 189.96 144 192 144 C192 142.02 192 140.04 192 138 C193.98 138 195.96 138 198 138 C198 136.02 198 134.04 198 132 C199.98 132 201.96 132 204 132 C204 130.02 204 128.04 204 126 C207.96 126 211.92 126 216 126 C216 124.02 216 122.04 216 120 C221.94 120 227.88 120 234 120 C234 118.02 234 116.04 234 114 C245.88 114 257.76 114 270 114 C270 112.02 270 110.04 270 108 C273.96 108 277.92 108 282 108 C282 106.02 282 104.04 282 102 C276.06 102 270.12 102 264 102 C264 100.02 264 98.04 264 96 C260.04 96 256.08 96 252 96 C252 94.02 252 92.04 252 90 C250.02 90 248.04 90 246 90 C246 88.02 246 86.04 246 84 C244.02 84 242.04 84 240 84 C240 82.02 240 80.04 240 78 C253.86 78 267.72 78 282 78 C282 76.02 282 74.04 282 72 C280.02 72 278.04 72 276 72 C276 70.02 276 68.04 276 66 C274.02 66 272.04 66 270 66 C270 64.02 270 62.04 270 60 C268.02 60 266.04 60 264 60 C264 58.02 264 56.04 264 54 C271.92 54 279.84 54 288 54 C288 55.98 288 57.96 288 60 C295.92 60 303.84 60 312 60 C312 61.98 312 63.96 312 66 C317.94 66 323.88 66 330 66 C330 67.98 330 69.96 330 72 C333.96 72 337.92 72 342 72 C342 73.98 342 75.96 342 78 C345.96 78 349.92 78 354 78 C354 79.98 354 81.96 354 84 C355.98 84 357.96 84 360 84 C360 85.98 360 87.96 360 90 C371.88 90 383.76 90 396 90 C396 91.98 396 93.96 396 96 C399.96 96 403.92 96 408 96 C408 97.98 408 99.96 408 102 C409.98 102 411.96 102 414 102 C414 103.98 414 105.96 414 108 C415.98 108 417.96 108 420 108 C420 109.98 420 111.96 420 114 C421.98 114 423.96 114 426 114 C426 117.96 426 121.92 426 126 C427.98 126 429.96 126 432 126 C432 135.9 432 145.8 432 156 C435.96 156 439.92 156 444 156 C444 165.9 444 175.8 444 186 C442.02 186 440.04 186 438 186 C438 187.98 438 189.96 438 192 C436.02 192 434.04 192 432 192 C432 193.98 432 195.96 432 198 C430.02 198 428.04 198 426 198 C426 199.98 426 201.96 426 204 C424.02 204 422.04 204 420 204 C420 205.98 420 207.96 420 210 C416.04 210 412.08 210 408 210 C408 211.98 408 213.96 408 216 C404.04 216 400.08 216 396 216 C396 217.98 396 219.96 396 222 C392.04 222 388.08 222 384 222 C384 227.94 384 233.88 384 240 C382.02 240 380.04 240 378 240 C378 243.96 378 247.92 378 252 C376.02 252 374.04 252 372 252 C372 253.98 372 255.96 372 258 C370.02 258 368.04 258 366 258 C366 259.98 366 261.96 366 264 C364.02 264 362.04 264 360 264 C360 267.96 360 271.92 360 276 C352.08 276 344.16 276 336 276 C336 272.04 336 268.08 336 264 C334.02 264 332.04 264 330 264 C330 260.04 330 256.08 330 252 C328.02 252 326.04 252 324 252 C324 250.02 324 248.04 324 246 C322.02 246 320.04 246 318 246 C318 244.02 318 242.04 318 240 C308.1 240 298.2 240 288 240 C288 241.98 288 243.96 288 246 C284.04 246 280.08 246 276 246 C276 247.98 276 249.96 276 252 C272.04 252 268.08 252 264 252 C264 257.94 264 263.88 264 270 C262.02 270 260.04 270 258 270 C258 271.98 258 273.96 258 276 C256.02 276 254.04 276 252 276 C252 279.96 252 283.92 252 288 C253.98 288 255.96 288 258 288 C258 289.98 258 291.96 258 294 C259.98 294 261.96 294 264 294 C264 295.98 264 297.96 264 300 C250.14 300 236.28 300 222 300 C222 298.02 222 296.04 222 294 C218.04 294 214.08 294 210 294 C210 292.02 210 290.04 210 288 C208.02 288 206.04 288 204 288 C204 286.02 204 284.04 204 282 C202.02 282 200.04 282 198 282 C198 276.06 198 270.12 198 264 C196.02 264 194.04 264 192 264 C192 262.02 192 260.04 192 258 C190.02 258 188.04 258 186 258 C186 256.02 186 254.04 186 252 C184.02 252 182.04 252 180 252 C180 248.04 180 244.08 180 240 C178.02 240 176.04 240 174 240 C174 238.02 174 236.04 174 234 C172.02 234 170.04 234 168 234 C168 230.04 168 226.08 168 222 C166.02 222 164.04 222 162 222 C162 206.16 162 190.32 162 174 C163.98 174 165.96 174 168 174 C168 172.02 168 170.04 168 168 C156.12 168 144.24 168 132 168 C132 160.08 132 152.16 132 144 C122.1 144 112.2 144 102 144 C102 134.1 102 124.2 102 114 C92.1 114 82.2 114 72 114 C72 100.14 72 86.28 72 72 C64.08 72 56.16 72 48 72 C48 70.02 48 68.04 48 66 C34.14 66 20.28 66 6 66 C6 64.02 6 62.04 6 60 C4.02 60 2.04 60 0 60 C0 40.2 0 20.4 0 0 Z M408 138 C408 139.98 408 141.96 408 144 C409.98 144 411.96 144 414 144 C414 142.02 414 140.04 414 138 C412.02 138 410.04 138 408 138 Z " fill="#F7E901" transform="translate(0,36)"/>
<path d="M0 0 C3.96 0 7.92 0 12 0 C12 1.98 12 3.96 12 6 C19.92 6 27.84 6 36 6 C36 7.98 36 9.96 36 12 C41.94 12 47.88 12 54 12 C54 13.98 54 15.96 54 18 C59.94 18 65.88 18 72 18 C72 19.98 72 21.96 72 24 C77.94 24 83.88 24 90 24 C90 25.98 90 27.96 90 30 C93.96 30 97.92 30 102 30 C102 45.84 102 61.68 102 78 C100.02 78 98.04 78 96 78 C96 81.96 96 85.92 96 90 C105.9 90 115.8 90 126 90 C126 101.88 126 113.76 126 126 C133.92 126 141.84 126 150 126 C150 135.9 150 145.8 150 156 C159.9 156 169.8 156 180 156 C180 157.98 180 159.96 180 162 C178.02 162 176.04 162 174 162 C174 165.96 174 169.92 174 174 C172.02 174 170.04 174 168 174 C168 172.02 168 170.04 168 168 C156.12 168 144.24 168 132 168 C132 160.08 132 152.16 132 144 C122.1 144 112.2 144 102 144 C102 134.1 102 124.2 102 114 C92.1 114 82.2 114 72 114 C72 100.14 72 86.28 72 72 C64.08 72 56.16 72 48 72 C48 70.02 48 68.04 48 66 C34.14 66 20.28 66 6 66 C6 64.02 6 62.04 6 60 C4.02 60 2.04 60 0 60 C0 40.2 0 20.4 0 0 Z " fill="#F7E901" transform="translate(0,36)"/>
<path d="M0 0 C7.92 0 15.84 0 24 0 C24 1.98 24 3.96 24 6 C31.92 6 39.84 6 48 6 C48 7.98 48 9.96 48 12 C53.94 12 59.88 12 66 12 C66 13.98 66 15.96 66 18 C69.96 18 73.92 18 78 18 C78 19.98 78 21.96 78 24 C81.96 24 85.92 24 90 24 C90 25.98 90 27.96 90 30 C91.98 30 93.96 30 96 30 C96 31.98 96 33.96 96 36 C107.88 36 119.76 36 132 36 C132 37.98 132 39.96 132 42 C118.14 42 104.28 42 90 42 C90 43.98 90 45.96 90 48 C88.02 48 86.04 48 84 48 C84 46.02 84 44.04 84 42 C80.04 42 76.08 42 72 42 C72 40.02 72 38.04 72 36 C64.08 36 56.16 36 48 36 C48 34.02 48 32.04 48 30 C38.1 30 28.2 30 18 30 C18 33.96 18 37.92 18 42 C19.98 42 21.96 42 24 42 C24 43.98 24 45.96 24 48 C25.98 48 27.96 48 30 48 C30 49.98 30 51.96 30 54 C33.96 54 37.92 54 42 54 C42 55.98 42 57.96 42 60 C30.12 60 18.24 60 6 60 C6 58.02 6 56.04 6 54 C9.96 54 13.92 54 18 54 C18 52.02 18 50.04 18 48 C12.06 48 6.12 48 0 48 C0 46.02 0 44.04 0 42 C-3.96 42 -7.92 42 -12 42 C-12 40.02 -12 38.04 -12 36 C-13.98 36 -15.96 36 -18 36 C-18 34.02 -18 32.04 -18 30 C-19.98 30 -21.96 30 -24 30 C-24 28.02 -24 26.04 -24 24 C-10.14 24 3.72 24 18 24 C18 22.02 18 20.04 18 18 C16.02 18 14.04 18 12 18 C12 16.02 12 14.04 12 12 C10.02 12 8.04 12 6 12 C6 10.02 6 8.04 6 6 C4.02 6 2.04 6 0 6 C0 4.02 0 2.04 0 0 Z " fill="#CB8500" transform="translate(264,90)"/>
<path d="M0 0 C9.9 0 19.8 0 30 0 C30 13.86 30 27.72 30 42 C39.9 42 49.8 42 60 42 C60 43.98 60 45.96 60 48 C63.96 48 67.92 48 72 48 C72 42.06 72 36.12 72 30 C64.08 30 56.16 30 48 30 C48 28.02 48 26.04 48 24 C57.9 24 67.8 24 78 24 C78 35.88 78 47.76 78 60 C85.92 60 93.84 60 102 60 C102 69.9 102 79.8 102 90 C111.9 90 121.8 90 132 90 C132 91.98 132 93.96 132 96 C130.02 96 128.04 96 126 96 C126 99.96 126 103.92 126 108 C124.02 108 122.04 108 120 108 C120 106.02 120 104.04 120 102 C108.12 102 96.24 102 84 102 C84 94.08 84 86.16 84 78 C74.1 78 64.2 78 54 78 C54 68.1 54 58.2 54 48 C44.1 48 34.2 48 24 48 C24 34.14 24 20.28 24 6 C16.08 6 8.16 6 0 6 C0 4.02 0 2.04 0 0 Z " fill="#7E5701" transform="translate(48,102)"/>
<path d="M0 0 C11.88 0 23.76 0 36 0 C36 1.98 36 3.96 36 6 C39.96 6 43.92 6 48 6 C48 7.98 48 9.96 48 12 C49.98 12 51.96 12 54 12 C54 15.96 54 19.92 54 24 C55.98 24 57.96 24 60 24 C60 27.96 60 31.92 60 36 C61.98 36 63.96 36 66 36 C66 37.98 66 39.96 66 42 C69.96 42 73.92 42 78 42 C78 45.96 78 49.92 78 54 C70.08 54 62.16 54 54 54 C54 50.04 54 46.08 54 42 C52.02 42 50.04 42 48 42 C48 38.04 48 34.08 48 30 C46.02 30 44.04 30 42 30 C42 28.02 42 26.04 42 24 C40.02 24 38.04 24 36 24 C36 22.02 36 20.04 36 18 C26.1 18 16.2 18 6 18 C6 19.98 6 21.96 6 24 C2.04 24 -1.92 24 -6 24 C-6 25.98 -6 27.96 -6 30 C-9.96 30 -13.92 30 -18 30 C-18 35.94 -18 41.88 -18 48 C-19.98 48 -21.96 48 -24 48 C-24 40.08 -24 32.16 -24 24 C-25.98 24 -27.96 24 -30 24 C-30 20.04 -30 16.08 -30 12 C-28.02 12 -26.04 12 -24 12 C-24 10.02 -24 8.04 -24 6 C-16.08 6 -8.16 6 0 6 C0 4.02 0 2.04 0 0 Z " fill="#EBB800" transform="translate(282,258)"/>
<path d="M0 0 C3.96 0 7.92 0 12 0 C12 1.98 12 3.96 12 6 C15.96 6 19.92 6 24 6 C24 7.98 24 9.96 24 12 C25.98 12 27.96 12 30 12 C30 17.94 30 23.88 30 30 C31.98 30 33.96 30 36 30 C36 31.98 36 33.96 36 36 C37.98 36 39.96 36 42 36 C42 37.98 42 39.96 42 42 C43.98 42 45.96 42 48 42 C48 45.96 48 49.92 48 54 C49.98 54 51.96 54 54 54 C54 55.98 54 57.96 54 60 C61.92 60 69.84 60 78 60 C78 58.02 78 56.04 78 54 C79.98 54 81.96 54 84 54 C84 55.98 84 57.96 84 60 C85.98 60 87.96 60 90 60 C90 61.98 90 63.96 90 66 C76.14 66 62.28 66 48 66 C48 64.02 48 62.04 48 60 C44.04 60 40.08 60 36 60 C36 58.02 36 56.04 36 54 C34.02 54 32.04 54 30 54 C30 52.02 30 50.04 30 48 C28.02 48 26.04 48 24 48 C24 42.06 24 36.12 24 30 C22.02 30 20.04 30 18 30 C18 28.02 18 26.04 18 24 C16.02 24 14.04 24 12 24 C12 22.02 12 20.04 12 18 C10.02 18 8.04 18 6 18 C6 14.04 6 10.08 6 6 C4.02 6 2.04 6 0 6 C0 4.02 0 2.04 0 0 Z " fill="#161F2B" transform="translate(174,270)"/>
<path d="M0 0 C1.98 0 3.96 0 6 0 C6 1.98 6 3.96 6 6 C19.86 6 33.72 6 48 6 C48 7.98 48 9.96 48 12 C44.04 12 40.08 12 36 12 C36 17.94 36 23.88 36 30 C34.02 30 32.04 30 30 30 C30 33.96 30 37.92 30 42 C28.02 42 26.04 42 24 42 C24 43.98 24 45.96 24 48 C22.02 48 20.04 48 18 48 C18 49.98 18 51.96 18 54 C16.02 54 14.04 54 12 54 C12 44.1 12 34.2 12 24 C10.02 24 8.04 24 6 24 C6 20.04 6 16.08 6 12 C4.02 12 2.04 12 0 12 C0 8.04 0 4.08 0 0 Z " fill="#CB8500" transform="translate(348,246)"/>
<path d="M0 0 C5.94 0 11.88 0 18 0 C18 1.98 18 3.96 18 6 C14.04 6 10.08 6 6 6 C6 15.9 6 25.8 6 36 C7.98 36 9.96 36 12 36 C12 39.96 12 43.92 12 48 C8.04 48 4.08 48 0 48 C0 46.02 0 44.04 0 42 C-1.98 42 -3.96 42 -6 42 C-6 40.02 -6 38.04 -6 36 C-7.98 36 -9.96 36 -12 36 C-12 34.02 -12 32.04 -12 30 C-15.96 30 -19.92 30 -24 30 C-24 31.98 -24 33.96 -24 36 C-27.96 36 -31.92 36 -36 36 C-36 34.02 -36 32.04 -36 30 C-34.02 30 -32.04 30 -30 30 C-30 28.02 -30 26.04 -30 24 C-28.02 24 -26.04 24 -24 24 C-24 22.02 -24 20.04 -24 18 C-22.02 18 -20.04 18 -18 18 C-18 16.02 -18 14.04 -18 12 C-16.02 12 -14.04 12 -12 12 C-12 10.02 -12 8.04 -12 6 C-8.04 6 -4.08 6 0 6 C0 4.02 0 2.04 0 0 Z " fill="#7E5701" transform="translate(216,156)"/>
<path d="M0 0 C13.86 0 27.72 0 42 0 C42 5.94 42 11.88 42 18 C43.98 18 45.96 18 48 18 C48 19.98 48 21.96 48 24 C49.98 24 51.96 24 54 24 C54 25.98 54 27.96 54 30 C57.96 30 61.92 30 66 30 C66 31.98 66 33.96 66 36 C54.12 36 42.24 36 30 36 C30 34.02 30 32.04 30 30 C33.96 30 37.92 30 42 30 C42 28.02 42 26.04 42 24 C36.06 24 30.12 24 24 24 C24 22.02 24 20.04 24 18 C20.04 18 16.08 18 12 18 C12 16.02 12 14.04 12 12 C10.02 12 8.04 12 6 12 C6 10.02 6 8.04 6 6 C4.02 6 2.04 6 0 6 C0 4.02 0 2.04 0 0 Z " fill="#161F2B" transform="translate(240,114)"/>
<path d="M0 0 C11.88 0 23.76 0 36 0 C36 15.84 36 31.68 36 48 C32.04 48 28.08 48 24 48 C24 44.04 24 40.08 24 36 C22.02 36 20.04 36 18 36 C18 32.04 18 28.08 18 24 C16.02 24 14.04 24 12 24 C12 18.06 12 12.12 12 6 C8.04 6 4.08 6 0 6 C0 4.02 0 2.04 0 0 Z " fill="#7E5701" transform="translate(234,150)"/>
<path d="M0 0 C7.92 0 15.84 0 24 0 C24 1.98 24 3.96 24 6 C22.02 6 20.04 6 18 6 C18 7.98 18 9.96 18 12 C14.04 12 10.08 12 6 12 C6 13.98 6 15.96 6 18 C-11.82 18 -29.64 18 -48 18 C-48 16.02 -48 14.04 -48 12 C-49.98 12 -51.96 12 -54 12 C-54 13.98 -54 15.96 -54 18 C-55.98 18 -57.96 18 -60 18 C-60 14.04 -60 10.08 -60 6 C-40.2 6 -20.4 6 0 6 C0 4.02 0 2.04 0 0 Z " fill="#EBB800" transform="translate(402,234)"/>
<path d="M0 0 C9.9 0 19.8 0 30 0 C30 13.86 30 27.72 30 42 C39.9 42 49.8 42 60 42 C60 51.9 60 61.8 60 72 C67.92 72 75.84 72 84 72 C84 73.98 84 75.96 84 78 C74.1 78 64.2 78 54 78 C54 68.1 54 58.2 54 48 C44.1 48 34.2 48 24 48 C24 34.14 24 20.28 24 6 C16.08 6 8.16 6 0 6 C0 4.02 0 2.04 0 0 Z " fill="#161F2B" transform="translate(48,102)"/>
<path d="M0 0 C5.94 0 11.88 0 18 0 C18 3.96 18 7.92 18 12 C19.98 12 21.96 12 24 12 C24 15.96 24 19.92 24 24 C22.02 24 20.04 24 18 24 C18 25.98 18 27.96 18 30 C16.02 30 14.04 30 12 30 C12 31.98 12 33.96 12 36 C8.04 36 4.08 36 0 36 C0 34.02 0 32.04 0 30 C-1.98 30 -3.96 30 -6 30 C-6 28.02 -6 26.04 -6 24 C-7.98 24 -9.96 24 -12 24 C-12 20.04 -12 16.08 -12 12 C-10.02 12 -8.04 12 -6 12 C-6 10.02 -6 8.04 -6 6 C-4.02 6 -2.04 6 0 6 C0 4.02 0 2.04 0 0 Z " fill="#AB340E" transform="translate(372,192)"/>
<path d="M0 0 C3.96 0 7.92 0 12 0 C12 1.98 12 3.96 12 6 C13.98 6 15.96 6 18 6 C18 7.98 18 9.96 18 12 C19.98 12 21.96 12 24 12 C24 13.98 24 15.96 24 18 C25.98 18 27.96 18 30 18 C30 21.96 30 25.92 30 30 C31.98 30 33.96 30 36 30 C36 39.9 36 49.8 36 60 C32.04 60 28.08 60 24 60 C24 50.1 24 40.2 24 30 C22.02 30 20.04 30 18 30 C18 26.04 18 22.08 18 18 C14.04 18 10.08 18 6 18 C6 14.04 6 10.08 6 6 C4.02 6 2.04 6 0 6 C0 4.02 0 2.04 0 0 Z " fill="#F2D601" transform="translate(396,132)"/>
<path d="M0 0 C17.82 0 35.64 0 54 0 C54 1.98 54 3.96 54 6 C57.96 6 61.92 6 66 6 C66 7.98 66 9.96 66 12 C44.22 12 22.44 12 0 12 C0 8.04 0 4.08 0 0 Z " fill="#EBB800" transform="translate(270,150)"/>
<path d="M0 0 C9.9 0 19.8 0 30 0 C30 11.88 30 23.76 30 36 C37.92 36 45.84 36 54 36 C54 45.9 54 55.8 54 66 C52.02 66 50.04 66 48 66 C48 58.08 48 50.16 48 42 C40.08 42 32.16 42 24 42 C24 30.12 24 18.24 24 6 C16.08 6 8.16 6 0 6 C0 4.02 0 2.04 0 0 Z " fill="#161F2B" transform="translate(96,126)"/>
<path d="M0 0 C15.84 0 31.68 0 48 0 C48 1.98 48 3.96 48 6 C59.88 6 71.76 6 84 6 C84 7.98 84 9.96 84 12 C70.14 12 56.28 12 42 12 C42 13.98 42 15.96 42 18 C40.02 18 38.04 18 36 18 C36 16.02 36 14.04 36 12 C32.04 12 28.08 12 24 12 C24 10.02 24 8.04 24 6 C16.08 6 8.16 6 0 6 C0 4.02 0 2.04 0 0 Z " fill="#8A6F2B" transform="translate(312,120)"/>
<path d="M0 0 C7.92 0 15.84 0 24 0 C24 1.98 24 3.96 24 6 C31.92 6 39.84 6 48 6 C48 7.98 48 9.96 48 12 C44.04 12 40.08 12 36 12 C36 15.96 36 19.92 36 24 C30.06 24 24.12 24 18 24 C18 22.02 18 20.04 18 18 C16.02 18 14.04 18 12 18 C12 16.02 12 14.04 12 12 C10.02 12 8.04 12 6 12 C6 10.02 6 8.04 6 6 C4.02 6 2.04 6 0 6 C0 4.02 0 2.04 0 0 Z " fill="#161F2B" transform="translate(264,90)"/>
<path d="M0 0 C5.94 0 11.88 0 18 0 C18 1.98 18 3.96 18 6 C21.96 6 25.92 6 30 6 C30 21.84 30 37.68 30 54 C28.02 54 26.04 54 24 54 C24 57.96 24 61.92 24 66 C22.02 66 20.04 66 18 66 C18 60.06 18 54.12 18 48 C19.98 48 21.96 48 24 48 C24 38.1 24 28.2 24 18 C20.04 18 16.08 18 12 18 C12 14.04 12 10.08 12 6 C8.04 6 4.08 6 0 6 C0 4.02 0 2.04 0 0 Z " fill="#161F2B" transform="translate(72,60)"/>
<path d="M0 0 C1.98 0 3.96 0 6 0 C6 5.94 6 11.88 6 18 C9.96 18 13.92 18 18 18 C18 16.02 18 14.04 18 12 C27.9 12 37.8 12 48 12 C48 13.98 48 15.96 48 18 C46.02 18 44.04 18 42 18 C42 21.96 42 25.92 42 30 C40.02 30 38.04 30 36 30 C36 28.02 36 26.04 36 24 C24.12 24 12.24 24 0 24 C0 16.08 0 8.16 0 0 Z " fill="#161F2B" transform="translate(132,180)"/>
<path d="M0 0 C3.96 0 7.92 0 12 0 C12 1.98 12 3.96 12 6 C19.92 6 27.84 6 36 6 C36 7.98 36 9.96 36 12 C26.1 12 16.2 12 6 12 C6 27.84 6 43.68 6 60 C4.02 60 2.04 60 0 60 C0 40.2 0 20.4 0 0 Z " fill="#161F2B" transform="translate(0,36)"/>
<path d="M0 0 C1.98 0 3.96 0 6 0 C6 3.96 6 7.92 6 12 C7.98 12 9.96 12 12 12 C12 13.98 12 15.96 12 18 C15.96 18 19.92 18 24 18 C24 21.96 24 25.92 24 30 C16.08 30 8.16 30 0 30 C0 26.04 0 22.08 0 18 C-1.98 18 -3.96 18 -6 18 C-6 14.04 -6 10.08 -6 6 C-4.02 6 -2.04 6 0 6 C0 4.02 0 2.04 0 0 Z " fill="#EBB800" transform="translate(336,282)"/>
<path d="M0 0 C1.98 0 3.96 0 6 0 C6 1.98 6 3.96 6 6 C19.86 6 33.72 6 48 6 C48 7.98 48 9.96 48 12 C44.04 12 40.08 12 36 12 C36 17.94 36 23.88 36 30 C34.02 30 32.04 30 30 30 C30 24.06 30 18.12 30 12 C24.06 12 18.12 12 12 12 C12 15.96 12 19.92 12 24 C10.02 24 8.04 24 6 24 C6 20.04 6 16.08 6 12 C4.02 12 2.04 12 0 12 C0 8.04 0 4.08 0 0 Z " fill="#8A6F2B" transform="translate(348,246)"/>
<path d="M0 0 C5.94 0 11.88 0 18 0 C18 1.98 18 3.96 18 6 C25.92 6 33.84 6 42 6 C42 4.02 42 2.04 42 0 C43.98 0 45.96 0 48 0 C48 1.98 48 3.96 48 6 C49.98 6 51.96 6 54 6 C54 7.98 54 9.96 54 12 C40.14 12 26.28 12 12 12 C12 10.02 12 8.04 12 6 C8.04 6 4.08 6 0 6 C0 4.02 0 2.04 0 0 Z " fill="#161F2B" transform="translate(210,324)"/>
<path d="M0 0 C5.94 0 11.88 0 18 0 C18 3.96 18 7.92 18 12 C19.98 12 21.96 12 24 12 C24 15.96 24 19.92 24 24 C20.04 24 16.08 24 12 24 C12 22.02 12 20.04 12 18 C10.02 18 8.04 18 6 18 C6 16.02 6 14.04 6 12 C4.02 12 2.04 12 0 12 C0 8.04 0 4.08 0 0 Z " fill="#DC0027" transform="translate(372,192)"/>
<path d="M0 0 C3.96 0 7.92 0 12 0 C12 1.98 12 3.96 12 6 C15.96 6 19.92 6 24 6 C24 7.98 24 9.96 24 12 C25.98 12 27.96 12 30 12 C30 15.96 30 19.92 30 24 C28.02 24 26.04 24 24 24 C24 22.02 24 20.04 24 18 C18.06 18 12.12 18 6 18 C6 14.04 6 10.08 6 6 C4.02 6 2.04 6 0 6 C0 4.02 0 2.04 0 0 Z " fill="#EBB800" transform="translate(174,270)"/>
<path d="M0 0 C3.96 0 7.92 0 12 0 C12 1.98 12 3.96 12 6 C13.98 6 15.96 6 18 6 C18 11.94 18 17.88 18 24 C14.04 24 10.08 24 6 24 C6 22.02 6 20.04 6 18 C4.02 18 2.04 18 0 18 C0 12.06 0 6.12 0 0 Z " fill="#EBB800" transform="translate(318,264)"/>
<path d="M0 0 C3.96 0 7.92 0 12 0 C12 9.9 12 19.8 12 30 C8.04 30 4.08 30 0 30 C0 20.1 0 10.2 0 0 Z " fill="#F2D601" transform="translate(420,162)"/>
<path d="M0 0 C7.92 0 15.84 0 24 0 C24 1.98 24 3.96 24 6 C22.02 6 20.04 6 18 6 C18 9.96 18 13.92 18 18 C14.04 18 10.08 18 6 18 C6 16.02 6 14.04 6 12 C4.02 12 2.04 12 0 12 C0 8.04 0 4.08 0 0 Z " fill="#EBB800" transform="translate(234,306)"/>
<path d="M0 0 C7.92 0 15.84 0 24 0 C24 1.98 24 3.96 24 6 C22.02 6 20.04 6 18 6 C18 7.98 18 9.96 18 12 C14.04 12 10.08 12 6 12 C6 13.98 6 15.96 6 18 C2.04 18 -1.92 18 -6 18 C-6 16.02 -6 14.04 -6 12 C-4.02 12 -2.04 12 0 12 C0 8.04 0 4.08 0 0 Z " fill="#EBB800" transform="translate(402,234)"/>
<path d="M0 0 C3.96 0 7.92 0 12 0 C12 9.9 12 19.8 12 30 C10.02 30 8.04 30 6 30 C6 31.98 6 33.96 6 36 C4.02 36 2.04 36 0 36 C0 34.02 0 32.04 0 30 C-1.98 30 -3.96 30 -6 30 C-6 28.02 -6 26.04 -6 24 C-2.04 24 1.92 24 6 24 C6 18.06 6 12.12 6 6 C4.02 6 2.04 6 0 6 C0 4.02 0 2.04 0 0 Z " fill="#161F2B" transform="translate(432,192)"/>
<path d="M0 0 C3.96 0 7.92 0 12 0 C12 1.98 12 3.96 12 6 C10.02 6 8.04 6 6 6 C6 7.98 6 9.96 6 12 C7.98 12 9.96 12 12 12 C12 17.94 12 23.88 12 30 C8.04 30 4.08 30 0 30 C0 20.1 0 10.2 0 0 Z " fill="#161F2B" transform="translate(402,168)"/>
<path d="M0 0 C1.98 0 3.96 0 6 0 C6 15.84 6 31.68 6 48 C4.02 48 2.04 48 0 48 C0 32.16 0 16.32 0 0 Z " fill="#161F2B" transform="translate(162,210)"/>
<path d="M0 0 C3.96 0 7.92 0 12 0 C12 1.98 12 3.96 12 6 C15.96 6 19.92 6 24 6 C24 7.98 24 9.96 24 12 C12.12 12 0.24 12 -12 12 C-12 10.02 -12 8.04 -12 6 C-8.04 6 -4.08 6 0 6 C0 4.02 0 2.04 0 0 Z " fill="#161F2B" transform="translate(282,138)"/>
<path d="M0 0 C5.94 0 11.88 0 18 0 C18 1.98 18 3.96 18 6 C21.96 6 25.92 6 30 6 C30 7.98 30 9.96 30 12 C22.08 12 14.16 12 6 12 C6 10.02 6 8.04 6 6 C4.02 6 2.04 6 0 6 C0 4.02 0 2.04 0 0 Z " fill="#EBB800" transform="translate(222,318)"/>
<path d="M0 0 C1.98 0 3.96 0 6 0 C6 1.98 6 3.96 6 6 C7.98 6 9.96 6 12 6 C12 9.96 12 13.92 12 18 C6.06 18 0.12 18 -6 18 C-6 14.04 -6 10.08 -6 6 C-4.02 6 -2.04 6 0 6 C0 4.02 0 2.04 0 0 Z " fill="#8A6F2B" transform="translate(210,306)"/>
<path d="M0 0 C13.86 0 27.72 0 42 0 C42 1.98 42 3.96 42 6 C28.14 6 14.28 6 0 6 C0 4.02 0 2.04 0 0 Z " fill="#161F2B" transform="translate(6,96)"/>
<path d="M0 0 C1.98 0 3.96 0 6 0 C6 1.98 6 3.96 6 6 C9.96 6 13.92 6 18 6 C18 4.02 18 2.04 18 0 C19.98 0 21.96 0 24 0 C24 3.96 24 7.92 24 12 C16.08 12 8.16 12 0 12 C0 8.04 0 4.08 0 0 Z " fill="#8A6F2B" transform="translate(336,300)"/>
<path d="M0 0 C1.98 0 3.96 0 6 0 C6 5.94 6 11.88 6 18 C7.98 18 9.96 18 12 18 C12 19.98 12 21.96 12 24 C10.02 24 8.04 24 6 24 C6 25.98 6 27.96 6 30 C4.02 30 2.04 30 0 30 C0 20.1 0 10.2 0 0 Z " fill="#8A6F2B" transform="translate(360,270)"/>
<path d="M0 0 C5.94 0 11.88 0 18 0 C18 1.98 18 3.96 18 6 C14.04 6 10.08 6 6 6 C6 11.94 6 17.88 6 24 C4.02 24 2.04 24 0 24 C0 16.08 0 8.16 0 0 Z " fill="#161F2B" transform="translate(378,252)"/>
<path d="M0 0 C3.96 0 7.92 0 12 0 C12 1.98 12 3.96 12 6 C10.02 6 8.04 6 6 6 C6 7.98 6 9.96 6 12 C4.02 12 2.04 12 0 12 C0 13.98 0 15.96 0 18 C-3.96 18 -7.92 18 -12 18 C-12 16.02 -12 14.04 -12 12 C-10.02 12 -8.04 12 -6 12 C-6 10.02 -6 8.04 -6 6 C-4.02 6 -2.04 6 0 6 C0 4.02 0 2.04 0 0 Z " fill="#703D1F" transform="translate(204,162)"/>
<path d="M0 0 C11.88 0 23.76 0 36 0 C36 1.98 36 3.96 36 6 C24.12 6 12.24 6 0 6 C0 4.02 0 2.04 0 0 Z " fill="#161F2B" transform="translate(234,150)"/>
<path d="M0 0 C11.88 0 23.76 0 36 0 C36 1.98 36 3.96 36 6 C24.12 6 12.24 6 0 6 C0 4.02 0 2.04 0 0 Z " fill="#161F2B" transform="translate(360,126)"/>
<path d="M0 0 C1.98 0 3.96 0 6 0 C6 3.96 6 7.92 6 12 C4.02 12 2.04 12 0 12 C0 13.98 0 15.96 0 18 C-1.98 18 -3.96 18 -6 18 C-6 16.02 -6 14.04 -6 12 C-9.96 12 -13.92 12 -18 12 C-18 10.02 -18 8.04 -18 6 C-12.06 6 -6.12 6 0 6 C0 4.02 0 2.04 0 0 Z " fill="#8A6F2B" transform="translate(354,120)"/>
<path d="M0 0 C5.94 0 11.88 0 18 0 C18 3.96 18 7.92 18 12 C19.98 12 21.96 12 24 12 C24 13.98 24 15.96 24 18 C20.04 18 16.08 18 12 18 C12 14.04 12 10.08 12 6 C8.04 6 4.08 6 0 6 C0 4.02 0 2.04 0 0 Z " fill="#F2D601" transform="translate(72,60)"/>
<path d="M0 0 C1.98 0 3.96 0 6 0 C6 11.88 6 23.76 6 36 C4.02 36 2.04 36 0 36 C0 24.12 0 12.24 0 0 Z " fill="#161F2B" transform="translate(0,60)"/>
<path d="M0 0 C9.9 0 19.8 0 30 0 C30 1.98 30 3.96 30 6 C20.1 6 10.2 6 0 6 C0 4.02 0 2.04 0 0 Z " fill="#161F2B" transform="translate(288,270)"/>
<path d="M0 0 C1.98 0 3.96 0 6 0 C6 9.9 6 19.8 6 30 C4.02 30 2.04 30 0 30 C0 20.1 0 10.2 0 0 Z " fill="#161F2B" transform="translate(426,162)"/>
<path d="M0 0 C9.9 0 19.8 0 30 0 C30 1.98 30 3.96 30 6 C20.1 6 10.2 6 0 6 C0 4.02 0 2.04 0 0 Z " fill="#8A6F2B" transform="translate(282,114)"/>
<path d="M0 0 C3.96 0 7.92 0 12 0 C12 3.96 12 7.92 12 12 C8.04 12 4.08 12 0 12 C0 8.04 0 4.08 0 0 Z " fill="#8A6F2B" transform="translate(240,312)"/>
<path d="M0 0 C3.96 0 7.92 0 12 0 C12 1.98 12 3.96 12 6 C13.98 6 15.96 6 18 6 C18 7.98 18 9.96 18 12 C14.04 12 10.08 12 6 12 C6 10.02 6 8.04 6 6 C4.02 6 2.04 6 0 6 C0 4.02 0 2.04 0 0 Z " fill="#8A6F2B" transform="translate(186,288)"/>
<path d="M0 0 C1.98 0 3.96 0 6 0 C6 7.92 6 15.84 6 24 C4.02 24 2.04 24 0 24 C0 16.08 0 8.16 0 0 Z " fill="#F2D601" transform="translate(252,282)"/>
<path d="M0 0 C3.96 0 7.92 0 12 0 C12 5.94 12 11.88 12 18 C10.02 18 8.04 18 6 18 C6 14.04 6 10.08 6 6 C4.02 6 2.04 6 0 6 C0 4.02 0 2.04 0 0 Z " fill="#161F2B" transform="translate(174,270)"/>
<path d="M0 0 C3.96 0 7.92 0 12 0 C12 1.98 12 3.96 12 6 C10.02 6 8.04 6 6 6 C6 7.98 6 9.96 6 12 C2.04 12 -1.92 12 -6 12 C-6 10.02 -6 8.04 -6 6 C-4.02 6 -2.04 6 0 6 C0 4.02 0 2.04 0 0 Z " fill="#F2D601" transform="translate(180,192)"/>
<path d="M0 0 C3.96 0 7.92 0 12 0 C12 1.98 12 3.96 12 6 C10.02 6 8.04 6 6 6 C6 7.98 6 9.96 6 12 C2.04 12 -1.92 12 -6 12 C-6 10.02 -6 8.04 -6 6 C-4.02 6 -2.04 6 0 6 C0 4.02 0 2.04 0 0 Z " fill="#EBB800" transform="translate(186,180)"/>
<path d="M0 0 C3.96 0 7.92 0 12 0 C12 3.96 12 7.92 12 12 C8.04 12 4.08 12 0 12 C0 8.04 0 4.08 0 0 Z " fill="#F2D601" transform="translate(414,150)"/>
<path d="M0 0 C7.92 0 15.84 0 24 0 C24 1.98 24 3.96 24 6 C16.08 6 8.16 6 0 6 C0 4.02 0 2.04 0 0 Z " fill="#703D1F" transform="translate(246,156)"/>
<path d="M0 0 C1.98 0 3.96 0 6 0 C6 5.94 6 11.88 6 18 C2.04 18 -1.92 18 -6 18 C-6 16.02 -6 14.04 -6 12 C-4.02 12 -2.04 12 0 12 C0 8.04 0 4.08 0 0 Z " fill="#F2D601" transform="translate(114,132)"/>
<path d="M0 0 C5.94 0 11.88 0 18 0 C18 1.98 18 3.96 18 6 C12.06 6 6.12 6 0 6 C0 4.02 0 2.04 0 0 Z " fill="#F2D601" transform="translate(222,318)"/>
<path d="M0 0 C3.96 0 7.92 0 12 0 C12 3.96 12 7.92 12 12 C10.02 12 8.04 12 6 12 C6 10.02 6 8.04 6 6 C4.02 6 2.04 6 0 6 C0 4.02 0 2.04 0 0 Z " fill="#F2D601" transform="translate(204,294)"/>
<path d="M0 0 C1.98 0 3.96 0 6 0 C6 5.94 6 11.88 6 18 C4.02 18 2.04 18 0 18 C0 12.06 0 6.12 0 0 Z " fill="#161F2B" transform="translate(258,288)"/>
<path d="M0 0 C3.96 0 7.92 0 12 0 C12 3.96 12 7.92 12 12 C10.02 12 8.04 12 6 12 C6 10.02 6 8.04 6 6 C4.02 6 2.04 6 0 6 C0 4.02 0 2.04 0 0 Z " fill="#CB8500" transform="translate(318,276)"/>
<path d="M0 0 C3.96 0 7.92 0 12 0 C12 3.96 12 7.92 12 12 C10.02 12 8.04 12 6 12 C6 10.02 6 8.04 6 6 C4.02 6 2.04 6 0 6 C0 4.02 0 2.04 0 0 Z " fill="#8A6F2B" transform="translate(426,216)"/>
<path d="M0 0 C1.98 0 3.96 0 6 0 C6 1.98 6 3.96 6 6 C7.98 6 9.96 6 12 6 C12 7.98 12 9.96 12 12 C8.04 12 4.08 12 0 12 C0 8.04 0 4.08 0 0 Z " fill="#F2D601" transform="translate(426,192)"/>
<path d="M0 0 C3.96 0 7.92 0 12 0 C12 3.96 12 7.92 12 12 C10.02 12 8.04 12 6 12 C6 10.02 6 8.04 6 6 C4.02 6 2.04 6 0 6 C0 4.02 0 2.04 0 0 Z " fill="#EBB800" transform="translate(378,192)"/>
<path d="M0 0 C1.98 0 3.96 0 6 0 C6 1.98 6 3.96 6 6 C7.98 6 9.96 6 12 6 C12 7.98 12 9.96 12 12 C8.04 12 4.08 12 0 12 C0 8.04 0 4.08 0 0 Z " fill="#F2D601" transform="translate(198,186)"/>
<path d="M0 0 C1.98 0 3.96 0 6 0 C6 1.98 6 3.96 6 6 C7.98 6 9.96 6 12 6 C12 7.98 12 9.96 12 12 C8.04 12 4.08 12 0 12 C0 8.04 0 4.08 0 0 Z " fill="#6A323F" transform="translate(402,186)"/>
<path d="M0 0 C3.96 0 7.92 0 12 0 C12 1.98 12 3.96 12 6 C10.02 6 8.04 6 6 6 C6 7.98 6 9.96 6 12 C4.02 12 2.04 12 0 12 C0 8.04 0 4.08 0 0 Z " fill="#F2D601" transform="translate(222,162)"/>
<path d="M0 0 C5.94 0 11.88 0 18 0 C18 1.98 18 3.96 18 6 C12.06 6 6.12 6 0 6 C0 4.02 0 2.04 0 0 Z " fill="#161F2B" transform="translate(216,156)"/>
<path d="M0 0 C5.94 0 11.88 0 18 0 C18 1.98 18 3.96 18 6 C12.06 6 6.12 6 0 6 C0 4.02 0 2.04 0 0 Z " fill="#8A6F2B" transform="translate(306,150)"/>
<path d="M0 0 C1.98 0 3.96 0 6 0 C6 1.98 6 3.96 6 6 C7.98 6 9.96 6 12 6 C12 7.98 12 9.96 12 12 C8.04 12 4.08 12 0 12 C0 8.04 0 4.08 0 0 Z " fill="#EBB800" transform="translate(408,138)"/>
<path d="M0 0 C5.94 0 11.88 0 18 0 C18 1.98 18 3.96 18 6 C12.06 6 6.12 6 0 6 C0 4.02 0 2.04 0 0 Z " fill="#CB8500" transform="translate(336,120)"/>
<path d="M0 0 C5.94 0 11.88 0 18 0 C18 1.98 18 3.96 18 6 C12.06 6 6.12 6 0 6 C0 4.02 0 2.04 0 0 Z " fill="#161F2B" transform="translate(312,102)"/>
<path d="M0 0 C5.94 0 11.88 0 18 0 C18 1.98 18 3.96 18 6 C12.06 6 6.12 6 0 6 C0 4.02 0 2.04 0 0 Z " fill="#161F2B" transform="translate(72,60)"/>
<path d="M0 0 C5.94 0 11.88 0 18 0 C18 1.98 18 3.96 18 6 C12.06 6 6.12 6 0 6 C0 4.02 0 2.04 0 0 Z " fill="#161F2B" transform="translate(54,54)"/>
<path d="M0 0 C5.94 0 11.88 0 18 0 C18 1.98 18 3.96 18 6 C12.06 6 6.12 6 0 6 C0 4.02 0 2.04 0 0 Z " fill="#161F2B" transform="translate(36,48)"/>
<path d="M0 0 C3.96 0 7.92 0 12 0 C12 1.98 12 3.96 12 6 C10.02 6 8.04 6 6 6 C6 7.98 6 9.96 6 12 C4.02 12 2.04 12 0 12 C0 8.04 0 4.08 0 0 Z " fill="#F2D601" transform="translate(6,48)"/>
<path d="M0 0 C1.98 0 3.96 0 6 0 C6 5.94 6 11.88 6 18 C4.02 18 2.04 18 0 18 C0 12.06 0 6.12 0 0 Z " fill="#8A6F2B" transform="translate(0,42)"/>
<path d="M0 0 C3.96 0 7.92 0 12 0 C12 1.98 12 3.96 12 6 C8.04 6 4.08 6 0 6 C0 4.02 0 2.04 0 0 Z " fill="#161F2B" transform="translate(240,312)"/>
<path d="M0 0 C1.98 0 3.96 0 6 0 C6 3.96 6 7.92 6 12 C4.02 12 2.04 12 0 12 C0 8.04 0 4.08 0 0 Z " fill="#161F2B" transform="translate(354,300)"/>
<path d="M0 0 C1.98 0 3.96 0 6 0 C6 3.96 6 7.92 6 12 C4.02 12 2.04 12 0 12 C0 8.04 0 4.08 0 0 Z " fill="#161F2B" transform="translate(330,288)"/>
<path d="M0 0 C3.96 0 7.92 0 12 0 C12 1.98 12 3.96 12 6 C8.04 6 4.08 6 0 6 C0 4.02 0 2.04 0 0 Z " fill="#161F2B" transform="translate(264,282)"/>
<path d="M0 0 C1.98 0 3.96 0 6 0 C6 3.96 6 7.92 6 12 C4.02 12 2.04 12 0 12 C0 8.04 0 4.08 0 0 Z " fill="#161F2B" transform="translate(372,276)"/>
<path d="M0 0 C1.98 0 3.96 0 6 0 C6 3.96 6 7.92 6 12 C4.02 12 2.04 12 0 12 C0 8.04 0 4.08 0 0 Z " fill="#F2D601" transform="translate(354,270)"/>
<path d="M0 0 C3.96 0 7.92 0 12 0 C12 1.98 12 3.96 12 6 C8.04 6 4.08 6 0 6 C0 4.02 0 2.04 0 0 Z " fill="#161F2B" transform="translate(276,276)"/>
<path d="M0 0 C3.96 0 7.92 0 12 0 C12 1.98 12 3.96 12 6 C8.04 6 4.08 6 0 6 C0 4.02 0 2.04 0 0 Z " fill="#EBB800" transform="translate(174,270)"/>
<path d="M0 0 C1.98 0 3.96 0 6 0 C6 3.96 6 7.92 6 12 C4.02 12 2.04 12 0 12 C0 8.04 0 4.08 0 0 Z " fill="#F2D601" transform="translate(348,258)"/>
<path d="M0 0 C3.96 0 7.92 0 12 0 C12 1.98 12 3.96 12 6 C8.04 6 4.08 6 0 6 C0 4.02 0 2.04 0 0 Z " fill="#CB8500" transform="translate(306,264)"/>
<path d="M0 0 C1.98 0 3.96 0 6 0 C6 3.96 6 7.92 6 12 C4.02 12 2.04 12 0 12 C0 8.04 0 4.08 0 0 Z " fill="#A56F01" transform="translate(360,258)"/>
<path d="M0 0 C1.98 0 3.96 0 6 0 C6 3.96 6 7.92 6 12 C4.02 12 2.04 12 0 12 C0 8.04 0 4.08 0 0 Z " fill="#161F2B" transform="translate(168,258)"/>
<path d="M0 0 C3.96 0 7.92 0 12 0 C12 1.98 12 3.96 12 6 C8.04 6 4.08 6 0 6 C0 4.02 0 2.04 0 0 Z " fill="#161F2B" transform="translate(396,246)"/>
<path d="M0 0 C3.96 0 7.92 0 12 0 C12 1.98 12 3.96 12 6 C8.04 6 4.08 6 0 6 C0 4.02 0 2.04 0 0 Z " fill="#161F2B" transform="translate(408,240)"/>
<path d="M0 0 C3.96 0 7.92 0 12 0 C12 1.98 12 3.96 12 6 C8.04 6 4.08 6 0 6 C0 4.02 0 2.04 0 0 Z " fill="#DC0027" transform="translate(372,222)"/>
<path d="M0 0 C1.98 0 3.96 0 6 0 C6 3.96 6 7.92 6 12 C4.02 12 2.04 12 0 12 C0 8.04 0 4.08 0 0 Z " fill="#F2D601" transform="translate(252,186)"/>
<path d="M0 0 C3.96 0 7.92 0 12 0 C12 1.98 12 3.96 12 6 C8.04 6 4.08 6 0 6 C0 4.02 0 2.04 0 0 Z " fill="#703D1F" transform="translate(138,192)"/>
<path d="M0 0 C1.98 0 3.96 0 6 0 C6 3.96 6 7.92 6 12 C4.02 12 2.04 12 0 12 C0 8.04 0 4.08 0 0 Z " fill="#EBB800" transform="translate(420,180)"/>
<path d="M0 0 C1.98 0 3.96 0 6 0 C6 3.96 6 7.92 6 12 C4.02 12 2.04 12 0 12 C0 8.04 0 4.08 0 0 Z " fill="#F2D601" transform="translate(246,174)"/>
<path d="M0 0 C3.96 0 7.92 0 12 0 C12 1.98 12 3.96 12 6 C8.04 6 4.08 6 0 6 C0 4.02 0 2.04 0 0 Z " fill="#703D1F" transform="translate(192,174)"/>
<path d="M0 0 C3.96 0 7.92 0 12 0 C12 1.98 12 3.96 12 6 C8.04 6 4.08 6 0 6 C0 4.02 0 2.04 0 0 Z " fill="#161F2B" transform="translate(204,162)"/>
<path d="M0 0 C3.96 0 7.92 0 12 0 C12 1.98 12 3.96 12 6 C8.04 6 4.08 6 0 6 C0 4.02 0 2.04 0 0 Z " fill="#8A6F2B" transform="translate(324,156)"/>
<path d="M0 0 C3.96 0 7.92 0 12 0 C12 1.98 12 3.96 12 6 C8.04 6 4.08 6 0 6 C0 4.02 0 2.04 0 0 Z " fill="#F2D601" transform="translate(234,156)"/>
<path d="M0 0 C1.98 0 3.96 0 6 0 C6 3.96 6 7.92 6 12 C4.02 12 2.04 12 0 12 C0 8.04 0 4.08 0 0 Z " fill="#161F2B" transform="translate(420,150)"/>
<path d="M0 0 C3.96 0 7.92 0 12 0 C12 1.98 12 3.96 12 6 C8.04 6 4.08 6 0 6 C0 4.02 0 2.04 0 0 Z " fill="#8A6F2B" transform="translate(294,144)"/>
<path d="M0 0 C3.96 0 7.92 0 12 0 C12 1.98 12 3.96 12 6 C8.04 6 4.08 6 0 6 C0 4.02 0 2.04 0 0 Z " fill="#F2D601" transform="translate(78,138)"/>
<path d="M0 0 C3.96 0 7.92 0 12 0 C12 1.98 12 3.96 12 6 C8.04 6 4.08 6 0 6 C0 4.02 0 2.04 0 0 Z " fill="#161F2B" transform="translate(396,132)"/>
<path d="M0 0 C3.96 0 7.92 0 12 0 C12 1.98 12 3.96 12 6 C8.04 6 4.08 6 0 6 C0 4.02 0 2.04 0 0 Z " fill="#EBB800" transform="translate(354,132)"/>
<path d="M0 0 C1.98 0 3.96 0 6 0 C6 3.96 6 7.92 6 12 C4.02 12 2.04 12 0 12 C0 8.04 0 4.08 0 0 Z " fill="#EBB800" transform="translate(282,120)"/>
<path d="M0 0 C3.96 0 7.92 0 12 0 C12 1.98 12 3.96 12 6 C8.04 6 4.08 6 0 6 C0 4.02 0 2.04 0 0 Z " fill="#161F2B" transform="translate(342,114)"/>
<path d="M0 0 C1.98 0 3.96 0 6 0 C6 3.96 6 7.92 6 12 C4.02 12 2.04 12 0 12 C0 8.04 0 4.08 0 0 Z " fill="#161F2B" transform="translate(90,114)"/>
<path d="M0 0 C3.96 0 7.92 0 12 0 C12 1.98 12 3.96 12 6 C8.04 6 4.08 6 0 6 C0 4.02 0 2.04 0 0 Z " fill="#161F2B" transform="translate(330,108)"/>
<path d="M0 0 C3.96 0 7.92 0 12 0 C12 1.98 12 3.96 12 6 C8.04 6 4.08 6 0 6 C0 4.02 0 2.04 0 0 Z " fill="#A56F01" transform="translate(300,102)"/>
<path d="M0 0 C3.96 0 7.92 0 12 0 C12 1.98 12 3.96 12 6 C8.04 6 4.08 6 0 6 C0 4.02 0 2.04 0 0 Z " fill="#F2D601" transform="translate(48,96)"/>
<path d="M0 0 C1.98 0 3.96 0 6 0 C6 1.98 6 3.96 6 6 C4.02 6 2.04 6 0 6 C0 4.02 0 2.04 0 0 Z " fill="#8A6F2B" transform="translate(252,324)"/>
<path d="M0 0 C1.98 0 3.96 0 6 0 C6 1.98 6 3.96 6 6 C4.02 6 2.04 6 0 6 C0 4.02 0 2.04 0 0 Z " fill="#EBB800" transform="translate(222,318)"/>
<path d="M0 0 C1.98 0 3.96 0 6 0 C6 1.98 6 3.96 6 6 C4.02 6 2.04 6 0 6 C0 4.02 0 2.04 0 0 Z " fill="#A56F01" transform="translate(210,318)"/>
<path d="M0 0 C1.98 0 3.96 0 6 0 C6 1.98 6 3.96 6 6 C4.02 6 2.04 6 0 6 C0 4.02 0 2.04 0 0 Z " fill="#161F2B" transform="translate(204,318)"/>
<path d="M0 0 C1.98 0 3.96 0 6 0 C6 1.98 6 3.96 6 6 C4.02 6 2.04 6 0 6 C0 4.02 0 2.04 0 0 Z " fill="#F2D601" transform="translate(222,312)"/>
<path d="M0 0 C1.98 0 3.96 0 6 0 C6 1.98 6 3.96 6 6 C4.02 6 2.04 6 0 6 C0 4.02 0 2.04 0 0 Z " fill="#A56F01" transform="translate(204,312)"/>
<path d="M0 0 C1.98 0 3.96 0 6 0 C6 1.98 6 3.96 6 6 C4.02 6 2.04 6 0 6 C0 4.02 0 2.04 0 0 Z " fill="#8A6F2B" transform="translate(348,306)"/>
<path d="M0 0 C1.98 0 3.96 0 6 0 C6 1.98 6 3.96 6 6 C4.02 6 2.04 6 0 6 C0 4.02 0 2.04 0 0 Z " fill="#161F2B" transform="translate(342,306)"/>
<path d="M0 0 C1.98 0 3.96 0 6 0 C6 1.98 6 3.96 6 6 C4.02 6 2.04 6 0 6 C0 4.02 0 2.04 0 0 Z " fill="#161F2B" transform="translate(252,306)"/>
<path d="M0 0 C1.98 0 3.96 0 6 0 C6 1.98 6 3.96 6 6 C4.02 6 2.04 6 0 6 C0 4.02 0 2.04 0 0 Z " fill="#CB8500" transform="translate(246,306)"/>
<path d="M0 0 C1.98 0 3.96 0 6 0 C6 1.98 6 3.96 6 6 C4.02 6 2.04 6 0 6 C0 4.02 0 2.04 0 0 Z " fill="#EBB800" transform="translate(216,306)"/>
<path d="M0 0 C1.98 0 3.96 0 6 0 C6 1.98 6 3.96 6 6 C4.02 6 2.04 6 0 6 C0 4.02 0 2.04 0 0 Z " fill="#EBB800" transform="translate(348,300)"/>
<path d="M0 0 C1.98 0 3.96 0 6 0 C6 1.98 6 3.96 6 6 C4.02 6 2.04 6 0 6 C0 4.02 0 2.04 0 0 Z " fill="#CB8500" transform="translate(342,300)"/>
<path d="M0 0 C1.98 0 3.96 0 6 0 C6 1.98 6 3.96 6 6 C4.02 6 2.04 6 0 6 C0 4.02 0 2.04 0 0 Z " fill="#161F2B" transform="translate(336,300)"/>
<path d="M0 0 C1.98 0 3.96 0 6 0 C6 1.98 6 3.96 6 6 C4.02 6 2.04 6 0 6 C0 4.02 0 2.04 0 0 Z " fill="#CB8500" transform="translate(252,300)"/>
<path d="M0 0 C1.98 0 3.96 0 6 0 C6 1.98 6 3.96 6 6 C4.02 6 2.04 6 0 6 C0 4.02 0 2.04 0 0 Z " fill="#EBB800" transform="translate(246,300)"/>
<path d="M0 0 C1.98 0 3.96 0 6 0 C6 1.98 6 3.96 6 6 C4.02 6 2.04 6 0 6 C0 4.02 0 2.04 0 0 Z " fill="#F2D601" transform="translate(240,300)"/>
<path d="M0 0 C1.98 0 3.96 0 6 0 C6 1.98 6 3.96 6 6 C4.02 6 2.04 6 0 6 C0 4.02 0 2.04 0 0 Z " fill="#F2D601" transform="translate(216,300)"/>
<path d="M0 0 C1.98 0 3.96 0 6 0 C6 1.98 6 3.96 6 6 C4.02 6 2.04 6 0 6 C0 4.02 0 2.04 0 0 Z " fill="#EBB800" transform="translate(210,300)"/>
<path d="M0 0 C1.98 0 3.96 0 6 0 C6 1.98 6 3.96 6 6 C4.02 6 2.04 6 0 6 C0 4.02 0 2.04 0 0 Z " fill="#8A6F2B" transform="translate(204,300)"/>
<path d="M0 0 C1.98 0 3.96 0 6 0 C6 1.98 6 3.96 6 6 C4.02 6 2.04 6 0 6 C0 4.02 0 2.04 0 0 Z " fill="#161F2B" transform="translate(360,294)"/>
<path d="M0 0 C1.98 0 3.96 0 6 0 C6 1.98 6 3.96 6 6 C4.02 6 2.04 6 0 6 C0 4.02 0 2.04 0 0 Z " fill="#EBB800" transform="translate(354,294)"/>
<path d="M0 0 C1.98 0 3.96 0 6 0 C6 1.98 6 3.96 6 6 C4.02 6 2.04 6 0 6 C0 4.02 0 2.04 0 0 Z " fill="#F2D601" transform="translate(348,294)"/>
<path d="M0 0 C1.98 0 3.96 0 6 0 C6 1.98 6 3.96 6 6 C4.02 6 2.04 6 0 6 C0 4.02 0 2.04 0 0 Z " fill="#EBB800" transform="translate(342,294)"/>
<path d="M0 0 C1.98 0 3.96 0 6 0 C6 1.98 6 3.96 6 6 C4.02 6 2.04 6 0 6 C0 4.02 0 2.04 0 0 Z " fill="#CB8500" transform="translate(336,294)"/>
<path d="M0 0 C1.98 0 3.96 0 6 0 C6 1.98 6 3.96 6 6 C4.02 6 2.04 6 0 6 C0 4.02 0 2.04 0 0 Z " fill="#EBB800" transform="translate(252,294)"/>
<path d="M0 0 C1.98 0 3.96 0 6 0 C6 1.98 6 3.96 6 6 C4.02 6 2.04 6 0 6 C0 4.02 0 2.04 0 0 Z " fill="#F2D601" transform="translate(246,294)"/>
<path d="M0 0 C1.98 0 3.96 0 6 0 C6 1.98 6 3.96 6 6 C4.02 6 2.04 6 0 6 C0 4.02 0 2.04 0 0 Z " fill="#EBB800" transform="translate(204,294)"/>
<path d="M0 0 C1.98 0 3.96 0 6 0 C6 1.98 6 3.96 6 6 C4.02 6 2.04 6 0 6 C0 4.02 0 2.04 0 0 Z " fill="#8A6F2B" transform="translate(198,294)"/>
<path d="M0 0 C1.98 0 3.96 0 6 0 C6 1.98 6 3.96 6 6 C4.02 6 2.04 6 0 6 C0 4.02 0 2.04 0 0 Z " fill="#161F2B" transform="translate(192,294)"/>
<path d="M0 0 C1.98 0 3.96 0 6 0 C6 1.98 6 3.96 6 6 C4.02 6 2.04 6 0 6 C0 4.02 0 2.04 0 0 Z " fill="#161F2B" transform="translate(366,288)"/>
<path d="M0 0 C1.98 0 3.96 0 6 0 C6 1.98 6 3.96 6 6 C4.02 6 2.04 6 0 6 C0 4.02 0 2.04 0 0 Z " fill="#F2D601" transform="translate(354,288)"/>
<path d="M0 0 C1.98 0 3.96 0 6 0 C6 1.98 6 3.96 6 6 C4.02 6 2.04 6 0 6 C0 4.02 0 2.04 0 0 Z " fill="#F2D601" transform="translate(342,288)"/>
<path d="M0 0 C1.98 0 3.96 0 6 0 C6 1.98 6 3.96 6 6 C4.02 6 2.04 6 0 6 C0 4.02 0 2.04 0 0 Z " fill="#161F2B" transform="translate(186,288)"/>
<path d="M0 0 C1.98 0 3.96 0 6 0 C6 1.98 6 3.96 6 6 C4.02 6 2.04 6 0 6 C0 4.02 0 2.04 0 0 Z " fill="#A56F01" transform="translate(366,282)"/>
<path d="M0 0 C1.98 0 3.96 0 6 0 C6 1.98 6 3.96 6 6 C4.02 6 2.04 6 0 6 C0 4.02 0 2.04 0 0 Z " fill="#CB8500" transform="translate(330,282)"/>
<path d="M0 0 C1.98 0 3.96 0 6 0 C6 1.98 6 3.96 6 6 C4.02 6 2.04 6 0 6 C0 4.02 0 2.04 0 0 Z " fill="#161F2B" transform="translate(324,282)"/>
<path d="M0 0 C1.98 0 3.96 0 6 0 C6 1.98 6 3.96 6 6 C4.02 6 2.04 6 0 6 C0 4.02 0 2.04 0 0 Z " fill="#8A6F2B" transform="translate(258,282)"/>
<path d="M0 0 C1.98 0 3.96 0 6 0 C6 1.98 6 3.96 6 6 C4.02 6 2.04 6 0 6 C0 4.02 0 2.04 0 0 Z " fill="#CB8500" transform="translate(186,282)"/>
<path d="M0 0 C1.98 0 3.96 0 6 0 C6 1.98 6 3.96 6 6 C4.02 6 2.04 6 0 6 C0 4.02 0 2.04 0 0 Z " fill="#F2D601" transform="translate(336,276)"/>
<path d="M0 0 C1.98 0 3.96 0 6 0 C6 1.98 6 3.96 6 6 C4.02 6 2.04 6 0 6 C0 4.02 0 2.04 0 0 Z " fill="#161F2B" transform="translate(318,276)"/>
<path d="M0 0 C1.98 0 3.96 0 6 0 C6 1.98 6 3.96 6 6 C4.02 6 2.04 6 0 6 C0 4.02 0 2.04 0 0 Z " fill="#CB8500" transform="translate(270,276)"/>
<path d="M0 0 C1.98 0 3.96 0 6 0 C6 1.98 6 3.96 6 6 C4.02 6 2.04 6 0 6 C0 4.02 0 2.04 0 0 Z " fill="#8A6F2B" transform="translate(252,276)"/>
<path d="M0 0 C1.98 0 3.96 0 6 0 C6 1.98 6 3.96 6 6 C4.02 6 2.04 6 0 6 C0 4.02 0 2.04 0 0 Z " fill="#A56F01" transform="translate(372,270)"/>
<path d="M0 0 C1.98 0 3.96 0 6 0 C6 1.98 6 3.96 6 6 C4.02 6 2.04 6 0 6 C0 4.02 0 2.04 0 0 Z " fill="#EBB800" transform="translate(354,270)"/>
<path d="M0 0 C1.98 0 3.96 0 6 0 C6 1.98 6 3.96 6 6 C4.02 6 2.04 6 0 6 C0 4.02 0 2.04 0 0 Z " fill="#CB8500" transform="translate(318,270)"/>
<path d="M0 0 C1.98 0 3.96 0 6 0 C6 1.98 6 3.96 6 6 C4.02 6 2.04 6 0 6 C0 4.02 0 2.04 0 0 Z " fill="#CB8500" transform="translate(282,270)"/>
<path d="M0 0 C1.98 0 3.96 0 6 0 C6 1.98 6 3.96 6 6 C4.02 6 2.04 6 0 6 C0 4.02 0 2.04 0 0 Z " fill="#161F2B" transform="translate(174,270)"/>
<path d="M0 0 C1.98 0 3.96 0 6 0 C6 1.98 6 3.96 6 6 C4.02 6 2.04 6 0 6 C0 4.02 0 2.04 0 0 Z " fill="#F2D601" transform="translate(330,264)"/>
<path d="M0 0 C1.98 0 3.96 0 6 0 C6 1.98 6 3.96 6 6 C4.02 6 2.04 6 0 6 C0 4.02 0 2.04 0 0 Z " fill="#8A6F2B" transform="translate(306,264)"/>
<path d="M0 0 C1.98 0 3.96 0 6 0 C6 1.98 6 3.96 6 6 C4.02 6 2.04 6 0 6 C0 4.02 0 2.04 0 0 Z " fill="#EBB800" transform="translate(174,264)"/>
<path d="M0 0 C1.98 0 3.96 0 6 0 C6 1.98 6 3.96 6 6 C4.02 6 2.04 6 0 6 C0 4.02 0 2.04 0 0 Z " fill="#A56F01" transform="translate(372,258)"/>
<path d="M0 0 C1.98 0 3.96 0 6 0 C6 1.98 6 3.96 6 6 C4.02 6 2.04 6 0 6 C0 4.02 0 2.04 0 0 Z " fill="#EBB800" transform="translate(348,258)"/>
<path d="M0 0 C1.98 0 3.96 0 6 0 C6 1.98 6 3.96 6 6 C4.02 6 2.04 6 0 6 C0 4.02 0 2.04 0 0 Z " fill="#F2D601" transform="translate(318,258)"/>
<path d="M0 0 C1.98 0 3.96 0 6 0 C6 1.98 6 3.96 6 6 C4.02 6 2.04 6 0 6 C0 4.02 0 2.04 0 0 Z " fill="#CB8500" transform="translate(306,258)"/>
<path d="M0 0 C1.98 0 3.96 0 6 0 C6 1.98 6 3.96 6 6 C4.02 6 2.04 6 0 6 C0 4.02 0 2.04 0 0 Z " fill="#F2D601" transform="translate(276,258)"/>
<path d="M0 0 C1.98 0 3.96 0 6 0 C6 1.98 6 3.96 6 6 C4.02 6 2.04 6 0 6 C0 4.02 0 2.04 0 0 Z " fill="#F2D601" transform="translate(342,252)"/>
<path d="M0 0 C1.98 0 3.96 0 6 0 C6 1.98 6 3.96 6 6 C4.02 6 2.04 6 0 6 C0 4.02 0 2.04 0 0 Z " fill="#CB8500" transform="translate(390,246)"/>
<path d="M0 0 C1.98 0 3.96 0 6 0 C6 1.98 6 3.96 6 6 C4.02 6 2.04 6 0 6 C0 4.02 0 2.04 0 0 Z " fill="#CB8500" transform="translate(354,246)"/>
<path d="M0 0 C1.98 0 3.96 0 6 0 C6 1.98 6 3.96 6 6 C4.02 6 2.04 6 0 6 C0 4.02 0 2.04 0 0 Z " fill="#CB8500" transform="translate(402,240)"/>
<path d="M0 0 C1.98 0 3.96 0 6 0 C6 1.98 6 3.96 6 6 C4.02 6 2.04 6 0 6 C0 4.02 0 2.04 0 0 Z " fill="#CB8500" transform="translate(342,240)"/>
<path d="M0 0 C1.98 0 3.96 0 6 0 C6 1.98 6 3.96 6 6 C4.02 6 2.04 6 0 6 C0 4.02 0 2.04 0 0 Z " fill="#161F2B" transform="translate(420,234)"/>
<path d="M0 0 C1.98 0 3.96 0 6 0 C6 1.98 6 3.96 6 6 C4.02 6 2.04 6 0 6 C0 4.02 0 2.04 0 0 Z " fill="#CB8500" transform="translate(414,234)"/>
<path d="M0 0 C1.98 0 3.96 0 6 0 C6 1.98 6 3.96 6 6 C4.02 6 2.04 6 0 6 C0 4.02 0 2.04 0 0 Z " fill="#F2D601" transform="translate(396,234)"/>
<path d="M0 0 C1.98 0 3.96 0 6 0 C6 1.98 6 3.96 6 6 C4.02 6 2.04 6 0 6 C0 4.02 0 2.04 0 0 Z " fill="#161F2B" transform="translate(426,228)"/>
<path d="M0 0 C1.98 0 3.96 0 6 0 C6 1.98 6 3.96 6 6 C4.02 6 2.04 6 0 6 C0 4.02 0 2.04 0 0 Z " fill="#CB8500" transform="translate(420,228)"/>
<path d="M0 0 C1.98 0 3.96 0 6 0 C6 1.98 6 3.96 6 6 C4.02 6 2.04 6 0 6 C0 4.02 0 2.04 0 0 Z " fill="#EBB800" transform="translate(414,228)"/>
<path d="M0 0 C1.98 0 3.96 0 6 0 C6 1.98 6 3.96 6 6 C4.02 6 2.04 6 0 6 C0 4.02 0 2.04 0 0 Z " fill="#F2D601" transform="translate(408,228)"/>
<path d="M0 0 C1.98 0 3.96 0 6 0 C6 1.98 6 3.96 6 6 C4.02 6 2.04 6 0 6 C0 4.02 0 2.04 0 0 Z " fill="#161F2B" transform="translate(432,222)"/>
<path d="M0 0 C1.98 0 3.96 0 6 0 C6 1.98 6 3.96 6 6 C4.02 6 2.04 6 0 6 C0 4.02 0 2.04 0 0 Z " fill="#EBB800" transform="translate(426,222)"/>
<path d="M0 0 C1.98 0 3.96 0 6 0 C6 1.98 6 3.96 6 6 C4.02 6 2.04 6 0 6 C0 4.02 0 2.04 0 0 Z " fill="#F2D601" transform="translate(420,222)"/>
<path d="M0 0 C1.98 0 3.96 0 6 0 C6 1.98 6 3.96 6 6 C4.02 6 2.04 6 0 6 C0 4.02 0 2.04 0 0 Z " fill="#EBB800" transform="translate(384,222)"/>
<path d="M0 0 C1.98 0 3.96 0 6 0 C6 1.98 6 3.96 6 6 C4.02 6 2.04 6 0 6 C0 4.02 0 2.04 0 0 Z " fill="#EBB800" transform="translate(366,222)"/>
<path d="M0 0 C1.98 0 3.96 0 6 0 C6 1.98 6 3.96 6 6 C4.02 6 2.04 6 0 6 C0 4.02 0 2.04 0 0 Z " fill="#EBB800" transform="translate(390,216)"/>
<path d="M0 0 C1.98 0 3.96 0 6 0 C6 1.98 6 3.96 6 6 C4.02 6 2.04 6 0 6 C0 4.02 0 2.04 0 0 Z " fill="#EBB800" transform="translate(360,216)"/>
<path d="M0 0 C1.98 0 3.96 0 6 0 C6 1.98 6 3.96 6 6 C4.02 6 2.04 6 0 6 C0 4.02 0 2.04 0 0 Z " fill="#EBB800" transform="translate(432,210)"/>
<path d="M0 0 C1.98 0 3.96 0 6 0 C6 1.98 6 3.96 6 6 C4.02 6 2.04 6 0 6 C0 4.02 0 2.04 0 0 Z " fill="#F2D601" transform="translate(426,210)"/>
<path d="M0 0 C1.98 0 3.96 0 6 0 C6 1.98 6 3.96 6 6 C4.02 6 2.04 6 0 6 C0 4.02 0 2.04 0 0 Z " fill="#F2D601" transform="translate(432,204)"/>
<path d="M0 0 C1.98 0 3.96 0 6 0 C6 1.98 6 3.96 6 6 C4.02 6 2.04 6 0 6 C0 4.02 0 2.04 0 0 Z " fill="#E86D48" transform="translate(390,204)"/>
<path d="M0 0 C1.98 0 3.96 0 6 0 C6 1.98 6 3.96 6 6 C4.02 6 2.04 6 0 6 C0 4.02 0 2.04 0 0 Z " fill="#EBB800" transform="translate(432,198)"/>
<path d="M0 0 C1.98 0 3.96 0 6 0 C6 1.98 6 3.96 6 6 C4.02 6 2.04 6 0 6 C0 4.02 0 2.04 0 0 Z " fill="#EBB800" transform="translate(390,198)"/>
<path d="M0 0 C1.98 0 3.96 0 6 0 C6 1.98 6 3.96 6 6 C4.02 6 2.04 6 0 6 C0 4.02 0 2.04 0 0 Z " fill="#E86D48" transform="translate(384,198)"/>
<path d="M0 0 C1.98 0 3.96 0 6 0 C6 1.98 6 3.96 6 6 C4.02 6 2.04 6 0 6 C0 4.02 0 2.04 0 0 Z " fill="#EBB800" transform="translate(360,198)"/>
<path d="M0 0 C1.98 0 3.96 0 6 0 C6 1.98 6 3.96 6 6 C4.02 6 2.04 6 0 6 C0 4.02 0 2.04 0 0 Z " fill="#EBB800" transform="translate(210,198)"/>
<path d="M0 0 C1.98 0 3.96 0 6 0 C6 1.98 6 3.96 6 6 C4.02 6 2.04 6 0 6 C0 4.02 0 2.04 0 0 Z " fill="#F2D601" transform="translate(204,198)"/>
<path d="M0 0 C1.98 0 3.96 0 6 0 C6 1.98 6 3.96 6 6 C4.02 6 2.04 6 0 6 C0 4.02 0 2.04 0 0 Z " fill="#EBB800" transform="translate(174,198)"/>
<path d="M0 0 C1.98 0 3.96 0 6 0 C6 1.98 6 3.96 6 6 C4.02 6 2.04 6 0 6 C0 4.02 0 2.04 0 0 Z " fill="#694118" transform="translate(168,198)"/>
<path d="M0 0 C1.98 0 3.96 0 6 0 C6 1.98 6 3.96 6 6 C4.02 6 2.04 6 0 6 C0 4.02 0 2.04 0 0 Z " fill="#EBB800" transform="translate(426,192)"/>
<path d="M0 0 C1.98 0 3.96 0 6 0 C6 1.98 6 3.96 6 6 C4.02 6 2.04 6 0 6 C0 4.02 0 2.04 0 0 Z " fill="#F2D601" transform="translate(420,192)"/>
<path d="M0 0 C1.98 0 3.96 0 6 0 C6 1.98 6 3.96 6 6 C4.02 6 2.04 6 0 6 C0 4.02 0 2.04 0 0 Z " fill="#D04A66" transform="translate(408,192)"/>
<path d="M0 0 C1.98 0 3.96 0 6 0 C6 1.98 6 3.96 6 6 C4.02 6 2.04 6 0 6 C0 4.02 0 2.04 0 0 Z " fill="#E86D48" transform="translate(378,192)"/>
<path d="M0 0 C1.98 0 3.96 0 6 0 C6 1.98 6 3.96 6 6 C4.02 6 2.04 6 0 6 C0 4.02 0 2.04 0 0 Z " fill="#EBB800" transform="translate(366,192)"/>
<path d="M0 0 C1.98 0 3.96 0 6 0 C6 1.98 6 3.96 6 6 C4.02 6 2.04 6 0 6 C0 4.02 0 2.04 0 0 Z " fill="#A56F01" transform="translate(258,192)"/>
<path d="M0 0 C1.98 0 3.96 0 6 0 C6 1.98 6 3.96 6 6 C4.02 6 2.04 6 0 6 C0 4.02 0 2.04 0 0 Z " fill="#EBB800" transform="translate(204,192)"/>
<path d="M0 0 C1.98 0 3.96 0 6 0 C6 1.98 6 3.96 6 6 C4.02 6 2.04 6 0 6 C0 4.02 0 2.04 0 0 Z " fill="#EBB800" transform="translate(180,192)"/>
<path d="M0 0 C1.98 0 3.96 0 6 0 C6 1.98 6 3.96 6 6 C4.02 6 2.04 6 0 6 C0 4.02 0 2.04 0 0 Z " fill="#EBB800" transform="translate(252,186)"/>
<path d="M0 0 C1.98 0 3.96 0 6 0 C6 1.98 6 3.96 6 6 C4.02 6 2.04 6 0 6 C0 4.02 0 2.04 0 0 Z " fill="#EBB800" transform="translate(222,186)"/>
<path d="M0 0 C1.98 0 3.96 0 6 0 C6 1.98 6 3.96 6 6 C4.02 6 2.04 6 0 6 C0 4.02 0 2.04 0 0 Z " fill="#EBB800" transform="translate(198,186)"/>
<path d="M0 0 C1.98 0 3.96 0 6 0 C6 1.98 6 3.96 6 6 C4.02 6 2.04 6 0 6 C0 4.02 0 2.04 0 0 Z " fill="#F2D601" transform="translate(192,186)"/>
<path d="M0 0 C1.98 0 3.96 0 6 0 C6 1.98 6 3.96 6 6 C4.02 6 2.04 6 0 6 C0 4.02 0 2.04 0 0 Z " fill="#161F2B" transform="translate(180,186)"/>
<path d="M0 0 C1.98 0 3.96 0 6 0 C6 1.98 6 3.96 6 6 C4.02 6 2.04 6 0 6 C0 4.02 0 2.04 0 0 Z " fill="#F2D601" transform="translate(222,180)"/>
<path d="M0 0 C1.98 0 3.96 0 6 0 C6 1.98 6 3.96 6 6 C4.02 6 2.04 6 0 6 C0 4.02 0 2.04 0 0 Z " fill="#161F2B" transform="translate(186,180)"/>
<path d="M0 0 C1.98 0 3.96 0 6 0 C6 1.98 6 3.96 6 6 C4.02 6 2.04 6 0 6 C0 4.02 0 2.04 0 0 Z " fill="#EBB800" transform="translate(246,174)"/>
<path d="M0 0 C1.98 0 3.96 0 6 0 C6 1.98 6 3.96 6 6 C4.02 6 2.04 6 0 6 C0 4.02 0 2.04 0 0 Z " fill="#161F2B" transform="translate(192,174)"/>
<path d="M0 0 C1.98 0 3.96 0 6 0 C6 1.98 6 3.96 6 6 C4.02 6 2.04 6 0 6 C0 4.02 0 2.04 0 0 Z " fill="#703D1F" transform="translate(132,174)"/>
<path d="M0 0 C1.98 0 3.96 0 6 0 C6 1.98 6 3.96 6 6 C4.02 6 2.04 6 0 6 C0 4.02 0 2.04 0 0 Z " fill="#F2D601" transform="translate(222,168)"/>
<path d="M0 0 C1.98 0 3.96 0 6 0 C6 1.98 6 3.96 6 6 C4.02 6 2.04 6 0 6 C0 4.02 0 2.04 0 0 Z " fill="#161F2B" transform="translate(198,168)"/>
<path d="M0 0 C1.98 0 3.96 0 6 0 C6 1.98 6 3.96 6 6 C4.02 6 2.04 6 0 6 C0 4.02 0 2.04 0 0 Z " fill="#703D1F" transform="translate(138,168)"/>
<path d="M0 0 C1.98 0 3.96 0 6 0 C6 1.98 6 3.96 6 6 C4.02 6 2.04 6 0 6 C0 4.02 0 2.04 0 0 Z " fill="#703D1F" transform="translate(108,168)"/>
<path d="M0 0 C1.98 0 3.96 0 6 0 C6 1.98 6 3.96 6 6 C4.02 6 2.04 6 0 6 C0 4.02 0 2.04 0 0 Z " fill="#EBB800" transform="translate(420,162)"/>
<path d="M0 0 C1.98 0 3.96 0 6 0 C6 1.98 6 3.96 6 6 C4.02 6 2.04 6 0 6 C0 4.02 0 2.04 0 0 Z " fill="#EBB800" transform="translate(222,162)"/>
<path d="M0 0 C1.98 0 3.96 0 6 0 C6 1.98 6 3.96 6 6 C4.02 6 2.04 6 0 6 C0 4.02 0 2.04 0 0 Z " fill="#703D1F" transform="translate(216,162)"/>
<path d="M0 0 C1.98 0 3.96 0 6 0 C6 1.98 6 3.96 6 6 C4.02 6 2.04 6 0 6 C0 4.02 0 2.04 0 0 Z " fill="#CB8500" transform="translate(318,156)"/>
<path d="M0 0 C1.98 0 3.96 0 6 0 C6 1.98 6 3.96 6 6 C4.02 6 2.04 6 0 6 C0 4.02 0 2.04 0 0 Z " fill="#EBB800" transform="translate(234,156)"/>
<path d="M0 0 C1.98 0 3.96 0 6 0 C6 1.98 6 3.96 6 6 C4.02 6 2.04 6 0 6 C0 4.02 0 2.04 0 0 Z " fill="#EBB800" transform="translate(414,150)"/>
<path d="M0 0 C1.98 0 3.96 0 6 0 C6 1.98 6 3.96 6 6 C4.02 6 2.04 6 0 6 C0 4.02 0 2.04 0 0 Z " fill="#F2D601" transform="translate(408,150)"/>
<path d="M0 0 C1.98 0 3.96 0 6 0 C6 1.98 6 3.96 6 6 C4.02 6 2.04 6 0 6 C0 4.02 0 2.04 0 0 Z " fill="#EBB800" transform="translate(324,150)"/>
<path d="M0 0 C1.98 0 3.96 0 6 0 C6 1.98 6 3.96 6 6 C4.02 6 2.04 6 0 6 C0 4.02 0 2.04 0 0 Z " fill="#CB8500" transform="translate(300,150)"/>
<path d="M0 0 C1.98 0 3.96 0 6 0 C6 1.98 6 3.96 6 6 C4.02 6 2.04 6 0 6 C0 4.02 0 2.04 0 0 Z " fill="#CB8500" transform="translate(270,150)"/>
<path d="M0 0 C1.98 0 3.96 0 6 0 C6 1.98 6 3.96 6 6 C4.02 6 2.04 6 0 6 C0 4.02 0 2.04 0 0 Z " fill="#161F2B" transform="translate(414,144)"/>
<path d="M0 0 C1.98 0 3.96 0 6 0 C6 1.98 6 3.96 6 6 C4.02 6 2.04 6 0 6 C0 4.02 0 2.04 0 0 Z " fill="#161F2B" transform="translate(408,138)"/>
<path d="M0 0 C1.98 0 3.96 0 6 0 C6 1.98 6 3.96 6 6 C4.02 6 2.04 6 0 6 C0 4.02 0 2.04 0 0 Z " fill="#EBB800" transform="translate(402,138)"/>
<path d="M0 0 C1.98 0 3.96 0 6 0 C6 1.98 6 3.96 6 6 C4.02 6 2.04 6 0 6 C0 4.02 0 2.04 0 0 Z " fill="#F2D601" transform="translate(396,138)"/>
<path d="M0 0 C1.98 0 3.96 0 6 0 C6 1.98 6 3.96 6 6 C4.02 6 2.04 6 0 6 C0 4.02 0 2.04 0 0 Z " fill="#8A6F2B" transform="translate(288,138)"/>
<path d="M0 0 C1.98 0 3.96 0 6 0 C6 1.98 6 3.96 6 6 C4.02 6 2.04 6 0 6 C0 4.02 0 2.04 0 0 Z " fill="#EBB800" transform="translate(78,138)"/>
<path d="M0 0 C1.98 0 3.96 0 6 0 C6 1.98 6 3.96 6 6 C4.02 6 2.04 6 0 6 C0 4.02 0 2.04 0 0 Z " fill="#EBB800" transform="translate(390,132)"/>
<path d="M0 0 C1.98 0 3.96 0 6 0 C6 1.98 6 3.96 6 6 C4.02 6 2.04 6 0 6 C0 4.02 0 2.04 0 0 Z " fill="#F2D601" transform="translate(384,132)"/>
<path d="M0 0 C1.98 0 3.96 0 6 0 C6 1.98 6 3.96 6 6 C4.02 6 2.04 6 0 6 C0 4.02 0 2.04 0 0 Z " fill="#F2D601" transform="translate(366,132)"/>
<path d="M0 0 C1.98 0 3.96 0 6 0 C6 1.98 6 3.96 6 6 C4.02 6 2.04 6 0 6 C0 4.02 0 2.04 0 0 Z " fill="#EBB800" transform="translate(342,132)"/>
<path d="M0 0 C1.98 0 3.96 0 6 0 C6 1.98 6 3.96 6 6 C4.02 6 2.04 6 0 6 C0 4.02 0 2.04 0 0 Z " fill="#F2D601" transform="translate(336,132)"/>
<path d="M0 0 C1.98 0 3.96 0 6 0 C6 1.98 6 3.96 6 6 C4.02 6 2.04 6 0 6 C0 4.02 0 2.04 0 0 Z " fill="#EBB800" transform="translate(288,132)"/>
<path d="M0 0 C1.98 0 3.96 0 6 0 C6 1.98 6 3.96 6 6 C4.02 6 2.04 6 0 6 C0 4.02 0 2.04 0 0 Z " fill="#8A6F2B" transform="translate(282,132)"/>
<path d="M0 0 C1.98 0 3.96 0 6 0 C6 1.98 6 3.96 6 6 C4.02 6 2.04 6 0 6 C0 4.02 0 2.04 0 0 Z " fill="#EBB800" transform="translate(114,132)"/>
<path d="M0 0 C1.98 0 3.96 0 6 0 C6 1.98 6 3.96 6 6 C4.02 6 2.04 6 0 6 C0 4.02 0 2.04 0 0 Z " fill="#F2D601" transform="translate(108,132)"/>
<path d="M0 0 C1.98 0 3.96 0 6 0 C6 1.98 6 3.96 6 6 C4.02 6 2.04 6 0 6 C0 4.02 0 2.04 0 0 Z " fill="#F2D601" transform="translate(78,132)"/>
<path d="M0 0 C1.98 0 3.96 0 6 0 C6 1.98 6 3.96 6 6 C4.02 6 2.04 6 0 6 C0 4.02 0 2.04 0 0 Z " fill="#EBB800" transform="translate(330,126)"/>
<path d="M0 0 C1.98 0 3.96 0 6 0 C6 1.98 6 3.96 6 6 C4.02 6 2.04 6 0 6 C0 4.02 0 2.04 0 0 Z " fill="#F2D601" transform="translate(324,126)"/>
<path d="M0 0 C1.98 0 3.96 0 6 0 C6 1.98 6 3.96 6 6 C4.02 6 2.04 6 0 6 C0 4.02 0 2.04 0 0 Z " fill="#EBB800" transform="translate(90,126)"/>
<path d="M0 0 C1.98 0 3.96 0 6 0 C6 1.98 6 3.96 6 6 C4.02 6 2.04 6 0 6 C0 4.02 0 2.04 0 0 Z " fill="#161F2B" transform="translate(354,120)"/>
<path d="M0 0 C1.98 0 3.96 0 6 0 C6 1.98 6 3.96 6 6 C4.02 6 2.04 6 0 6 C0 4.02 0 2.04 0 0 Z " fill="#A56F01" transform="translate(348,120)"/>
<path d="M0 0 C1.98 0 3.96 0 6 0 C6 1.98 6 3.96 6 6 C4.02 6 2.04 6 0 6 C0 4.02 0 2.04 0 0 Z " fill="#EBB800" transform="translate(306,120)"/>
<path d="M0 0 C1.98 0 3.96 0 6 0 C6 1.98 6 3.96 6 6 C4.02 6 2.04 6 0 6 C0 4.02 0 2.04 0 0 Z " fill="#F2D601" transform="translate(300,120)"/>
<path d="M0 0 C1.98 0 3.96 0 6 0 C6 1.98 6 3.96 6 6 C4.02 6 2.04 6 0 6 C0 4.02 0 2.04 0 0 Z " fill="#F2D601" transform="translate(288,120)"/>
<path d="M0 0 C1.98 0 3.96 0 6 0 C6 1.98 6 3.96 6 6 C4.02 6 2.04 6 0 6 C0 4.02 0 2.04 0 0 Z " fill="#A56F01" transform="translate(336,114)"/>
<path d="M0 0 C1.98 0 3.96 0 6 0 C6 1.98 6 3.96 6 6 C4.02 6 2.04 6 0 6 C0 4.02 0 2.04 0 0 Z " fill="#A56F01" transform="translate(324,108)"/>
<path d="M0 0 C1.98 0 3.96 0 6 0 C6 1.98 6 3.96 6 6 C4.02 6 2.04 6 0 6 C0 4.02 0 2.04 0 0 Z " fill="#8A6F2B" transform="translate(90,108)"/>
<path d="M0 0 C1.98 0 3.96 0 6 0 C6 1.98 6 3.96 6 6 C4.02 6 2.04 6 0 6 C0 4.02 0 2.04 0 0 Z " fill="#EBB800" transform="translate(90,102)"/>
<path d="M0 0 C1.98 0 3.96 0 6 0 C6 1.98 6 3.96 6 6 C4.02 6 2.04 6 0 6 C0 4.02 0 2.04 0 0 Z " fill="#F2D601" transform="translate(90,96)"/>
<path d="M0 0 C1.98 0 3.96 0 6 0 C6 1.98 6 3.96 6 6 C4.02 6 2.04 6 0 6 C0 4.02 0 2.04 0 0 Z " fill="#EBB800" transform="translate(48,96)"/>
<path d="M0 0 C1.98 0 3.96 0 6 0 C6 1.98 6 3.96 6 6 C4.02 6 2.04 6 0 6 C0 4.02 0 2.04 0 0 Z " fill="#F2D601" transform="translate(90,78)"/>
<path d="M0 0 C1.98 0 3.96 0 6 0 C6 1.98 6 3.96 6 6 C4.02 6 2.04 6 0 6 C0 4.02 0 2.04 0 0 Z " fill="#EBB800" transform="translate(90,72)"/>
<path d="M0 0 C1.98 0 3.96 0 6 0 C6 1.98 6 3.96 6 6 C4.02 6 2.04 6 0 6 C0 4.02 0 2.04 0 0 Z " fill="#EBB800" transform="translate(84,66)"/>
<path d="M0 0 C1.98 0 3.96 0 6 0 C6 1.98 6 3.96 6 6 C4.02 6 2.04 6 0 6 C0 4.02 0 2.04 0 0 Z " fill="#F2D601" transform="translate(78,66)"/>
<path d="M0 0 C1.98 0 3.96 0 6 0 C6 1.98 6 3.96 6 6 C4.02 6 2.04 6 0 6 C0 4.02 0 2.04 0 0 Z " fill="#EBB800" transform="translate(66,60)"/>
<path d="M0 0 C1.98 0 3.96 0 6 0 C6 1.98 6 3.96 6 6 C4.02 6 2.04 6 0 6 C0 4.02 0 2.04 0 0 Z " fill="#F2D601" transform="translate(60,60)"/>
<path d="M0 0 C1.98 0 3.96 0 6 0 C6 1.98 6 3.96 6 6 C4.02 6 2.04 6 0 6 C0 4.02 0 2.04 0 0 Z " fill="#EBB800" transform="translate(48,54)"/>
<path d="M0 0 C1.98 0 3.96 0 6 0 C6 1.98 6 3.96 6 6 C4.02 6 2.04 6 0 6 C0 4.02 0 2.04 0 0 Z " fill="#F2D601" transform="translate(42,54)"/>
<path d="M0 0 C1.98 0 3.96 0 6 0 C6 1.98 6 3.96 6 6 C4.02 6 2.04 6 0 6 C0 4.02 0 2.04 0 0 Z " fill="#F2D601" transform="translate(6,54)"/>
<path d="M0 0 C1.98 0 3.96 0 6 0 C6 1.98 6 3.96 6 6 C4.02 6 2.04 6 0 6 C0 4.02 0 2.04 0 0 Z " fill="#EBB800" transform="translate(30,48)"/>
<path d="M0 0 C1.98 0 3.96 0 6 0 C6 1.98 6 3.96 6 6 C4.02 6 2.04 6 0 6 C0 4.02 0 2.04 0 0 Z " fill="#F2D601" transform="translate(24,48)"/>
<path d="M0 0 C1.98 0 3.96 0 6 0 C6 1.98 6 3.96 6 6 C4.02 6 2.04 6 0 6 C0 4.02 0 2.04 0 0 Z " fill="#EBB800" transform="translate(6,48)"/>
</svg>
