<?xml version="1.0" encoding="UTF-8"?>
<svg version="1.1" xmlns="http://www.w3.org/2000/svg" width="22" height="22" viewBox="0 0 468 468">
<path d="M0 0 C5.94 0 11.88 0 18 0 C18 1.98 18 3.96 18 6 C23.94 6 29.88 6 36 6 C36 7.98 36 9.96 36 12 C41.94 12 47.88 12 54 12 C54 13.98 54 15.96 54 18 C59.94 18 65.88 18 72 18 C72 19.98 72 21.96 72 24 C77.94 24 83.88 24 90 24 C90 25.98 90 27.96 90 30 C93.96 30 97.92 30 102 30 C102 31.98 102 33.96 102 36 C103.98 36 105.96 36 108 36 C108 41.94 108 47.88 108 54 C106.02 54 104.04 54 102 54 C102 59.94 102 65.88 102 72 C100.02 72 98.04 72 96 72 C96 73.98 96 75.96 96 78 C107.88 78 119.76 78 132 78 C132 81.96 132 85.92 132 90 C130.02 90 128.04 90 126 90 C126 97.92 126 105.84 126 114 C124.02 114 122.04 114 120 114 C120 115.98 120 117.96 120 120 C131.88 120 143.76 120 156 120 C156 123.96 156 127.92 156 132 C154.02 132 152.04 132 150 132 C150 137.94 150 143.88 150 150 C157.92 150 165.84 150 174 150 C174 148.02 174 146.04 174 144 C175.98 144 177.96 144 180 144 C180 142.02 180 140.04 180 138 C183.96 138 187.92 138 192 138 C192 136.02 192 134.04 192 132 C193.98 132 195.96 132 198 132 C198 130.02 198 128.04 198 126 C203.94 126 209.88 126 216 126 C216 124.02 216 122.04 216 120 C223.92 120 231.84 120 240 120 C240 118.02 240 116.04 240 114 C253.86 114 267.72 114 282 114 C282 112.02 282 110.04 282 108 C289.92 108 297.84 108 306 108 C306 106.02 306 104.04 306 102 C311.94 102 317.88 102 324 102 C324 100.02 324 98.04 324 96 C320.04 96 316.08 96 312 96 C312 94.02 312 92.04 312 90 C306.06 90 300.12 90 294 90 C294 88.02 294 86.04 294 84 C290.04 84 286.08 84 282 84 C282 82.02 282 80.04 282 78 C278.04 78 274.08 78 270 78 C270 76.02 270 74.04 270 72 C266.04 72 262.08 72 258 72 C258 70.02 258 68.04 258 66 C256.02 66 254.04 66 252 66 C252 64.02 252 62.04 252 60 C253.98 60 255.96 60 258 60 C258 58.02 258 56.04 258 54 C263.94 54 269.88 54 276 54 C276 50.04 276 46.08 276 42 C285.9 42 295.8 42 306 42 C306 43.98 306 45.96 306 48 C317.88 48 329.76 48 342 48 C342 49.98 342 51.96 342 54 C347.94 54 353.88 54 360 54 C360 55.98 360 57.96 360 60 C363.96 60 367.92 60 372 60 C372 61.98 372 63.96 372 66 C375.96 66 379.92 66 384 66 C384 67.98 384 69.96 384 72 C389.94 72 395.88 72 402 72 C402 73.98 402 75.96 402 78 C409.92 78 417.84 78 426 78 C426 79.98 426 81.96 426 84 C429.96 84 433.92 84 438 84 C438 85.98 438 87.96 438 90 C439.98 90 441.96 90 444 90 C444 93.96 444 97.92 444 102 C445.98 102 447.96 102 450 102 C450 105.96 450 109.92 450 114 C451.98 114 453.96 114 456 114 C456 121.92 456 129.84 456 138 C457.98 138 459.96 138 462 138 C462 139.98 462 141.96 462 144 C463.98 144 465.96 144 468 144 C468 151.92 468 159.84 468 168 C466.02 168 464.04 168 462 168 C462 171.96 462 175.92 462 180 C460.02 180 458.04 180 456 180 C456 181.98 456 183.96 456 186 C454.02 186 452.04 186 450 186 C450 187.98 450 189.96 450 192 C448.02 192 446.04 192 444 192 C444 193.98 444 195.96 444 198 C447.96 198 451.92 198 456 198 C456 199.98 456 201.96 456 204 C457.98 204 459.96 204 462 204 C462 205.98 462 207.96 462 210 C460.02 210 458.04 210 456 210 C456 211.98 456 213.96 456 216 C454.02 216 452.04 216 450 216 C450 217.98 450 219.96 450 222 C448.02 222 446.04 222 444 222 C444 225.96 444 229.92 444 234 C442.02 234 440.04 234 438 234 C438 235.98 438 237.96 438 240 C418.2 240 398.4 240 378 240 C378 238.02 378 236.04 378 234 C372.06 234 366.12 234 360 234 C360 232.02 360 230.04 360 228 C350.1 228 340.2 228 330 228 C330 229.98 330 231.96 330 234 C324.06 234 318.12 234 312 234 C312 235.98 312 237.96 312 240 C304.08 240 296.16 240 288 240 C288 241.98 288 243.96 288 246 C282.06 246 276.12 246 270 246 C270 247.98 270 249.96 270 252 C260.1 252 250.2 252 240 252 C240 253.98 240 255.96 240 258 C234.06 258 228.12 258 222 258 C222 259.98 222 261.96 222 264 C218.04 264 214.08 264 210 264 C210 265.98 210 267.96 210 270 C206.04 270 202.08 270 198 270 C198 271.98 198 273.96 198 276 C194.04 276 190.08 276 186 276 C186 277.98 186 279.96 186 282 C178.08 282 170.16 282 162 282 C162 280.02 162 278.04 162 276 C158.04 276 154.08 276 150 276 C150 277.98 150 279.96 150 282 C148.02 282 146.04 282 144 282 C144 285.96 144 289.92 144 294 C142.02 294 140.04 294 138 294 C138 299.94 138 305.88 138 312 C134.04 312 130.08 312 126 312 C126 310.02 126 308.04 126 306 C124.02 306 122.04 306 120 306 C120 294.12 120 282.24 120 270 C121.98 270 123.96 270 126 270 C126 266.04 126 262.08 126 258 C129.96 258 133.92 258 138 258 C138 256.02 138 254.04 138 252 C139.98 252 141.96 252 144 252 C144 234.18 144 216.36 144 198 C145.98 198 147.96 198 150 198 C150 192.06 150 186.12 150 180 C151.98 180 153.96 180 156 180 C156 176.04 156 172.08 156 168 C148.08 168 140.16 168 132 168 C132 160.08 132 152.16 132 144 C120.12 144 108.24 144 96 144 C96 138.06 96 132.12 96 126 C97.98 126 99.96 126 102 126 C102 120.06 102 114.12 102 108 C90.12 108 78.24 108 66 108 C66 100.08 66 92.16 66 84 C67.98 84 69.96 84 72 84 C72 80.04 72 76.08 72 72 C50.22 72 28.44 72 6 72 C6 66.06 6 60.12 6 54 C4.02 54 2.04 54 0 54 C0 36.18 0 18.36 0 0 Z M426 126 C426 127.98 426 129.96 426 132 C427.98 132 429.96 132 432 132 C432 130.02 432 128.04 432 126 C430.02 126 428.04 126 426 126 Z " fill="#F7E901" transform="translate(0,30)"/>
<path d="M0 0 C5.94 0 11.88 0 18 0 C18 1.98 18 3.96 18 6 C23.94 6 29.88 6 36 6 C36 7.98 36 9.96 36 12 C41.94 12 47.88 12 54 12 C54 13.98 54 15.96 54 18 C59.94 18 65.88 18 72 18 C72 19.98 72 21.96 72 24 C77.94 24 83.88 24 90 24 C90 25.98 90 27.96 90 30 C93.96 30 97.92 30 102 30 C102 31.98 102 33.96 102 36 C103.98 36 105.96 36 108 36 C108 41.94 108 47.88 108 54 C106.02 54 104.04 54 102 54 C102 59.94 102 65.88 102 72 C100.02 72 98.04 72 96 72 C96 73.98 96 75.96 96 78 C107.88 78 119.76 78 132 78 C132 81.96 132 85.92 132 90 C130.02 90 128.04 90 126 90 C126 97.92 126 105.84 126 114 C124.02 114 122.04 114 120 114 C120 115.98 120 117.96 120 120 C131.88 120 143.76 120 156 120 C156 123.96 156 127.92 156 132 C154.02 132 152.04 132 150 132 C150 137.94 150 143.88 150 150 C157.92 150 165.84 150 174 150 C174 151.98 174 153.96 174 156 C172.02 156 170.04 156 168 156 C168 157.98 168 159.96 168 162 C166.02 162 164.04 162 162 162 C162 167.94 162 173.88 162 180 C160.02 180 158.04 180 156 180 C156 176.04 156 172.08 156 168 C148.08 168 140.16 168 132 168 C132 160.08 132 152.16 132 144 C120.12 144 108.24 144 96 144 C96 138.06 96 132.12 96 126 C97.98 126 99.96 126 102 126 C102 120.06 102 114.12 102 108 C90.12 108 78.24 108 66 108 C66 100.08 66 92.16 66 84 C67.98 84 69.96 84 72 84 C72 80.04 72 76.08 72 72 C50.22 72 28.44 72 6 72 C6 66.06 6 60.12 6 54 C4.02 54 2.04 54 0 54 C0 36.18 0 18.36 0 0 Z " fill="#F7E901" transform="translate(0,30)"/>
<path d="M0 0 C3.96 0 7.92 0 12 0 C12 1.98 12 3.96 12 6 C10.02 6 8.04 6 6 6 C6 7.98 6 9.96 6 12 C7.98 12 9.96 12 12 12 C12 17.94 12 23.88 12 30 C8.04 30 4.08 30 0 30 C0 31.98 0 33.96 0 36 C1.98 36 3.96 36 6 36 C6 39.96 6 43.92 6 48 C4.02 48 2.04 48 0 48 C0 51.96 0 55.92 0 60 C11.88 60 23.76 60 36 60 C36 61.98 36 63.96 36 66 C34.02 66 32.04 66 30 66 C30 67.98 30 69.96 30 72 C28.02 72 26.04 72 24 72 C24 73.98 24 75.96 24 78 C27.96 78 31.92 78 36 78 C36 79.98 36 81.96 36 84 C37.98 84 39.96 84 42 84 C42 85.98 42 87.96 42 90 C40.02 90 38.04 90 36 90 C36 91.98 36 93.96 36 96 C34.02 96 32.04 96 30 96 C30 97.98 30 99.96 30 102 C28.02 102 26.04 102 24 102 C24 105.96 24 109.92 24 114 C22.02 114 20.04 114 18 114 C18 115.98 18 117.96 18 120 C-1.8 120 -21.6 120 -42 120 C-42 118.02 -42 116.04 -42 114 C-47.94 114 -53.88 114 -60 114 C-60 112.02 -60 110.04 -60 108 C-69.9 108 -79.8 108 -90 108 C-90 109.98 -90 111.96 -90 114 C-95.94 114 -101.88 114 -108 114 C-108 115.98 -108 117.96 -108 120 C-115.92 120 -123.84 120 -132 120 C-132 121.98 -132 123.96 -132 126 C-137.94 126 -143.88 126 -150 126 C-150 127.98 -150 129.96 -150 132 C-159.9 132 -169.8 132 -180 132 C-180 133.98 -180 135.96 -180 138 C-185.94 138 -191.88 138 -198 138 C-198 139.98 -198 141.96 -198 144 C-201.96 144 -205.92 144 -210 144 C-210 142.02 -210 140.04 -210 138 C-208.02 138 -206.04 138 -204 138 C-204 132.06 -204 126.12 -204 120 C-202.02 120 -200.04 120 -198 120 C-198 118.02 -198 116.04 -198 114 C-194.04 114 -190.08 114 -186 114 C-186 112.02 -186 110.04 -186 108 C-176.1 108 -166.2 108 -156 108 C-156 106.02 -156 104.04 -156 102 C-146.1 102 -136.2 102 -126 102 C-126 100.02 -126 98.04 -126 96 C-116.1 96 -106.2 96 -96 96 C-96 94.02 -96 92.04 -96 90 C-84.12 90 -72.24 90 -60 90 C-60 91.98 -60 93.96 -60 96 C-54.06 96 -48.12 96 -42 96 C-42 97.98 -42 99.96 -42 102 C-34.08 102 -26.16 102 -18 102 C-18 103.98 -18 105.96 -18 108 C-6.12 108 5.76 108 18 108 C18 104.04 18 100.08 18 96 C14.04 96 10.08 96 6 96 C6 94.02 6 92.04 6 90 C2.04 90 -1.92 90 -6 90 C-6 88.02 -6 86.04 -6 84 C-9.96 84 -13.92 84 -18 84 C-18 82.02 -18 80.04 -18 78 C-21.96 78 -25.92 78 -30 78 C-30 76.02 -30 74.04 -30 72 C-35.94 72 -41.88 72 -48 72 C-48 70.02 -48 68.04 -48 66 C-49.98 66 -51.96 66 -54 66 C-54 64.02 -54 62.04 -54 60 C-44.1 60 -34.2 60 -24 60 C-24 56.04 -24 52.08 -24 48 C-25.98 48 -27.96 48 -30 48 C-30 44.04 -30 40.08 -30 36 C-28.02 36 -26.04 36 -24 36 C-24 34.02 -24 32.04 -24 30 C-22.02 30 -20.04 30 -18 30 C-18 28.02 -18 26.04 -18 24 C-12.06 24 -6.12 24 0 24 C0 16.08 0 8.16 0 0 Z " fill="#EBB800" transform="translate(420,150)"/>
<path d="M0 0 C3.96 0 7.92 0 12 0 C12 1.98 12 3.96 12 6 C10.02 6 8.04 6 6 6 C6 7.98 6 9.96 6 12 C7.98 12 9.96 12 12 12 C12 17.94 12 23.88 12 30 C8.04 30 4.08 30 0 30 C0 31.98 0 33.96 0 36 C1.98 36 3.96 36 6 36 C6 39.96 6 43.92 6 48 C4.02 48 2.04 48 0 48 C0 51.96 0 55.92 0 60 C11.88 60 23.76 60 36 60 C36 61.98 36 63.96 36 66 C34.02 66 32.04 66 30 66 C30 67.98 30 69.96 30 72 C28.02 72 26.04 72 24 72 C24 73.98 24 75.96 24 78 C27.96 78 31.92 78 36 78 C36 79.98 36 81.96 36 84 C37.98 84 39.96 84 42 84 C42 85.98 42 87.96 42 90 C40.02 90 38.04 90 36 90 C36 91.98 36 93.96 36 96 C34.02 96 32.04 96 30 96 C30 97.98 30 99.96 30 102 C28.02 102 26.04 102 24 102 C24 105.96 24 109.92 24 114 C22.02 114 20.04 114 18 114 C18 115.98 18 117.96 18 120 C-1.8 120 -21.6 120 -42 120 C-42 118.02 -42 116.04 -42 114 C-24.18 114 -6.36 114 12 114 C12 112.02 12 110.04 12 108 C13.98 108 15.96 108 18 108 C18 104.04 18 100.08 18 96 C14.04 96 10.08 96 6 96 C6 94.02 6 92.04 6 90 C2.04 90 -1.92 90 -6 90 C-6 88.02 -6 86.04 -6 84 C-9.96 84 -13.92 84 -18 84 C-18 82.02 -18 80.04 -18 78 C-21.96 78 -25.92 78 -30 78 C-30 76.02 -30 74.04 -30 72 C-35.94 72 -41.88 72 -48 72 C-48 70.02 -48 68.04 -48 66 C-49.98 66 -51.96 66 -54 66 C-54 64.02 -54 62.04 -54 60 C-44.1 60 -34.2 60 -24 60 C-24 56.04 -24 52.08 -24 48 C-25.98 48 -27.96 48 -30 48 C-30 44.04 -30 40.08 -30 36 C-28.02 36 -26.04 36 -24 36 C-24 34.02 -24 32.04 -24 30 C-22.02 30 -20.04 30 -18 30 C-18 28.02 -18 26.04 -18 24 C-12.06 24 -6.12 24 0 24 C0 16.08 0 8.16 0 0 Z " fill="#EBB800" transform="translate(420,150)"/>
<path d="M0 0 C9.9 0 19.8 0 30 0 C30 1.98 30 3.96 30 6 C41.88 6 53.76 6 66 6 C66 7.98 66 9.96 66 12 C71.94 12 77.88 12 84 12 C84 13.98 84 15.96 84 18 C87.96 18 91.92 18 96 18 C96 19.98 96 21.96 96 24 C99.96 24 103.92 24 108 24 C108 25.98 108 27.96 108 30 C113.94 30 119.88 30 126 30 C126 31.98 126 33.96 126 36 C120.06 36 114.12 36 108 36 C108 37.98 108 39.96 108 42 C104.04 42 100.08 42 96 42 C96 40.02 96 38.04 96 36 C92.04 36 88.08 36 84 36 C84 34.02 84 32.04 84 30 C78.06 30 72.12 30 66 30 C66 28.02 66 26.04 66 24 C54.12 24 42.24 24 30 24 C30 22.02 30 20.04 30 18 C24.06 18 18.12 18 12 18 C12 19.98 12 21.96 12 24 C13.98 24 15.96 24 18 24 C18 27.96 18 31.92 18 36 C19.98 36 21.96 36 24 36 C24 37.98 24 39.96 24 42 C27.96 42 31.92 42 36 42 C36 43.98 36 45.96 36 48 C30.06 48 24.12 48 18 48 C18 46.02 18 44.04 18 42 C14.04 42 10.08 42 6 42 C6 40.02 6 38.04 6 36 C2.04 36 -1.92 36 -6 36 C-6 34.02 -6 32.04 -6 30 C-9.96 30 -13.92 30 -18 30 C-18 28.02 -18 26.04 -18 24 C-19.98 24 -21.96 24 -24 24 C-24 22.02 -24 20.04 -24 18 C-22.02 18 -20.04 18 -18 18 C-18 16.02 -18 14.04 -18 12 C-12.06 12 -6.12 12 0 12 C0 8.04 0 4.08 0 0 Z " fill="#161F2B" transform="translate(276,72)"/>
<path d="M0 0 C1.98 0 3.96 0 6 0 C6 5.94 6 11.88 6 18 C17.88 18 29.76 18 42 18 C42 21.96 42 25.92 42 30 C43.98 30 45.96 30 48 30 C48 28.02 48 26.04 48 24 C49.98 24 51.96 24 54 24 C54 18.06 54 12.12 54 6 C55.98 6 57.96 6 60 6 C60 13.92 60 21.84 60 30 C58.02 30 56.04 30 54 30 C54 31.98 54 33.96 54 36 C65.88 36 77.76 36 90 36 C90 39.96 90 43.92 90 48 C88.02 48 86.04 48 84 48 C84 53.94 84 59.88 84 66 C91.92 66 99.84 66 108 66 C108 67.98 108 69.96 108 72 C106.02 72 104.04 72 102 72 C102 73.98 102 75.96 102 78 C100.02 78 98.04 78 96 78 C96 83.94 96 89.88 96 96 C94.02 96 92.04 96 90 96 C90 92.04 90 88.08 90 84 C82.08 84 74.16 84 66 84 C66 76.08 66 68.16 66 60 C54.12 60 42.24 60 30 60 C30 54.06 30 48.12 30 42 C31.98 42 33.96 42 36 42 C36 36.06 36 30.12 36 24 C24.12 24 12.24 24 0 24 C0 16.08 0 8.16 0 0 Z " fill="#7E5701" transform="translate(66,114)"/>
<path d="M0 0 C1.98 0 3.96 0 6 0 C6 15.84 6 31.68 6 48 C7.98 48 9.96 48 12 48 C12 53.94 12 59.88 12 66 C17.94 66 23.88 66 30 66 C30 67.98 30 69.96 30 72 C37.92 72 45.84 72 54 72 C54 73.98 54 75.96 54 78 C50.04 78 46.08 78 42 78 C42 79.98 42 81.96 42 84 C34.08 84 26.16 84 18 84 C18 82.02 18 80.04 18 78 C14.04 78 10.08 78 6 78 C6 79.98 6 81.96 6 84 C4.02 84 2.04 84 0 84 C0 87.96 0 91.92 0 96 C-1.98 96 -3.96 96 -6 96 C-6 101.94 -6 107.88 -6 114 C-9.96 114 -13.92 114 -18 114 C-18 112.02 -18 110.04 -18 108 C-19.98 108 -21.96 108 -24 108 C-24 96.12 -24 84.24 -24 72 C-22.02 72 -20.04 72 -18 72 C-18 68.04 -18 64.08 -18 60 C-14.04 60 -10.08 60 -6 60 C-6 58.02 -6 56.04 -6 54 C-4.02 54 -2.04 54 0 54 C0 36.18 0 18.36 0 0 Z " fill="#EBB800" transform="translate(144,228)"/>
<path d="M0 0 C7.92 0 15.84 0 24 0 C24 1.98 24 3.96 24 6 C25.98 6 27.96 6 30 6 C30 7.98 30 9.96 30 12 C20.1 12 10.2 12 0 12 C0 13.98 0 15.96 0 18 C-3.96 18 -7.92 18 -12 18 C-12 19.98 -12 21.96 -12 24 C-21.9 24 -31.8 24 -42 24 C-42 37.86 -42 51.72 -42 66 C-45.96 66 -49.92 66 -54 66 C-54 64.02 -54 62.04 -54 60 C-55.98 60 -57.96 60 -60 60 C-60 56.04 -60 52.08 -60 48 C-61.98 48 -63.96 48 -66 48 C-66 40.08 -66 32.16 -66 24 C-71.94 24 -77.88 24 -84 24 C-84 22.02 -84 20.04 -84 18 C-70.14 18 -56.28 18 -42 18 C-42 16.02 -42 14.04 -42 12 C-34.08 12 -26.16 12 -18 12 C-18 10.02 -18 8.04 -18 6 C-12.06 6 -6.12 6 0 6 C0 4.02 0 2.04 0 0 Z " fill="#7E5701" transform="translate(324,126)"/>
<path d="M0 0 C3.96 0 7.92 0 12 0 C12 1.98 12 3.96 12 6 C15.96 6 19.92 6 24 6 C24 7.98 24 9.96 24 12 C25.98 12 27.96 12 30 12 C30 13.98 30 15.96 30 18 C28.02 18 26.04 18 24 18 C24 19.98 24 21.96 24 24 C22.02 24 20.04 24 18 24 C18 25.98 18 27.96 18 30 C16.02 30 14.04 30 12 30 C12 33.96 12 37.92 12 42 C10.02 42 8.04 42 6 42 C6 43.98 6 45.96 6 48 C-13.8 48 -33.6 48 -54 48 C-54 46.02 -54 44.04 -54 42 C-36.18 42 -18.36 42 0 42 C0 40.02 0 38.04 0 36 C1.98 36 3.96 36 6 36 C6 32.04 6 28.08 6 24 C2.04 24 -1.92 24 -6 24 C-6 22.02 -6 20.04 -6 18 C-9.96 18 -13.92 18 -18 18 C-18 16.02 -18 14.04 -18 12 C-21.96 12 -25.92 12 -30 12 C-30 10.02 -30 8.04 -30 6 C-20.1 6 -10.2 6 0 6 C0 4.02 0 2.04 0 0 Z " fill="#CB8500" transform="translate(432,222)"/>
<path d="M0 0 C5.94 0 11.88 0 18 0 C18 5.94 18 11.88 18 18 C19.98 18 21.96 18 24 18 C24 29.88 24 41.76 24 54 C22.02 54 20.04 54 18 54 C18 52.02 18 50.04 18 48 C16.02 48 14.04 48 12 48 C12 46.02 12 44.04 12 42 C10.02 42 8.04 42 6 42 C6 40.02 6 38.04 6 36 C4.02 36 2.04 36 0 36 C0 32.04 0 28.08 0 24 C-7.92 24 -15.84 24 -24 24 C-24 22.02 -24 20.04 -24 18 C-22.02 18 -20.04 18 -18 18 C-18 16.02 -18 14.04 -18 12 C-14.04 12 -10.08 12 -6 12 C-6 10.02 -6 8.04 -6 6 C-4.02 6 -2.04 6 0 6 C0 4.02 0 2.04 0 0 Z " fill="#7E5701" transform="translate(198,156)"/>
<path d="M0 0 C15.84 0 31.68 0 48 0 C48 1.98 48 3.96 48 6 C51.96 6 55.92 6 60 6 C60 7.98 60 9.96 60 12 C63.96 12 67.92 12 72 12 C72 13.98 72 15.96 72 18 C77.94 18 83.88 18 90 18 C90 19.98 90 21.96 90 24 C84.06 24 78.12 24 72 24 C72 25.98 72 27.96 72 30 C68.04 30 64.08 30 60 30 C60 28.02 60 26.04 60 24 C56.04 24 52.08 24 48 24 C48 22.02 48 20.04 48 18 C42.06 18 36.12 18 30 18 C30 16.02 30 14.04 30 12 C18.12 12 6.24 12 -6 12 C-6 10.02 -6 8.04 -6 6 C-4.02 6 -2.04 6 0 6 C0 4.02 0 2.04 0 0 Z " fill="#8A6F2B" transform="translate(312,84)"/>
<path d="M0 0 C3.96 0 7.92 0 12 0 C12 1.98 12 3.96 12 6 C10.02 6 8.04 6 6 6 C6 7.98 6 9.96 6 12 C7.98 12 9.96 12 12 12 C12 17.94 12 23.88 12 30 C8.04 30 4.08 30 0 30 C0 31.98 0 33.96 0 36 C1.98 36 3.96 36 6 36 C6 39.96 6 43.92 6 48 C4.02 48 2.04 48 0 48 C0 49.98 0 51.96 0 54 C-1.98 54 -3.96 54 -6 54 C-6 55.98 -6 57.96 -6 60 C-9.96 60 -13.92 60 -18 60 C-18 58.02 -18 56.04 -18 54 C-19.98 54 -21.96 54 -24 54 C-24 52.02 -24 50.04 -24 48 C-25.98 48 -27.96 48 -30 48 C-30 44.04 -30 40.08 -30 36 C-28.02 36 -26.04 36 -24 36 C-24 34.02 -24 32.04 -24 30 C-22.02 30 -20.04 30 -18 30 C-18 28.02 -18 26.04 -18 24 C-12.06 24 -6.12 24 0 24 C0 16.08 0 8.16 0 0 Z " fill="#DC0027" transform="translate(420,150)"/>
<path d="M0 0 C1.98 0 3.96 0 6 0 C6 19.8 6 39.6 6 60 C4.02 60 2.04 60 0 60 C0 61.98 0 63.96 0 66 C-3.96 66 -7.92 66 -12 66 C-12 75.9 -12 85.8 -12 96 C-10.02 96 -8.04 96 -6 96 C-6 101.94 -6 107.88 -6 114 C-9.96 114 -13.92 114 -18 114 C-18 112.02 -18 110.04 -18 108 C-19.98 108 -21.96 108 -24 108 C-24 96.12 -24 84.24 -24 72 C-22.02 72 -20.04 72 -18 72 C-18 68.04 -18 64.08 -18 60 C-14.04 60 -10.08 60 -6 60 C-6 58.02 -6 56.04 -6 54 C-4.02 54 -2.04 54 0 54 C0 36.18 0 18.36 0 0 Z " fill="#8A6F2B" transform="translate(144,228)"/>
<path d="M0 0 C3.96 0 7.92 0 12 0 C12 1.98 12 3.96 12 6 C13.98 6 15.96 6 18 6 C18 9.96 18 13.92 18 18 C19.98 18 21.96 18 24 18 C24 21.96 24 25.92 24 30 C25.98 30 27.96 30 30 30 C30 37.92 30 45.84 30 54 C31.98 54 33.96 54 36 54 C36 55.98 36 57.96 36 60 C37.98 60 39.96 60 42 60 C42 67.92 42 75.84 42 84 C40.02 84 38.04 84 36 84 C36 87.96 36 91.92 36 96 C34.02 96 32.04 96 30 96 C30 90.06 30 84.12 30 78 C31.98 78 33.96 78 36 78 C36 74.04 36 70.08 36 66 C32.04 66 28.08 66 24 66 C24 64.02 24 62.04 24 60 C22.02 60 20.04 60 18 60 C18 50.1 18 40.2 18 30 C16.02 30 14.04 30 12 30 C12 26.04 12 22.08 12 18 C10.02 18 8.04 18 6 18 C6 14.04 6 10.08 6 6 C4.02 6 2.04 6 0 6 C0 4.02 0 2.04 0 0 Z " fill="#EBB800" transform="translate(426,114)"/>
<path d="M0 0 C7.92 0 15.84 0 24 0 C24 1.98 24 3.96 24 6 C25.98 6 27.96 6 30 6 C30 7.98 30 9.96 30 12 C20.1 12 10.2 12 0 12 C0 13.98 0 15.96 0 18 C-3.96 18 -7.92 18 -12 18 C-12 19.98 -12 21.96 -12 24 C-21.9 24 -31.8 24 -42 24 C-42 20.04 -42 16.08 -42 12 C-34.08 12 -26.16 12 -18 12 C-18 10.02 -18 8.04 -18 6 C-12.06 6 -6.12 6 0 6 C0 4.02 0 2.04 0 0 Z " fill="#EBB800" transform="translate(324,126)"/>
<path d="M0 0 C3.96 0 7.92 0 12 0 C12 1.98 12 3.96 12 6 C13.98 6 15.96 6 18 6 C18 11.94 18 17.88 18 24 C16.02 24 14.04 24 12 24 C12 29.94 12 35.88 12 42 C10.02 42 8.04 42 6 42 C6 43.98 6 45.96 6 48 C17.88 48 29.76 48 42 48 C42 51.96 42 55.92 42 60 C40.02 60 38.04 60 36 60 C36 58.02 36 56.04 36 54 C24.12 54 12.24 54 0 54 C0 48.06 0 42.12 0 36 C1.98 36 3.96 36 6 36 C6 26.1 6 16.2 6 6 C4.02 6 2.04 6 0 6 C0 4.02 0 2.04 0 0 Z " fill="#161F2B" transform="translate(90,60)"/>
<path d="M0 0 C3.96 0 7.92 0 12 0 C12 1.98 12 3.96 12 6 C17.94 6 23.88 6 30 6 C30 7.98 30 9.96 30 12 C35.94 12 41.88 12 48 12 C48 13.98 48 15.96 48 18 C51.96 18 55.92 18 60 18 C60 21.96 60 25.92 60 30 C58.02 30 56.04 30 54 30 C54 28.02 54 26.04 54 24 C42.12 24 30.24 24 18 24 C18 20.04 18 16.08 18 12 C14.04 12 10.08 12 6 12 C6 10.02 6 8.04 6 6 C4.02 6 2.04 6 0 6 C0 4.02 0 2.04 0 0 Z " fill="#EBB800" transform="translate(294,102)"/>
<path d="M0 0 C1.98 0 3.96 0 6 0 C6 5.94 6 11.88 6 18 C7.98 18 9.96 18 12 18 C12 16.02 12 14.04 12 12 C13.98 12 15.96 12 18 12 C18 10.02 18 8.04 18 6 C25.92 6 33.84 6 42 6 C42 7.98 42 9.96 42 12 C40.02 12 38.04 12 36 12 C36 13.98 36 15.96 36 18 C34.02 18 32.04 18 30 18 C30 23.94 30 29.88 30 36 C28.02 36 26.04 36 24 36 C24 32.04 24 28.08 24 24 C16.08 24 8.16 24 0 24 C0 16.08 0 8.16 0 0 Z " fill="#7E5701" transform="translate(132,174)"/>
<path d="M0 0 C1.98 0 3.96 0 6 0 C6 3.96 6 7.92 6 12 C27.78 12 49.56 12 72 12 C72 17.94 72 23.88 72 30 C70.02 30 68.04 30 66 30 C66 26.04 66 22.08 66 18 C44.22 18 22.44 18 0 18 C0 12.06 0 6.12 0 0 Z " fill="#161F2B" transform="translate(6,84)"/>
<path d="M0 0 C1.98 0 3.96 0 6 0 C6 19.8 6 39.6 6 60 C4.02 60 2.04 60 0 60 C0 61.98 0 63.96 0 66 C-3.96 66 -7.92 66 -12 66 C-12 67.98 -12 69.96 -12 72 C-13.98 72 -15.96 72 -18 72 C-18 68.04 -18 64.08 -18 60 C-14.04 60 -10.08 60 -6 60 C-6 58.02 -6 56.04 -6 54 C-4.02 54 -2.04 54 0 54 C0 36.18 0 18.36 0 0 Z " fill="#161F2B" transform="translate(144,228)"/>
<path d="M0 0 C3.96 0 7.92 0 12 0 C12 1.98 12 3.96 12 6 C15.96 6 19.92 6 24 6 C24 7.98 24 9.96 24 12 C29.94 12 35.88 12 42 12 C42 13.98 42 15.96 42 18 C36.06 18 30.12 18 24 18 C24 19.98 24 21.96 24 24 C20.04 24 16.08 24 12 24 C12 22.02 12 20.04 12 18 C8.04 18 4.08 18 0 18 C0 12.06 0 6.12 0 0 Z " fill="#8A6F2B" transform="translate(360,90)"/>
<path d="M0 0 C1.98 0 3.96 0 6 0 C6 1.98 6 3.96 6 6 C7.98 6 9.96 6 12 6 C12 7.98 12 9.96 12 12 C13.98 12 15.96 12 18 12 C18 13.98 18 15.96 18 18 C19.98 18 21.96 18 24 18 C24 19.98 24 21.96 24 24 C22.02 24 20.04 24 18 24 C18 25.98 18 27.96 18 30 C14.04 30 10.08 30 6 30 C6 28.02 6 26.04 6 24 C4.02 24 2.04 24 0 24 C0 22.02 0 20.04 0 18 C-1.98 18 -3.96 18 -6 18 C-6 14.04 -6 10.08 -6 6 C-4.02 6 -2.04 6 0 6 C0 4.02 0 2.04 0 0 Z " fill="#AB340E" transform="translate(396,180)"/>
<path d="M0 0 C1.98 0 3.96 0 6 0 C6 3.96 6 7.92 6 12 C4.02 12 2.04 12 0 12 C0 13.98 0 15.96 0 18 C-19.8 18 -39.6 18 -60 18 C-60 16.02 -60 14.04 -60 12 C-42.18 12 -24.36 12 -6 12 C-6 10.02 -6 8.04 -6 6 C-4.02 6 -2.04 6 0 6 C0 4.02 0 2.04 0 0 Z " fill="#161F2B" transform="translate(438,252)"/>
<path d="M0 0 C1.98 0 3.96 0 6 0 C6 5.94 6 11.88 6 18 C17.88 18 29.76 18 42 18 C42 25.92 42 33.84 42 42 C40.02 42 38.04 42 36 42 C36 36.06 36 30.12 36 24 C24.12 24 12.24 24 0 24 C0 16.08 0 8.16 0 0 Z " fill="#161F2B" transform="translate(66,114)"/>
<path d="M0 0 C7.92 0 15.84 0 24 0 C24 1.98 24 3.96 24 6 C25.98 6 27.96 6 30 6 C30 7.98 30 9.96 30 12 C14.16 12 -1.68 12 -18 12 C-18 10.02 -18 8.04 -18 6 C-12.06 6 -6.12 6 0 6 C0 4.02 0 2.04 0 0 Z " fill="#EBB800" transform="translate(324,126)"/>
<path d="M0 0 C5.94 0 11.88 0 18 0 C18 1.98 18 3.96 18 6 C14.04 6 10.08 6 6 6 C6 21.84 6 37.68 6 54 C4.02 54 2.04 54 0 54 C0 36.18 0 18.36 0 0 Z " fill="#8A6F2B" transform="translate(0,30)"/>
<path d="M0 0 C3.96 0 7.92 0 12 0 C12 1.98 12 3.96 12 6 C13.98 6 15.96 6 18 6 C18 9.96 18 13.92 18 18 C19.98 18 21.96 18 24 18 C24 21.96 24 25.92 24 30 C20.04 30 16.08 30 12 30 C12 26.04 12 22.08 12 18 C10.02 18 8.04 18 6 18 C6 14.04 6 10.08 6 6 C4.02 6 2.04 6 0 6 C0 4.02 0 2.04 0 0 Z " fill="#F2D601" transform="translate(426,114)"/>
<path d="M0 0 C1.98 0 3.96 0 6 0 C6 3.96 6 7.92 6 12 C9.96 12 13.92 12 18 12 C18 13.98 18 15.96 18 18 C16.02 18 14.04 18 12 18 C12 21.96 12 25.92 12 30 C8.04 30 4.08 30 0 30 C0 20.1 0 10.2 0 0 Z " fill="#EBB800" transform="translate(132,294)"/>
<path d="M0 0 C1.98 0 3.96 0 6 0 C6 1.98 6 3.96 6 6 C7.98 6 9.96 6 12 6 C12 13.92 12 21.84 12 30 C10.02 30 8.04 30 6 30 C6 33.96 6 37.92 6 42 C4.02 42 2.04 42 0 42 C0 36.06 0 30.12 0 24 C1.98 24 3.96 24 6 24 C6 20.04 6 16.08 6 12 C4.02 12 2.04 12 0 12 C0 8.04 0 4.08 0 0 Z " fill="#161F2B" transform="translate(456,168)"/>
<path d="M0 0 C3.96 0 7.92 0 12 0 C12 1.98 12 3.96 12 6 C10.02 6 8.04 6 6 6 C6 7.98 6 9.96 6 12 C7.98 12 9.96 12 12 12 C12 17.94 12 23.88 12 30 C8.04 30 4.08 30 0 30 C0 20.1 0 10.2 0 0 Z " fill="#161F2B" transform="translate(420,150)"/>
<path d="M0 0 C5.94 0 11.88 0 18 0 C18 1.98 18 3.96 18 6 C14.04 6 10.08 6 6 6 C6 7.98 6 9.96 6 12 C4.02 12 2.04 12 0 12 C0 13.98 0 15.96 0 18 C-5.94 18 -11.88 18 -18 18 C-18 16.02 -18 14.04 -18 12 C-14.04 12 -10.08 12 -6 12 C-6 10.02 -6 8.04 -6 6 C-4.02 6 -2.04 6 0 6 C0 4.02 0 2.04 0 0 Z " fill="#703D1F" transform="translate(198,156)"/>
<path d="M0 0 C1.98 0 3.96 0 6 0 C6 3.96 6 7.92 6 12 C15.9 12 25.8 12 36 12 C36 13.98 36 15.96 36 18 C24.12 18 12.24 18 0 18 C0 12.06 0 6.12 0 0 Z " fill="#161F2B" transform="translate(96,156)"/>
<path d="M0 0 C15.84 0 31.68 0 48 0 C48 1.98 48 3.96 48 6 C32.16 6 16.32 6 0 6 C0 4.02 0 2.04 0 0 Z " fill="#CB8500" transform="translate(312,84)"/>
<path d="M0 0 C3.96 0 7.92 0 12 0 C12 1.98 12 3.96 12 6 C13.98 6 15.96 6 18 6 C18 11.94 18 17.88 18 24 C14.04 24 10.08 24 6 24 C6 18.06 6 12.12 6 6 C4.02 6 2.04 6 0 6 C0 4.02 0 2.04 0 0 Z " fill="#F2D601" transform="translate(90,60)"/>
<path d="M0 0 C3.96 0 7.92 0 12 0 C12 1.98 12 3.96 12 6 C15.96 6 19.92 6 24 6 C24 7.98 24 9.96 24 12 C14.1 12 4.2 12 -6 12 C-6 10.02 -6 8.04 -6 6 C-4.02 6 -2.04 6 0 6 C0 4.02 0 2.04 0 0 Z " fill="#161F2B" transform="translate(336,246)"/>
<path d="M0 0 C9.9 0 19.8 0 30 0 C30 1.98 30 3.96 30 6 C28.02 6 26.04 6 24 6 C24 7.98 24 9.96 24 12 C20.04 12 16.08 12 12 12 C12 10.02 12 8.04 12 6 C8.04 6 4.08 6 0 6 C0 4.02 0 2.04 0 0 Z " fill="#8A6F2B" transform="translate(402,228)"/>
<path d="M0 0 C7.92 0 15.84 0 24 0 C24 3.96 24 7.92 24 12 C22.02 12 20.04 12 18 12 C18 10.02 18 8.04 18 6 C14.04 6 10.08 6 6 6 C6 7.98 6 9.96 6 12 C2.04 12 -1.92 12 -6 12 C-6 10.02 -6 8.04 -6 6 C-4.02 6 -2.04 6 0 6 C0 4.02 0 2.04 0 0 Z " fill="#F2D601" transform="translate(174,180)"/>
<path d="M0 0 C1.98 0 3.96 0 6 0 C6 5.94 6 11.88 6 18 C11.94 18 17.88 18 24 18 C24 19.98 24 21.96 24 24 C16.08 24 8.16 24 0 24 C0 16.08 0 8.16 0 0 Z " fill="#161F2B" transform="translate(132,174)"/>
<path d="M0 0 C11.88 0 23.76 0 36 0 C36 3.96 36 7.92 36 12 C34.02 12 32.04 12 30 12 C30 10.02 30 8.04 30 6 C20.1 6 10.2 6 0 6 C0 4.02 0 2.04 0 0 Z " fill="#161F2B" transform="translate(120,150)"/>
<path d="M0 0 C13.86 0 27.72 0 42 0 C42 1.98 42 3.96 42 6 C28.14 6 14.28 6 0 6 C0 4.02 0 2.04 0 0 Z " fill="#161F2B" transform="translate(240,144)"/>
<path d="M0 0 C1.98 0 3.96 0 6 0 C6 11.88 6 23.76 6 36 C4.02 36 2.04 36 0 36 C0 24.12 0 12.24 0 0 Z " fill="#161F2B" transform="translate(120,300)"/>
<path d="M0 0 C3.96 0 7.92 0 12 0 C12 1.98 12 3.96 12 6 C15.96 6 19.92 6 24 6 C24 7.98 24 9.96 24 12 C16.08 12 8.16 12 0 12 C0 8.04 0 4.08 0 0 Z " fill="#A56F01" transform="translate(432,222)"/>
<path d="M0 0 C1.98 0 3.96 0 6 0 C6 7.92 6 15.84 6 24 C4.02 24 2.04 24 0 24 C0 25.98 0 27.96 0 30 C-1.98 30 -3.96 30 -6 30 C-6 26.04 -6 22.08 -6 18 C-4.02 18 -2.04 18 0 18 C0 12.06 0 6.12 0 0 Z " fill="#161F2B" transform="translate(120,120)"/>
<path d="M0 0 C3.96 0 7.92 0 12 0 C12 1.98 12 3.96 12 6 C15.96 6 19.92 6 24 6 C24 7.98 24 9.96 24 12 C16.08 12 8.16 12 0 12 C0 8.04 0 4.08 0 0 Z " fill="#A56F01" transform="translate(360,90)"/>
<path d="M0 0 C9.9 0 19.8 0 30 0 C30 1.98 30 3.96 30 6 C20.1 6 10.2 6 0 6 C0 4.02 0 2.04 0 0 Z " fill="#161F2B" transform="translate(240,276)"/>
<path d="M0 0 C3.96 0 7.92 0 12 0 C12 1.98 12 3.96 12 6 C15.96 6 19.92 6 24 6 C24 7.98 24 9.96 24 12 C18.06 12 12.12 12 6 12 C6 10.02 6 8.04 6 6 C4.02 6 2.04 6 0 6 C0 4.02 0 2.04 0 0 Z " fill="#8A6F2B" transform="translate(366,210)"/>
<path d="M0 0 C3.96 0 7.92 0 12 0 C12 3.96 12 7.92 12 12 C10.02 12 8.04 12 6 12 C6 13.98 6 15.96 6 18 C4.02 18 2.04 18 0 18 C0 12.06 0 6.12 0 0 Z " fill="#EEC700" transform="translate(450,180)"/>
<path d="M0 0 C1.98 0 3.96 0 6 0 C6 9.9 6 19.8 6 30 C4.02 30 2.04 30 0 30 C0 20.1 0 10.2 0 0 Z " fill="#161F2B" transform="translate(0,54)"/>
<path d="M0 0 C1.98 0 3.96 0 6 0 C6 5.94 6 11.88 6 18 C2.04 18 -1.92 18 -6 18 C-6 16.02 -6 14.04 -6 12 C-4.02 12 -2.04 12 0 12 C0 8.04 0 4.08 0 0 Z " fill="#161F2B" transform="translate(132,324)"/>
<path d="M0 0 C7.92 0 15.84 0 24 0 C24 1.98 24 3.96 24 6 C16.08 6 8.16 6 0 6 C0 4.02 0 2.04 0 0 Z " fill="#161F2B" transform="translate(162,306)"/>
<path d="M0 0 C3.96 0 7.92 0 12 0 C12 3.96 12 7.92 12 12 C8.04 12 4.08 12 0 12 C0 8.04 0 4.08 0 0 Z " fill="#F7E901" transform="translate(138,294)"/>
<path d="M0 0 C7.92 0 15.84 0 24 0 C24 1.98 24 3.96 24 6 C16.08 6 8.16 6 0 6 C0 4.02 0 2.04 0 0 Z " fill="#161F2B" transform="translate(288,264)"/>
<path d="M0 0 C3.96 0 7.92 0 12 0 C12 3.96 12 7.92 12 12 C8.04 12 4.08 12 0 12 C0 8.04 0 4.08 0 0 Z " fill="#F2D601" transform="translate(426,246)"/>
<path d="M0 0 C3.96 0 7.92 0 12 0 C12 3.96 12 7.92 12 12 C8.04 12 4.08 12 0 12 C0 8.04 0 4.08 0 0 Z " fill="#A56F01" transform="translate(438,240)"/>
<path d="M0 0 C7.92 0 15.84 0 24 0 C24 1.98 24 3.96 24 6 C16.08 6 8.16 6 0 6 C0 4.02 0 2.04 0 0 Z " fill="#161F2B" transform="translate(150,180)"/>
<path d="M0 0 C7.92 0 15.84 0 24 0 C24 1.98 24 3.96 24 6 C16.08 6 8.16 6 0 6 C0 4.02 0 2.04 0 0 Z " fill="#703D1F" transform="translate(258,150)"/>
<path d="M0 0 C7.92 0 15.84 0 24 0 C24 1.98 24 3.96 24 6 C16.08 6 8.16 6 0 6 C0 4.02 0 2.04 0 0 Z " fill="#161F2B" transform="translate(216,150)"/>
<path d="M0 0 C1.98 0 3.96 0 6 0 C6 7.92 6 15.84 6 24 C4.02 24 2.04 24 0 24 C0 16.08 0 8.16 0 0 Z " fill="#161F2B" transform="translate(450,144)"/>
<path d="M0 0 C3.96 0 7.92 0 12 0 C12 3.96 12 7.92 12 12 C8.04 12 4.08 12 0 12 C0 8.04 0 4.08 0 0 Z " fill="#F2D601" transform="translate(438,132)"/>
<path d="M0 0 C7.92 0 15.84 0 24 0 C24 1.98 24 3.96 24 6 C16.08 6 8.16 6 0 6 C0 4.02 0 2.04 0 0 Z " fill="#161F2B" transform="translate(282,138)"/>
<path d="M0 0 C7.92 0 15.84 0 24 0 C24 1.98 24 3.96 24 6 C16.08 6 8.16 6 0 6 C0 4.02 0 2.04 0 0 Z " fill="#8A6F2B" transform="translate(324,126)"/>
<path d="M0 0 C7.92 0 15.84 0 24 0 C24 1.98 24 3.96 24 6 C16.08 6 8.16 6 0 6 C0 4.02 0 2.04 0 0 Z " fill="#161F2B" transform="translate(402,108)"/>
<path d="M0 0 C3.96 0 7.92 0 12 0 C12 1.98 12 3.96 12 6 C10.02 6 8.04 6 6 6 C6 7.98 6 9.96 6 12 C4.02 12 2.04 12 0 12 C0 8.04 0 4.08 0 0 Z " fill="#161F2B" transform="translate(126,288)"/>
<path d="M0 0 C5.94 0 11.88 0 18 0 C18 1.98 18 3.96 18 6 C12.06 6 6.12 6 0 6 C0 4.02 0 2.04 0 0 Z " fill="#161F2B" transform="translate(222,282)"/>
<path d="M0 0 C3.96 0 7.92 0 12 0 C12 1.98 12 3.96 12 6 C10.02 6 8.04 6 6 6 C6 7.98 6 9.96 6 12 C4.02 12 2.04 12 0 12 C0 8.04 0 4.08 0 0 Z " fill="#8A6F2B" transform="translate(138,282)"/>
<path d="M0 0 C5.94 0 11.88 0 18 0 C18 1.98 18 3.96 18 6 C12.06 6 6.12 6 0 6 C0 4.02 0 2.04 0 0 Z " fill="#161F2B" transform="translate(270,270)"/>
<path d="M0 0 C5.94 0 11.88 0 18 0 C18 1.98 18 3.96 18 6 C12.06 6 6.12 6 0 6 C0 4.02 0 2.04 0 0 Z " fill="#161F2B" transform="translate(360,258)"/>
<path d="M0 0 C5.94 0 11.88 0 18 0 C18 1.98 18 3.96 18 6 C12.06 6 6.12 6 0 6 C0 4.02 0 2.04 0 0 Z " fill="#161F2B" transform="translate(312,258)"/>
<path d="M0 0 C1.98 0 3.96 0 6 0 C6 3.96 6 7.92 6 12 C2.04 12 -1.92 12 -6 12 C-6 10.02 -6 8.04 -6 6 C-4.02 6 -2.04 6 0 6 C0 4.02 0 2.04 0 0 Z " fill="#161F2B" transform="translate(438,252)"/>
<path d="M0 0 C1.98 0 3.96 0 6 0 C6 1.98 6 3.96 6 6 C7.98 6 9.96 6 12 6 C12 7.98 12 9.96 12 12 C8.04 12 4.08 12 0 12 C0 8.04 0 4.08 0 0 Z " fill="#F2D601" transform="translate(360,210)"/>
<path d="M0 0 C1.98 0 3.96 0 6 0 C6 5.94 6 11.88 6 18 C4.02 18 2.04 18 0 18 C0 12.06 0 6.12 0 0 Z " fill="#161F2B" transform="translate(150,210)"/>
<path d="M0 0 C1.98 0 3.96 0 6 0 C6 1.98 6 3.96 6 6 C7.98 6 9.96 6 12 6 C12 7.98 12 9.96 12 12 C8.04 12 4.08 12 0 12 C0 8.04 0 4.08 0 0 Z " fill="#F2D601" transform="translate(198,192)"/>
<path d="M0 0 C3.96 0 7.92 0 12 0 C12 3.96 12 7.92 12 12 C10.02 12 8.04 12 6 12 C6 10.02 6 8.04 6 6 C4.02 6 2.04 6 0 6 C0 4.02 0 2.04 0 0 Z " fill="#EBB800" transform="translate(408,174)"/>
<path d="M0 0 C5.94 0 11.88 0 18 0 C18 1.98 18 3.96 18 6 C12.06 6 6.12 6 0 6 C0 4.02 0 2.04 0 0 Z " fill="#EBB800" transform="translate(174,174)"/>
<path d="M0 0 C1.98 0 3.96 0 6 0 C6 1.98 6 3.96 6 6 C7.98 6 9.96 6 12 6 C12 7.98 12 9.96 12 12 C8.04 12 4.08 12 0 12 C0 8.04 0 4.08 0 0 Z " fill="#6A323F" transform="translate(420,168)"/>
<path d="M0 0 C1.98 0 3.96 0 6 0 C6 5.94 6 11.88 6 18 C4.02 18 2.04 18 0 18 C0 12.06 0 6.12 0 0 Z " fill="#161F2B" transform="translate(144,162)"/>
<path d="M0 0 C5.94 0 11.88 0 18 0 C18 1.98 18 3.96 18 6 C12.06 6 6.12 6 0 6 C0 4.02 0 2.04 0 0 Z " fill="#161F2B" transform="translate(198,156)"/>
<path d="M0 0 C5.94 0 11.88 0 18 0 C18 1.98 18 3.96 18 6 C12.06 6 6.12 6 0 6 C0 4.02 0 2.04 0 0 Z " fill="#EBB800" transform="translate(240,150)"/>
<path d="M0 0 C5.94 0 11.88 0 18 0 C18 1.98 18 3.96 18 6 C12.06 6 6.12 6 0 6 C0 4.02 0 2.04 0 0 Z " fill="#161F2B" transform="translate(306,132)"/>
<path d="M0 0 C1.98 0 3.96 0 6 0 C6 5.94 6 11.88 6 18 C4.02 18 2.04 18 0 18 C0 12.06 0 6.12 0 0 Z " fill="#F2D601" transform="translate(72,114)"/>
<path d="M0 0 C5.94 0 11.88 0 18 0 C18 1.98 18 3.96 18 6 C12.06 6 6.12 6 0 6 C0 4.02 0 2.04 0 0 Z " fill="#F2D601" transform="translate(384,108)"/>
<path d="M0 0 C5.94 0 11.88 0 18 0 C18 1.98 18 3.96 18 6 C12.06 6 6.12 6 0 6 C0 4.02 0 2.04 0 0 Z " fill="#161F2B" transform="translate(384,102)"/>
<path d="M0 0 C5.94 0 11.88 0 18 0 C18 1.98 18 3.96 18 6 C12.06 6 6.12 6 0 6 C0 4.02 0 2.04 0 0 Z " fill="#8A6F2B" transform="translate(360,102)"/>
<path d="M0 0 C5.94 0 11.88 0 18 0 C18 1.98 18 3.96 18 6 C12.06 6 6.12 6 0 6 C0 4.02 0 2.04 0 0 Z " fill="#8A6F2B" transform="translate(342,96)"/>
<path d="M0 0 C5.94 0 11.88 0 18 0 C18 1.98 18 3.96 18 6 C12.06 6 6.12 6 0 6 C0 4.02 0 2.04 0 0 Z " fill="#CB8500" transform="translate(342,90)"/>
<path d="M0 0 C5.94 0 11.88 0 18 0 C18 1.98 18 3.96 18 6 C12.06 6 6.12 6 0 6 C0 4.02 0 2.04 0 0 Z " fill="#F2D601" transform="translate(288,90)"/>
<path d="M0 0 C5.94 0 11.88 0 18 0 C18 1.98 18 3.96 18 6 C12.06 6 6.12 6 0 6 C0 4.02 0 2.04 0 0 Z " fill="#161F2B" transform="translate(342,84)"/>
<path d="M0 0 C5.94 0 11.88 0 18 0 C18 1.98 18 3.96 18 6 C12.06 6 6.12 6 0 6 C0 4.02 0 2.04 0 0 Z " fill="#8A6F2B" transform="translate(288,84)"/>
<path d="M0 0 C1.98 0 3.96 0 6 0 C6 5.94 6 11.88 6 18 C4.02 18 2.04 18 0 18 C0 12.06 0 6.12 0 0 Z " fill="#161F2B" transform="translate(102,66)"/>
<path d="M0 0 C5.94 0 11.88 0 18 0 C18 1.98 18 3.96 18 6 C12.06 6 6.12 6 0 6 C0 4.02 0 2.04 0 0 Z " fill="#161F2B" transform="translate(72,54)"/>
<path d="M0 0 C5.94 0 11.88 0 18 0 C18 1.98 18 3.96 18 6 C12.06 6 6.12 6 0 6 C0 4.02 0 2.04 0 0 Z " fill="#161F2B" transform="translate(54,48)"/>
<path d="M0 0 C5.94 0 11.88 0 18 0 C18 1.98 18 3.96 18 6 C12.06 6 6.12 6 0 6 C0 4.02 0 2.04 0 0 Z " fill="#161F2B" transform="translate(36,42)"/>
<path d="M0 0 C5.94 0 11.88 0 18 0 C18 1.98 18 3.96 18 6 C12.06 6 6.12 6 0 6 C0 4.02 0 2.04 0 0 Z " fill="#161F2B" transform="translate(18,36)"/>
<path d="M0 0 C5.94 0 11.88 0 18 0 C18 1.98 18 3.96 18 6 C12.06 6 6.12 6 0 6 C0 4.02 0 2.04 0 0 Z " fill="#161F2B" transform="translate(0,30)"/>
<path d="M0 0 C1.98 0 3.96 0 6 0 C6 3.96 6 7.92 6 12 C4.02 12 2.04 12 0 12 C0 8.04 0 4.08 0 0 Z " fill="#161F2B" transform="translate(138,312)"/>
<path d="M0 0 C3.96 0 7.92 0 12 0 C12 1.98 12 3.96 12 6 C8.04 6 4.08 6 0 6 C0 4.02 0 2.04 0 0 Z " fill="#161F2B" transform="translate(186,300)"/>
<path d="M0 0 C3.96 0 7.92 0 12 0 C12 1.98 12 3.96 12 6 C8.04 6 4.08 6 0 6 C0 4.02 0 2.04 0 0 Z " fill="#161F2B" transform="translate(150,300)"/>
<path d="M0 0 C1.98 0 3.96 0 6 0 C6 3.96 6 7.92 6 12 C4.02 12 2.04 12 0 12 C0 8.04 0 4.08 0 0 Z " fill="#CB8500" transform="translate(132,294)"/>
<path d="M0 0 C3.96 0 7.92 0 12 0 C12 1.98 12 3.96 12 6 C8.04 6 4.08 6 0 6 C0 4.02 0 2.04 0 0 Z " fill="#161F2B" transform="translate(198,294)"/>
<path d="M0 0 C3.96 0 7.92 0 12 0 C12 1.98 12 3.96 12 6 C8.04 6 4.08 6 0 6 C0 4.02 0 2.04 0 0 Z " fill="#161F2B" transform="translate(210,288)"/>
<path d="M0 0 C3.96 0 7.92 0 12 0 C12 1.98 12 3.96 12 6 C8.04 6 4.08 6 0 6 C0 4.02 0 2.04 0 0 Z " fill="#8A6F2B" transform="translate(336,246)"/>
<path d="M0 0 C3.96 0 7.92 0 12 0 C12 1.98 12 3.96 12 6 C8.04 6 4.08 6 0 6 C0 4.02 0 2.04 0 0 Z " fill="#8A6F2B" transform="translate(426,240)"/>
<path d="M0 0 C3.96 0 7.92 0 12 0 C12 1.98 12 3.96 12 6 C8.04 6 4.08 6 0 6 C0 4.02 0 2.04 0 0 Z " fill="#161F2B" transform="translate(444,228)"/>
<path d="M0 0 C3.96 0 7.92 0 12 0 C12 1.98 12 3.96 12 6 C8.04 6 4.08 6 0 6 C0 4.02 0 2.04 0 0 Z " fill="#8A6F2B" transform="translate(390,222)"/>
<path d="M0 0 C3.96 0 7.92 0 12 0 C12 1.98 12 3.96 12 6 C8.04 6 4.08 6 0 6 C0 4.02 0 2.04 0 0 Z " fill="#CB8500" transform="translate(366,210)"/>
<path d="M0 0 C1.98 0 3.96 0 6 0 C6 3.96 6 7.92 6 12 C4.02 12 2.04 12 0 12 C0 8.04 0 4.08 0 0 Z " fill="#F2D601" transform="translate(420,198)"/>
<path d="M0 0 C3.96 0 7.92 0 12 0 C12 1.98 12 3.96 12 6 C8.04 6 4.08 6 0 6 C0 4.02 0 2.04 0 0 Z " fill="#DC0027" transform="translate(402,204)"/>
<path d="M0 0 C1.98 0 3.96 0 6 0 C6 3.96 6 7.92 6 12 C4.02 12 2.04 12 0 12 C0 8.04 0 4.08 0 0 Z " fill="#F2D601" transform="translate(390,198)"/>
<path d="M0 0 C1.98 0 3.96 0 6 0 C6 3.96 6 7.92 6 12 C4.02 12 2.04 12 0 12 C0 8.04 0 4.08 0 0 Z " fill="#161F2B" transform="translate(456,198)"/>
<path d="M0 0 C1.98 0 3.96 0 6 0 C6 3.96 6 7.92 6 12 C4.02 12 2.04 12 0 12 C0 8.04 0 4.08 0 0 Z " fill="#161F2B" transform="translate(156,198)"/>
<path d="M0 0 C3.96 0 7.92 0 12 0 C12 1.98 12 3.96 12 6 C8.04 6 4.08 6 0 6 C0 4.02 0 2.04 0 0 Z " fill="#161F2B" transform="translate(180,168)"/>
<path d="M0 0 C1.98 0 3.96 0 6 0 C6 3.96 6 7.92 6 12 C4.02 12 2.04 12 0 12 C0 8.04 0 4.08 0 0 Z " fill="#703D1F" transform="translate(102,156)"/>
<path d="M0 0 C1.98 0 3.96 0 6 0 C6 3.96 6 7.92 6 12 C4.02 12 2.04 12 0 12 C0 8.04 0 4.08 0 0 Z " fill="#F2D601" transform="translate(444,144)"/>
<path d="M0 0 C1.98 0 3.96 0 6 0 C6 3.96 6 7.92 6 12 C4.02 12 2.04 12 0 12 C0 8.04 0 4.08 0 0 Z " fill="#161F2B" transform="translate(444,132)"/>
<path d="M0 0 C1.98 0 3.96 0 6 0 C6 3.96 6 7.92 6 12 C4.02 12 2.04 12 0 12 C0 8.04 0 4.08 0 0 Z " fill="#161F2B" transform="translate(438,120)"/>
<path d="M0 0 C3.96 0 7.92 0 12 0 C12 1.98 12 3.96 12 6 C8.04 6 4.08 6 0 6 C0 4.02 0 2.04 0 0 Z " fill="#161F2B" transform="translate(312,120)"/>
<path d="M0 0 C3.96 0 7.92 0 12 0 C12 1.98 12 3.96 12 6 C8.04 6 4.08 6 0 6 C0 4.02 0 2.04 0 0 Z " fill="#161F2B" transform="translate(426,114)"/>
<path d="M0 0 C3.96 0 7.92 0 12 0 C12 1.98 12 3.96 12 6 C8.04 6 4.08 6 0 6 C0 4.02 0 2.04 0 0 Z " fill="#161F2B" transform="translate(372,96)"/>
<path d="M0 0 C3.96 0 7.92 0 12 0 C12 1.98 12 3.96 12 6 C8.04 6 4.08 6 0 6 C0 4.02 0 2.04 0 0 Z " fill="#161F2B" transform="translate(360,90)"/>
<path d="M0 0 C3.96 0 7.92 0 12 0 C12 1.98 12 3.96 12 6 C8.04 6 4.08 6 0 6 C0 4.02 0 2.04 0 0 Z " fill="#161F2B" transform="translate(90,60)"/>
<path d="M0 0 C3.96 0 7.92 0 12 0 C12 1.98 12 3.96 12 6 C8.04 6 4.08 6 0 6 C0 4.02 0 2.04 0 0 Z " fill="#EBB800" transform="translate(6,36)"/>
<path d="M0 0 C1.98 0 3.96 0 6 0 C6 1.98 6 3.96 6 6 C4.02 6 2.04 6 0 6 C0 4.02 0 2.04 0 0 Z " fill="#703D1F" transform="translate(126,330)"/>
<path d="M0 0 C1.98 0 3.96 0 6 0 C6 1.98 6 3.96 6 6 C4.02 6 2.04 6 0 6 C0 4.02 0 2.04 0 0 Z " fill="#CB8500" transform="translate(132,318)"/>
<path d="M0 0 C1.98 0 3.96 0 6 0 C6 1.98 6 3.96 6 6 C4.02 6 2.04 6 0 6 C0 4.02 0 2.04 0 0 Z " fill="#161F2B" transform="translate(144,306)"/>
<path d="M0 0 C1.98 0 3.96 0 6 0 C6 1.98 6 3.96 6 6 C4.02 6 2.04 6 0 6 C0 4.02 0 2.04 0 0 Z " fill="#CB8500" transform="translate(138,306)"/>
<path d="M0 0 C1.98 0 3.96 0 6 0 C6 1.98 6 3.96 6 6 C4.02 6 2.04 6 0 6 C0 4.02 0 2.04 0 0 Z " fill="#CB8500" transform="translate(180,300)"/>
<path d="M0 0 C1.98 0 3.96 0 6 0 C6 1.98 6 3.96 6 6 C4.02 6 2.04 6 0 6 C0 4.02 0 2.04 0 0 Z " fill="#CB8500" transform="translate(162,300)"/>
<path d="M0 0 C1.98 0 3.96 0 6 0 C6 1.98 6 3.96 6 6 C4.02 6 2.04 6 0 6 C0 4.02 0 2.04 0 0 Z " fill="#EBB800" transform="translate(144,300)"/>
<path d="M0 0 C1.98 0 3.96 0 6 0 C6 1.98 6 3.96 6 6 C4.02 6 2.04 6 0 6 C0 4.02 0 2.04 0 0 Z " fill="#F7E901" transform="translate(138,300)"/>
<path d="M0 0 C1.98 0 3.96 0 6 0 C6 1.98 6 3.96 6 6 C4.02 6 2.04 6 0 6 C0 4.02 0 2.04 0 0 Z " fill="#703D1F" transform="translate(126,300)"/>
<path d="M0 0 C1.98 0 3.96 0 6 0 C6 1.98 6 3.96 6 6 C4.02 6 2.04 6 0 6 C0 4.02 0 2.04 0 0 Z " fill="#EBB800" transform="translate(192,294)"/>
<path d="M0 0 C1.98 0 3.96 0 6 0 C6 1.98 6 3.96 6 6 C4.02 6 2.04 6 0 6 C0 4.02 0 2.04 0 0 Z " fill="#F2D601" transform="translate(186,294)"/>
<path d="M0 0 C1.98 0 3.96 0 6 0 C6 1.98 6 3.96 6 6 C4.02 6 2.04 6 0 6 C0 4.02 0 2.04 0 0 Z " fill="#F2D601" transform="translate(174,294)"/>
<path d="M0 0 C1.98 0 3.96 0 6 0 C6 1.98 6 3.96 6 6 C4.02 6 2.04 6 0 6 C0 4.02 0 2.04 0 0 Z " fill="#EBB800" transform="translate(138,294)"/>
<path d="M0 0 C1.98 0 3.96 0 6 0 C6 1.98 6 3.96 6 6 C4.02 6 2.04 6 0 6 C0 4.02 0 2.04 0 0 Z " fill="#8A6F2B" transform="translate(132,294)"/>
<path d="M0 0 C1.98 0 3.96 0 6 0 C6 1.98 6 3.96 6 6 C4.02 6 2.04 6 0 6 C0 4.02 0 2.04 0 0 Z " fill="#EBB800" transform="translate(204,288)"/>
<path d="M0 0 C1.98 0 3.96 0 6 0 C6 1.98 6 3.96 6 6 C4.02 6 2.04 6 0 6 C0 4.02 0 2.04 0 0 Z " fill="#F2D601" transform="translate(198,288)"/>
<path d="M0 0 C1.98 0 3.96 0 6 0 C6 1.98 6 3.96 6 6 C4.02 6 2.04 6 0 6 C0 4.02 0 2.04 0 0 Z " fill="#CB8500" transform="translate(144,288)"/>
<path d="M0 0 C1.98 0 3.96 0 6 0 C6 1.98 6 3.96 6 6 C4.02 6 2.04 6 0 6 C0 4.02 0 2.04 0 0 Z " fill="#8A6F2B" transform="translate(138,288)"/>
<path d="M0 0 C1.98 0 3.96 0 6 0 C6 1.98 6 3.96 6 6 C4.02 6 2.04 6 0 6 C0 4.02 0 2.04 0 0 Z " fill="#CB8500" transform="translate(216,282)"/>
<path d="M0 0 C1.98 0 3.96 0 6 0 C6 1.98 6 3.96 6 6 C4.02 6 2.04 6 0 6 C0 4.02 0 2.04 0 0 Z " fill="#EBB800" transform="translate(210,282)"/>
<path d="M0 0 C1.98 0 3.96 0 6 0 C6 1.98 6 3.96 6 6 C4.02 6 2.04 6 0 6 C0 4.02 0 2.04 0 0 Z " fill="#F2D601" transform="translate(204,282)"/>
<path d="M0 0 C1.98 0 3.96 0 6 0 C6 1.98 6 3.96 6 6 C4.02 6 2.04 6 0 6 C0 4.02 0 2.04 0 0 Z " fill="#161F2B" transform="translate(138,282)"/>
<path d="M0 0 C1.98 0 3.96 0 6 0 C6 1.98 6 3.96 6 6 C4.02 6 2.04 6 0 6 C0 4.02 0 2.04 0 0 Z " fill="#CB8500" transform="translate(234,276)"/>
<path d="M0 0 C1.98 0 3.96 0 6 0 C6 1.98 6 3.96 6 6 C4.02 6 2.04 6 0 6 C0 4.02 0 2.04 0 0 Z " fill="#F2D601" transform="translate(210,276)"/>
<path d="M0 0 C1.98 0 3.96 0 6 0 C6 1.98 6 3.96 6 6 C4.02 6 2.04 6 0 6 C0 4.02 0 2.04 0 0 Z " fill="#CB8500" transform="translate(264,270)"/>
<path d="M0 0 C1.98 0 3.96 0 6 0 C6 1.98 6 3.96 6 6 C4.02 6 2.04 6 0 6 C0 4.02 0 2.04 0 0 Z " fill="#CB8500" transform="translate(282,264)"/>
<path d="M0 0 C1.98 0 3.96 0 6 0 C6 1.98 6 3.96 6 6 C4.02 6 2.04 6 0 6 C0 4.02 0 2.04 0 0 Z " fill="#8A6F2B" transform="translate(432,258)"/>
<path d="M0 0 C1.98 0 3.96 0 6 0 C6 1.98 6 3.96 6 6 C4.02 6 2.04 6 0 6 C0 4.02 0 2.04 0 0 Z " fill="#CB8500" transform="translate(426,258)"/>
<path d="M0 0 C1.98 0 3.96 0 6 0 C6 1.98 6 3.96 6 6 C4.02 6 2.04 6 0 6 C0 4.02 0 2.04 0 0 Z " fill="#CB8500" transform="translate(378,258)"/>
<path d="M0 0 C1.98 0 3.96 0 6 0 C6 1.98 6 3.96 6 6 C4.02 6 2.04 6 0 6 C0 4.02 0 2.04 0 0 Z " fill="#CB8500" transform="translate(306,258)"/>
<path d="M0 0 C1.98 0 3.96 0 6 0 C6 1.98 6 3.96 6 6 C4.02 6 2.04 6 0 6 C0 4.02 0 2.04 0 0 Z " fill="#CB8500" transform="translate(432,252)"/>
<path d="M0 0 C1.98 0 3.96 0 6 0 C6 1.98 6 3.96 6 6 C4.02 6 2.04 6 0 6 C0 4.02 0 2.04 0 0 Z " fill="#F2D601" transform="translate(402,252)"/>
<path d="M0 0 C1.98 0 3.96 0 6 0 C6 1.98 6 3.96 6 6 C4.02 6 2.04 6 0 6 C0 4.02 0 2.04 0 0 Z " fill="#CB8500" transform="translate(360,252)"/>
<path d="M0 0 C1.98 0 3.96 0 6 0 C6 1.98 6 3.96 6 6 C4.02 6 2.04 6 0 6 C0 4.02 0 2.04 0 0 Z " fill="#CB8500" transform="translate(324,252)"/>
<path d="M0 0 C1.98 0 3.96 0 6 0 C6 1.98 6 3.96 6 6 C4.02 6 2.04 6 0 6 C0 4.02 0 2.04 0 0 Z " fill="#161F2B" transform="translate(444,246)"/>
<path d="M0 0 C1.98 0 3.96 0 6 0 C6 1.98 6 3.96 6 6 C4.02 6 2.04 6 0 6 C0 4.02 0 2.04 0 0 Z " fill="#8A6F2B" transform="translate(438,246)"/>
<path d="M0 0 C1.98 0 3.96 0 6 0 C6 1.98 6 3.96 6 6 C4.02 6 2.04 6 0 6 C0 4.02 0 2.04 0 0 Z " fill="#EBB800" transform="translate(432,246)"/>
<path d="M0 0 C1.98 0 3.96 0 6 0 C6 1.98 6 3.96 6 6 C4.02 6 2.04 6 0 6 C0 4.02 0 2.04 0 0 Z " fill="#161F2B" transform="translate(450,240)"/>
<path d="M0 0 C1.98 0 3.96 0 6 0 C6 1.98 6 3.96 6 6 C4.02 6 2.04 6 0 6 C0 4.02 0 2.04 0 0 Z " fill="#EBB800" transform="translate(420,240)"/>
<path d="M0 0 C1.98 0 3.96 0 6 0 C6 1.98 6 3.96 6 6 C4.02 6 2.04 6 0 6 C0 4.02 0 2.04 0 0 Z " fill="#F2D601" transform="translate(414,240)"/>
<path d="M0 0 C1.98 0 3.96 0 6 0 C6 1.98 6 3.96 6 6 C4.02 6 2.04 6 0 6 C0 4.02 0 2.04 0 0 Z " fill="#F2D601" transform="translate(318,240)"/>
<path d="M0 0 C1.98 0 3.96 0 6 0 C6 1.98 6 3.96 6 6 C4.02 6 2.04 6 0 6 C0 4.02 0 2.04 0 0 Z " fill="#161F2B" transform="translate(456,234)"/>
<path d="M0 0 C1.98 0 3.96 0 6 0 C6 1.98 6 3.96 6 6 C4.02 6 2.04 6 0 6 C0 4.02 0 2.04 0 0 Z " fill="#A56F01" transform="translate(450,234)"/>
<path d="M0 0 C1.98 0 3.96 0 6 0 C6 1.98 6 3.96 6 6 C4.02 6 2.04 6 0 6 C0 4.02 0 2.04 0 0 Z " fill="#A56F01" transform="translate(426,234)"/>
<path d="M0 0 C1.98 0 3.96 0 6 0 C6 1.98 6 3.96 6 6 C4.02 6 2.04 6 0 6 C0 4.02 0 2.04 0 0 Z " fill="#EBB800" transform="translate(408,234)"/>
<path d="M0 0 C1.98 0 3.96 0 6 0 C6 1.98 6 3.96 6 6 C4.02 6 2.04 6 0 6 C0 4.02 0 2.04 0 0 Z " fill="#F2D601" transform="translate(402,234)"/>
<path d="M0 0 C1.98 0 3.96 0 6 0 C6 1.98 6 3.96 6 6 C4.02 6 2.04 6 0 6 C0 4.02 0 2.04 0 0 Z " fill="#EBB800" transform="translate(396,228)"/>
<path d="M0 0 C1.98 0 3.96 0 6 0 C6 1.98 6 3.96 6 6 C4.02 6 2.04 6 0 6 C0 4.02 0 2.04 0 0 Z " fill="#F2D601" transform="translate(390,228)"/>
<path d="M0 0 C1.98 0 3.96 0 6 0 C6 1.98 6 3.96 6 6 C4.02 6 2.04 6 0 6 C0 4.02 0 2.04 0 0 Z " fill="#161F2B" transform="translate(438,222)"/>
<path d="M0 0 C1.98 0 3.96 0 6 0 C6 1.98 6 3.96 6 6 C4.02 6 2.04 6 0 6 C0 4.02 0 2.04 0 0 Z " fill="#8A6F2B" transform="translate(432,222)"/>
<path d="M0 0 C1.98 0 3.96 0 6 0 C6 1.98 6 3.96 6 6 C4.02 6 2.04 6 0 6 C0 4.02 0 2.04 0 0 Z " fill="#CB8500" transform="translate(426,222)"/>
<path d="M0 0 C1.98 0 3.96 0 6 0 C6 1.98 6 3.96 6 6 C4.02 6 2.04 6 0 6 C0 4.02 0 2.04 0 0 Z " fill="#CB8500" transform="translate(402,222)"/>
<path d="M0 0 C1.98 0 3.96 0 6 0 C6 1.98 6 3.96 6 6 C4.02 6 2.04 6 0 6 C0 4.02 0 2.04 0 0 Z " fill="#EBB800" transform="translate(384,222)"/>
<path d="M0 0 C1.98 0 3.96 0 6 0 C6 1.98 6 3.96 6 6 C4.02 6 2.04 6 0 6 C0 4.02 0 2.04 0 0 Z " fill="#F2D601" transform="translate(378,222)"/>
<path d="M0 0 C1.98 0 3.96 0 6 0 C6 1.98 6 3.96 6 6 C4.02 6 2.04 6 0 6 C0 4.02 0 2.04 0 0 Z " fill="#161F2B" transform="translate(444,216)"/>
<path d="M0 0 C1.98 0 3.96 0 6 0 C6 1.98 6 3.96 6 6 C4.02 6 2.04 6 0 6 C0 4.02 0 2.04 0 0 Z " fill="#CB8500" transform="translate(438,216)"/>
<path d="M0 0 C1.98 0 3.96 0 6 0 C6 1.98 6 3.96 6 6 C4.02 6 2.04 6 0 6 C0 4.02 0 2.04 0 0 Z " fill="#CB8500" transform="translate(390,216)"/>
<path d="M0 0 C1.98 0 3.96 0 6 0 C6 1.98 6 3.96 6 6 C4.02 6 2.04 6 0 6 C0 4.02 0 2.04 0 0 Z " fill="#EBB800" transform="translate(366,216)"/>
<path d="M0 0 C1.98 0 3.96 0 6 0 C6 1.98 6 3.96 6 6 C4.02 6 2.04 6 0 6 C0 4.02 0 2.04 0 0 Z " fill="#161F2B" transform="translate(450,210)"/>
<path d="M0 0 C1.98 0 3.96 0 6 0 C6 1.98 6 3.96 6 6 C4.02 6 2.04 6 0 6 C0 4.02 0 2.04 0 0 Z " fill="#CB8500" transform="translate(444,210)"/>
<path d="M0 0 C1.98 0 3.96 0 6 0 C6 1.98 6 3.96 6 6 C4.02 6 2.04 6 0 6 C0 4.02 0 2.04 0 0 Z " fill="#8A6F2B" transform="translate(366,210)"/>
<path d="M0 0 C1.98 0 3.96 0 6 0 C6 1.98 6 3.96 6 6 C4.02 6 2.04 6 0 6 C0 4.02 0 2.04 0 0 Z " fill="#CB8500" transform="translate(360,210)"/>
<path d="M0 0 C1.98 0 3.96 0 6 0 C6 1.98 6 3.96 6 6 C4.02 6 2.04 6 0 6 C0 4.02 0 2.04 0 0 Z " fill="#CB8500" transform="translate(450,204)"/>
<path d="M0 0 C1.98 0 3.96 0 6 0 C6 1.98 6 3.96 6 6 C4.02 6 2.04 6 0 6 C0 4.02 0 2.04 0 0 Z " fill="#EBB800" transform="translate(444,204)"/>
<path d="M0 0 C1.98 0 3.96 0 6 0 C6 1.98 6 3.96 6 6 C4.02 6 2.04 6 0 6 C0 4.02 0 2.04 0 0 Z " fill="#F2D601" transform="translate(438,204)"/>
<path d="M0 0 C1.98 0 3.96 0 6 0 C6 1.98 6 3.96 6 6 C4.02 6 2.04 6 0 6 C0 4.02 0 2.04 0 0 Z " fill="#EBB800" transform="translate(210,204)"/>
<path d="M0 0 C1.98 0 3.96 0 6 0 C6 1.98 6 3.96 6 6 C4.02 6 2.04 6 0 6 C0 4.02 0 2.04 0 0 Z " fill="#F2D601" transform="translate(204,204)"/>
<path d="M0 0 C1.98 0 3.96 0 6 0 C6 1.98 6 3.96 6 6 C4.02 6 2.04 6 0 6 C0 4.02 0 2.04 0 0 Z " fill="#F2D601" transform="translate(450,198)"/>
<path d="M0 0 C1.98 0 3.96 0 6 0 C6 1.98 6 3.96 6 6 C4.02 6 2.04 6 0 6 C0 4.02 0 2.04 0 0 Z " fill="#EBB800" transform="translate(420,198)"/>
<path d="M0 0 C1.98 0 3.96 0 6 0 C6 1.98 6 3.96 6 6 C4.02 6 2.04 6 0 6 C0 4.02 0 2.04 0 0 Z " fill="#EBB800" transform="translate(390,198)"/>
<path d="M0 0 C1.98 0 3.96 0 6 0 C6 1.98 6 3.96 6 6 C4.02 6 2.04 6 0 6 C0 4.02 0 2.04 0 0 Z " fill="#EBB800" transform="translate(204,198)"/>
<path d="M0 0 C1.98 0 3.96 0 6 0 C6 1.98 6 3.96 6 6 C4.02 6 2.04 6 0 6 C0 4.02 0 2.04 0 0 Z " fill="#8A6F2B" transform="translate(456,192)"/>
<path d="M0 0 C1.98 0 3.96 0 6 0 C6 1.98 6 3.96 6 6 C4.02 6 2.04 6 0 6 C0 4.02 0 2.04 0 0 Z " fill="#CB8500" transform="translate(450,192)"/>
<path d="M0 0 C1.98 0 3.96 0 6 0 C6 1.98 6 3.96 6 6 C4.02 6 2.04 6 0 6 C0 4.02 0 2.04 0 0 Z " fill="#EBB800" transform="translate(198,192)"/>
<path d="M0 0 C1.98 0 3.96 0 6 0 C6 1.98 6 3.96 6 6 C4.02 6 2.04 6 0 6 C0 4.02 0 2.04 0 0 Z " fill="#EBB800" transform="translate(162,192)"/>
<path d="M0 0 C1.98 0 3.96 0 6 0 C6 1.98 6 3.96 6 6 C4.02 6 2.04 6 0 6 C0 4.02 0 2.04 0 0 Z " fill="#694118" transform="translate(156,192)"/>
<path d="M0 0 C1.98 0 3.96 0 6 0 C6 1.98 6 3.96 6 6 C4.02 6 2.04 6 0 6 C0 4.02 0 2.04 0 0 Z " fill="#E86D48" transform="translate(420,186)"/>
<path d="M0 0 C1.98 0 3.96 0 6 0 C6 1.98 6 3.96 6 6 C4.02 6 2.04 6 0 6 C0 4.02 0 2.04 0 0 Z " fill="#EBB800" transform="translate(264,186)"/>
<path d="M0 0 C1.98 0 3.96 0 6 0 C6 1.98 6 3.96 6 6 C4.02 6 2.04 6 0 6 C0 4.02 0 2.04 0 0 Z " fill="#F2D601" transform="translate(192,186)"/>
<path d="M0 0 C1.98 0 3.96 0 6 0 C6 1.98 6 3.96 6 6 C4.02 6 2.04 6 0 6 C0 4.02 0 2.04 0 0 Z " fill="#EBB800" transform="translate(168,186)"/>
<path d="M0 0 C1.98 0 3.96 0 6 0 C6 1.98 6 3.96 6 6 C4.02 6 2.04 6 0 6 C0 4.02 0 2.04 0 0 Z " fill="#694118" transform="translate(162,186)"/>
<path d="M0 0 C1.98 0 3.96 0 6 0 C6 1.98 6 3.96 6 6 C4.02 6 2.04 6 0 6 C0 4.02 0 2.04 0 0 Z " fill="#703D1F" transform="translate(138,186)"/>
<path d="M0 0 C1.98 0 3.96 0 6 0 C6 1.98 6 3.96 6 6 C4.02 6 2.04 6 0 6 C0 4.02 0 2.04 0 0 Z " fill="#EBB800" transform="translate(420,180)"/>
<path d="M0 0 C1.98 0 3.96 0 6 0 C6 1.98 6 3.96 6 6 C4.02 6 2.04 6 0 6 C0 4.02 0 2.04 0 0 Z " fill="#E86D48" transform="translate(414,180)"/>
<path d="M0 0 C1.98 0 3.96 0 6 0 C6 1.98 6 3.96 6 6 C4.02 6 2.04 6 0 6 C0 4.02 0 2.04 0 0 Z " fill="#EBB800" transform="translate(390,180)"/>
<path d="M0 0 C1.98 0 3.96 0 6 0 C6 1.98 6 3.96 6 6 C4.02 6 2.04 6 0 6 C0 4.02 0 2.04 0 0 Z " fill="#EBB800" transform="translate(192,180)"/>
<path d="M0 0 C1.98 0 3.96 0 6 0 C6 1.98 6 3.96 6 6 C4.02 6 2.04 6 0 6 C0 4.02 0 2.04 0 0 Z " fill="#EBB800" transform="translate(174,180)"/>
<path d="M0 0 C1.98 0 3.96 0 6 0 C6 1.98 6 3.96 6 6 C4.02 6 2.04 6 0 6 C0 4.02 0 2.04 0 0 Z " fill="#703D1F" transform="translate(144,180)"/>
<path d="M0 0 C1.98 0 3.96 0 6 0 C6 1.98 6 3.96 6 6 C4.02 6 2.04 6 0 6 C0 4.02 0 2.04 0 0 Z " fill="#EBB800" transform="translate(450,174)"/>
<path d="M0 0 C1.98 0 3.96 0 6 0 C6 1.98 6 3.96 6 6 C4.02 6 2.04 6 0 6 C0 4.02 0 2.04 0 0 Z " fill="#F2D601" transform="translate(444,174)"/>
<path d="M0 0 C1.98 0 3.96 0 6 0 C6 1.98 6 3.96 6 6 C4.02 6 2.04 6 0 6 C0 4.02 0 2.04 0 0 Z " fill="#D04A66" transform="translate(426,174)"/>
<path d="M0 0 C1.98 0 3.96 0 6 0 C6 1.98 6 3.96 6 6 C4.02 6 2.04 6 0 6 C0 4.02 0 2.04 0 0 Z " fill="#E86D48" transform="translate(408,174)"/>
<path d="M0 0 C1.98 0 3.96 0 6 0 C6 1.98 6 3.96 6 6 C4.02 6 2.04 6 0 6 C0 4.02 0 2.04 0 0 Z " fill="#EBB800" transform="translate(396,174)"/>
<path d="M0 0 C1.98 0 3.96 0 6 0 C6 1.98 6 3.96 6 6 C4.02 6 2.04 6 0 6 C0 4.02 0 2.04 0 0 Z " fill="#EBB800" transform="translate(258,174)"/>
<path d="M0 0 C1.98 0 3.96 0 6 0 C6 1.98 6 3.96 6 6 C4.02 6 2.04 6 0 6 C0 4.02 0 2.04 0 0 Z " fill="#A56F01" transform="translate(216,174)"/>
<path d="M0 0 C1.98 0 3.96 0 6 0 C6 1.98 6 3.96 6 6 C4.02 6 2.04 6 0 6 C0 4.02 0 2.04 0 0 Z " fill="#161F2B" transform="translate(174,174)"/>
<path d="M0 0 C1.98 0 3.96 0 6 0 C6 1.98 6 3.96 6 6 C4.02 6 2.04 6 0 6 C0 4.02 0 2.04 0 0 Z " fill="#CB8500" transform="translate(450,168)"/>
<path d="M0 0 C1.98 0 3.96 0 6 0 C6 1.98 6 3.96 6 6 C4.02 6 2.04 6 0 6 C0 4.02 0 2.04 0 0 Z " fill="#A56F01" transform="translate(258,168)"/>
<path d="M0 0 C1.98 0 3.96 0 6 0 C6 1.98 6 3.96 6 6 C4.02 6 2.04 6 0 6 C0 4.02 0 2.04 0 0 Z " fill="#EBB800" transform="translate(216,168)"/>
<path d="M0 0 C1.98 0 3.96 0 6 0 C6 1.98 6 3.96 6 6 C4.02 6 2.04 6 0 6 C0 4.02 0 2.04 0 0 Z " fill="#703D1F" transform="translate(192,168)"/>
<path d="M0 0 C1.98 0 3.96 0 6 0 C6 1.98 6 3.96 6 6 C4.02 6 2.04 6 0 6 C0 4.02 0 2.04 0 0 Z " fill="#703D1F" transform="translate(132,168)"/>
<path d="M0 0 C1.98 0 3.96 0 6 0 C6 1.98 6 3.96 6 6 C4.02 6 2.04 6 0 6 C0 4.02 0 2.04 0 0 Z " fill="#161F2B" transform="translate(192,162)"/>
<path d="M0 0 C1.98 0 3.96 0 6 0 C6 1.98 6 3.96 6 6 C4.02 6 2.04 6 0 6 C0 4.02 0 2.04 0 0 Z " fill="#F2D601" transform="translate(252,156)"/>
<path d="M0 0 C1.98 0 3.96 0 6 0 C6 1.98 6 3.96 6 6 C4.02 6 2.04 6 0 6 C0 4.02 0 2.04 0 0 Z " fill="#EBB800" transform="translate(216,156)"/>
<path d="M0 0 C1.98 0 3.96 0 6 0 C6 1.98 6 3.96 6 6 C4.02 6 2.04 6 0 6 C0 4.02 0 2.04 0 0 Z " fill="#703D1F" transform="translate(144,156)"/>
<path d="M0 0 C1.98 0 3.96 0 6 0 C6 1.98 6 3.96 6 6 C4.02 6 2.04 6 0 6 C0 4.02 0 2.04 0 0 Z " fill="#CB8500" transform="translate(240,150)"/>
<path d="M0 0 C1.98 0 3.96 0 6 0 C6 1.98 6 3.96 6 6 C4.02 6 2.04 6 0 6 C0 4.02 0 2.04 0 0 Z " fill="#703D1F" transform="translate(114,150)"/>
<path d="M0 0 C1.98 0 3.96 0 6 0 C6 1.98 6 3.96 6 6 C4.02 6 2.04 6 0 6 C0 4.02 0 2.04 0 0 Z " fill="#EBB800" transform="translate(444,144)"/>
<path d="M0 0 C1.98 0 3.96 0 6 0 C6 1.98 6 3.96 6 6 C4.02 6 2.04 6 0 6 C0 4.02 0 2.04 0 0 Z " fill="#CB8500" transform="translate(282,144)"/>
<path d="M0 0 C1.98 0 3.96 0 6 0 C6 1.98 6 3.96 6 6 C4.02 6 2.04 6 0 6 C0 4.02 0 2.04 0 0 Z " fill="#CB8500" transform="translate(306,138)"/>
<path d="M0 0 C1.98 0 3.96 0 6 0 C6 1.98 6 3.96 6 6 C4.02 6 2.04 6 0 6 C0 4.02 0 2.04 0 0 Z " fill="#F2D601" transform="translate(108,138)"/>
<path d="M0 0 C1.98 0 3.96 0 6 0 C6 1.98 6 3.96 6 6 C4.02 6 2.04 6 0 6 C0 4.02 0 2.04 0 0 Z " fill="#EBB800" transform="translate(438,132)"/>
<path d="M0 0 C1.98 0 3.96 0 6 0 C6 1.98 6 3.96 6 6 C4.02 6 2.04 6 0 6 C0 4.02 0 2.04 0 0 Z " fill="#CB8500" transform="translate(348,132)"/>
<path d="M0 0 C1.98 0 3.96 0 6 0 C6 1.98 6 3.96 6 6 C4.02 6 2.04 6 0 6 C0 4.02 0 2.04 0 0 Z " fill="#CB8500" transform="translate(324,132)"/>
<path d="M0 0 C1.98 0 3.96 0 6 0 C6 1.98 6 3.96 6 6 C4.02 6 2.04 6 0 6 C0 4.02 0 2.04 0 0 Z " fill="#EBB800" transform="translate(114,132)"/>
<path d="M0 0 C1.98 0 3.96 0 6 0 C6 1.98 6 3.96 6 6 C4.02 6 2.04 6 0 6 C0 4.02 0 2.04 0 0 Z " fill="#161F2B" transform="translate(324,126)"/>
<path d="M0 0 C1.98 0 3.96 0 6 0 C6 1.98 6 3.96 6 6 C4.02 6 2.04 6 0 6 C0 4.02 0 2.04 0 0 Z " fill="#F2D601" transform="translate(114,126)"/>
<path d="M0 0 C1.98 0 3.96 0 6 0 C6 1.98 6 3.96 6 6 C4.02 6 2.04 6 0 6 C0 4.02 0 2.04 0 0 Z " fill="#F2D601" transform="translate(78,126)"/>
<path d="M0 0 C1.98 0 3.96 0 6 0 C6 1.98 6 3.96 6 6 C4.02 6 2.04 6 0 6 C0 4.02 0 2.04 0 0 Z " fill="#EBB800" transform="translate(72,126)"/>
<path d="M0 0 C1.98 0 3.96 0 6 0 C6 1.98 6 3.96 6 6 C4.02 6 2.04 6 0 6 C0 4.02 0 2.04 0 0 Z " fill="#EBB800" transform="translate(432,120)"/>
<path d="M0 0 C1.98 0 3.96 0 6 0 C6 1.98 6 3.96 6 6 C4.02 6 2.04 6 0 6 C0 4.02 0 2.04 0 0 Z " fill="#F2D601" transform="translate(426,120)"/>
<path d="M0 0 C1.98 0 3.96 0 6 0 C6 1.98 6 3.96 6 6 C4.02 6 2.04 6 0 6 C0 4.02 0 2.04 0 0 Z " fill="#EBB800" transform="translate(420,114)"/>
<path d="M0 0 C1.98 0 3.96 0 6 0 C6 1.98 6 3.96 6 6 C4.02 6 2.04 6 0 6 C0 4.02 0 2.04 0 0 Z " fill="#F2D601" transform="translate(414,114)"/>
<path d="M0 0 C1.98 0 3.96 0 6 0 C6 1.98 6 3.96 6 6 C4.02 6 2.04 6 0 6 C0 4.02 0 2.04 0 0 Z " fill="#EBB800" transform="translate(120,114)"/>
<path d="M0 0 C1.98 0 3.96 0 6 0 C6 1.98 6 3.96 6 6 C4.02 6 2.04 6 0 6 C0 4.02 0 2.04 0 0 Z " fill="#F2D601" transform="translate(114,114)"/>
<path d="M0 0 C1.98 0 3.96 0 6 0 C6 1.98 6 3.96 6 6 C4.02 6 2.04 6 0 6 C0 4.02 0 2.04 0 0 Z " fill="#EBB800" transform="translate(72,114)"/>
<path d="M0 0 C1.98 0 3.96 0 6 0 C6 1.98 6 3.96 6 6 C4.02 6 2.04 6 0 6 C0 4.02 0 2.04 0 0 Z " fill="#EBB800" transform="translate(396,108)"/>
<path d="M0 0 C1.98 0 3.96 0 6 0 C6 1.98 6 3.96 6 6 C4.02 6 2.04 6 0 6 C0 4.02 0 2.04 0 0 Z " fill="#EBB800" transform="translate(366,108)"/>
<path d="M0 0 C1.98 0 3.96 0 6 0 C6 1.98 6 3.96 6 6 C4.02 6 2.04 6 0 6 C0 4.02 0 2.04 0 0 Z " fill="#F2D601" transform="translate(360,108)"/>
<path d="M0 0 C1.98 0 3.96 0 6 0 C6 1.98 6 3.96 6 6 C4.02 6 2.04 6 0 6 C0 4.02 0 2.04 0 0 Z " fill="#CB8500" transform="translate(372,102)"/>
<path d="M0 0 C1.98 0 3.96 0 6 0 C6 1.98 6 3.96 6 6 C4.02 6 2.04 6 0 6 C0 4.02 0 2.04 0 0 Z " fill="#EBB800" transform="translate(354,102)"/>
<path d="M0 0 C1.98 0 3.96 0 6 0 C6 1.98 6 3.96 6 6 C4.02 6 2.04 6 0 6 C0 4.02 0 2.04 0 0 Z " fill="#F2D601" transform="translate(348,102)"/>
<path d="M0 0 C1.98 0 3.96 0 6 0 C6 1.98 6 3.96 6 6 C4.02 6 2.04 6 0 6 C0 4.02 0 2.04 0 0 Z " fill="#CB8500" transform="translate(360,96)"/>
<path d="M0 0 C1.98 0 3.96 0 6 0 C6 1.98 6 3.96 6 6 C4.02 6 2.04 6 0 6 C0 4.02 0 2.04 0 0 Z " fill="#EBB800" transform="translate(336,96)"/>
<path d="M0 0 C1.98 0 3.96 0 6 0 C6 1.98 6 3.96 6 6 C4.02 6 2.04 6 0 6 C0 4.02 0 2.04 0 0 Z " fill="#F2D601" transform="translate(330,96)"/>
<path d="M0 0 C1.98 0 3.96 0 6 0 C6 1.98 6 3.96 6 6 C4.02 6 2.04 6 0 6 C0 4.02 0 2.04 0 0 Z " fill="#A56F01" transform="translate(354,90)"/>
<path d="M0 0 C1.98 0 3.96 0 6 0 C6 1.98 6 3.96 6 6 C4.02 6 2.04 6 0 6 C0 4.02 0 2.04 0 0 Z " fill="#EBB800" transform="translate(300,90)"/>
<path d="M0 0 C1.98 0 3.96 0 6 0 C6 1.98 6 3.96 6 6 C4.02 6 2.04 6 0 6 C0 4.02 0 2.04 0 0 Z " fill="#EBB800" transform="translate(288,90)"/>
<path d="M0 0 C1.98 0 3.96 0 6 0 C6 1.98 6 3.96 6 6 C4.02 6 2.04 6 0 6 C0 4.02 0 2.04 0 0 Z " fill="#EBB800" transform="translate(90,90)"/>
<path d="M0 0 C1.98 0 3.96 0 6 0 C6 1.98 6 3.96 6 6 C4.02 6 2.04 6 0 6 C0 4.02 0 2.04 0 0 Z " fill="#EBB800" transform="translate(12,90)"/>
<path d="M0 0 C1.98 0 3.96 0 6 0 C6 1.98 6 3.96 6 6 C4.02 6 2.04 6 0 6 C0 4.02 0 2.04 0 0 Z " fill="#A56F01" transform="translate(336,84)"/>
<path d="M0 0 C1.98 0 3.96 0 6 0 C6 1.98 6 3.96 6 6 C4.02 6 2.04 6 0 6 C0 4.02 0 2.04 0 0 Z " fill="#A56F01" transform="translate(312,84)"/>
<path d="M0 0 C1.98 0 3.96 0 6 0 C6 1.98 6 3.96 6 6 C4.02 6 2.04 6 0 6 C0 4.02 0 2.04 0 0 Z " fill="#F2D601" transform="translate(90,84)"/>
<path d="M0 0 C1.98 0 3.96 0 6 0 C6 1.98 6 3.96 6 6 C4.02 6 2.04 6 0 6 C0 4.02 0 2.04 0 0 Z " fill="#EBB800" transform="translate(96,78)"/>
<path d="M0 0 C1.98 0 3.96 0 6 0 C6 1.98 6 3.96 6 6 C4.02 6 2.04 6 0 6 C0 4.02 0 2.04 0 0 Z " fill="#EBB800" transform="translate(96,66)"/>
<path d="M0 0 C1.98 0 3.96 0 6 0 C6 1.98 6 3.96 6 6 C4.02 6 2.04 6 0 6 C0 4.02 0 2.04 0 0 Z " fill="#F2D601" transform="translate(90,66)"/>
<path d="M0 0 C1.98 0 3.96 0 6 0 C6 1.98 6 3.96 6 6 C4.02 6 2.04 6 0 6 C0 4.02 0 2.04 0 0 Z " fill="#EBB800" transform="translate(84,60)"/>
<path d="M0 0 C1.98 0 3.96 0 6 0 C6 1.98 6 3.96 6 6 C4.02 6 2.04 6 0 6 C0 4.02 0 2.04 0 0 Z " fill="#F2D601" transform="translate(78,60)"/>
<path d="M0 0 C1.98 0 3.96 0 6 0 C6 1.98 6 3.96 6 6 C4.02 6 2.04 6 0 6 C0 4.02 0 2.04 0 0 Z " fill="#EBB800" transform="translate(66,54)"/>
<path d="M0 0 C1.98 0 3.96 0 6 0 C6 1.98 6 3.96 6 6 C4.02 6 2.04 6 0 6 C0 4.02 0 2.04 0 0 Z " fill="#F2D601" transform="translate(60,54)"/>
<path d="M0 0 C1.98 0 3.96 0 6 0 C6 1.98 6 3.96 6 6 C4.02 6 2.04 6 0 6 C0 4.02 0 2.04 0 0 Z " fill="#EBB800" transform="translate(48,48)"/>
<path d="M0 0 C1.98 0 3.96 0 6 0 C6 1.98 6 3.96 6 6 C4.02 6 2.04 6 0 6 C0 4.02 0 2.04 0 0 Z " fill="#F2D601" transform="translate(42,48)"/>
<path d="M0 0 C1.98 0 3.96 0 6 0 C6 1.98 6 3.96 6 6 C4.02 6 2.04 6 0 6 C0 4.02 0 2.04 0 0 Z " fill="#EBB800" transform="translate(30,42)"/>
<path d="M0 0 C1.98 0 3.96 0 6 0 C6 1.98 6 3.96 6 6 C4.02 6 2.04 6 0 6 C0 4.02 0 2.04 0 0 Z " fill="#F2D601" transform="translate(24,42)"/>
<path d="M0 0 C1.98 0 3.96 0 6 0 C6 1.98 6 3.96 6 6 C4.02 6 2.04 6 0 6 C0 4.02 0 2.04 0 0 Z " fill="#F2D601" transform="translate(6,42)"/>
</svg>
