<?xml version="1.0" encoding="UTF-8"?>
<svg version="1.1" xmlns="http://www.w3.org/2000/svg" width="22" height="22" viewBox="0 0 468 468">
<path d="M0 0 C3.96 0 7.92 0 12 0 C12 1.98 12 3.96 12 6 C19.92 6 27.84 6 36 6 C36 7.98 36 9.96 36 12 C43.92 12 51.84 12 60 12 C60 13.98 60 15.96 60 18 C65.94 18 71.88 18 78 18 C78 19.98 78 21.96 78 24 C83.94 24 89.88 24 96 24 C96 25.98 96 27.96 96 30 C101.94 30 107.88 30 114 30 C114 31.98 114 33.96 114 36 C117.96 36 121.92 36 126 36 C126 41.94 126 47.88 126 54 C124.02 54 122.04 54 120 54 C120 59.94 120 65.88 120 72 C118.02 72 116.04 72 114 72 C114 73.98 114 75.96 114 78 C125.88 78 137.76 78 150 78 C150 81.96 150 85.92 150 90 C148.02 90 146.04 90 144 90 C144 95.94 144 101.88 144 108 C151.92 108 159.84 108 168 108 C168 113.94 168 119.88 168 126 C166.02 126 164.04 126 162 126 C162 127.98 162 129.96 162 132 C171.9 132 181.8 132 192 132 C192 130.02 192 128.04 192 126 C197.94 126 203.88 126 210 126 C210 124.02 210 122.04 210 120 C217.92 120 225.84 120 234 120 C234 121.98 234 123.96 234 126 C237.96 126 241.92 126 246 126 C246 124.02 246 122.04 246 120 C251.94 120 257.88 120 264 120 C264 121.98 264 123.96 264 126 C265.98 126 267.96 126 270 126 C270 122.04 270 118.08 270 114 C268.02 114 266.04 114 264 114 C264 112.02 264 110.04 264 108 C271.92 108 279.84 108 288 108 C288 109.98 288 111.96 288 114 C293.94 114 299.88 114 306 114 C306 115.98 306 117.96 306 120 C309.96 120 313.92 120 318 120 C318 121.98 318 123.96 318 126 C321.96 126 325.92 126 330 126 C330 127.98 330 129.96 330 132 C333.96 132 337.92 132 342 132 C342 133.98 342 135.96 342 138 C343.98 138 345.96 138 348 138 C348 139.98 348 141.96 348 144 C351.96 144 355.92 144 360 144 C360 145.98 360 147.96 360 150 C365.94 150 371.88 150 378 150 C378 151.98 378 153.96 378 156 C381.96 156 385.92 156 390 156 C390 157.98 390 159.96 390 162 C393.96 162 397.92 162 402 162 C402 163.98 402 165.96 402 168 C403.98 168 405.96 168 408 168 C408 171.96 408 175.92 408 180 C409.98 180 411.96 180 414 180 C414 181.98 414 183.96 414 186 C415.98 186 417.96 186 420 186 C420 197.88 420 209.76 420 222 C421.98 222 423.96 222 426 222 C426 223.98 426 225.96 426 228 C427.98 228 429.96 228 432 228 C432 233.94 432 239.88 432 246 C430.02 246 428.04 246 426 246 C426 249.96 426 253.92 426 258 C424.02 258 422.04 258 420 258 C420 259.98 420 261.96 420 264 C418.02 264 416.04 264 414 264 C414 265.98 414 267.96 414 270 C412.02 270 410.04 270 408 270 C408 271.98 408 273.96 408 276 C404.04 276 400.08 276 396 276 C396 277.98 396 279.96 396 282 C392.04 282 388.08 282 384 282 C384 283.98 384 285.96 384 288 C376.08 288 368.16 288 360 288 C360 291.96 360 295.92 360 300 C361.98 300 363.96 300 366 300 C366 303.96 366 307.92 366 312 C367.98 312 369.96 312 372 312 C372 315.96 372 319.92 372 324 C373.98 324 375.96 324 378 324 C378 327.96 378 331.92 378 336 C370.08 336 362.16 336 354 336 C354 334.02 354 332.04 354 330 C352.02 330 350.04 330 348 330 C348 333.96 348 337.92 348 342 C338.1 342 328.2 342 318 342 C318 340.02 318 338.04 318 336 C316.02 336 314.04 336 312 336 C312 334.02 312 332.04 312 330 C310.02 330 308.04 330 306 330 C306 326.04 306 322.08 306 318 C304.02 318 302.04 318 300 318 C300 316.02 300 314.04 300 312 C298.02 312 296.04 312 294 312 C294 308.04 294 304.08 294 300 C292.02 300 290.04 300 288 300 C288 298.02 288 296.04 288 294 C286.02 294 284.04 294 282 294 C282 290.04 282 286.08 282 282 C280.02 282 278.04 282 276 282 C276 280.02 276 278.04 276 276 C272.04 276 268.08 276 264 276 C264 274.02 264 272.04 264 270 C258.06 270 252.12 270 246 270 C246 268.02 246 266.04 246 264 C228.18 264 210.36 264 192 264 C192 265.98 192 267.96 192 270 C180.12 270 168.24 270 156 270 C156 273.96 156 277.92 156 282 C152.04 282 148.08 282 144 282 C144 280.02 144 278.04 144 276 C142.02 276 140.04 276 138 276 C138 277.98 138 279.96 138 282 C134.04 282 130.08 282 126 282 C126 274.08 126 266.16 126 258 C127.98 258 129.96 258 132 258 C132 246.12 132 234.24 132 222 C133.98 222 135.96 222 138 222 C138 210.12 138 198.24 138 186 C139.98 186 141.96 186 144 186 C144 182.04 144 178.08 144 174 C145.98 174 147.96 174 150 174 C150 170.04 150 166.08 150 162 C151.98 162 153.96 162 156 162 C156 160.02 156 158.04 156 156 C157.98 156 159.96 156 162 156 C162 154.02 162 152.04 162 150 C156.06 150 150.12 150 144 150 C144 146.04 144 142.08 144 138 C145.98 138 147.96 138 150 138 C150 134.04 150 130.08 150 126 C146.04 126 142.08 126 138 126 C138 127.98 138 129.96 138 132 C132.06 132 126.12 132 120 132 C120 122.1 120 112.2 120 102 C116.04 102 112.08 102 108 102 C108 103.98 108 105.96 108 108 C100.08 108 92.16 108 84 108 C84 102.06 84 96.12 84 90 C85.98 90 87.96 90 90 90 C90 86.04 90 82.08 90 78 C66.24 78 42.48 78 18 78 C18 76.02 18 74.04 18 72 C16.02 72 14.04 72 12 72 C12 66.06 12 60.12 12 54 C10.02 54 8.04 54 6 54 C6 44.1 6 34.2 6 24 C4.02 24 2.04 24 0 24 C0 16.08 0 8.16 0 0 Z M396 204 C396 205.98 396 207.96 396 210 C397.98 210 399.96 210 402 210 C402 208.02 402 206.04 402 204 C400.02 204 398.04 204 396 204 Z " fill="#F6E801" transform="translate(12,0)"/>
<path d="M0 0 C3.96 0 7.92 0 12 0 C12 1.98 12 3.96 12 6 C19.92 6 27.84 6 36 6 C36 7.98 36 9.96 36 12 C43.92 12 51.84 12 60 12 C60 13.98 60 15.96 60 18 C65.94 18 71.88 18 78 18 C78 19.98 78 21.96 78 24 C83.94 24 89.88 24 96 24 C96 25.98 96 27.96 96 30 C101.94 30 107.88 30 114 30 C114 31.98 114 33.96 114 36 C117.96 36 121.92 36 126 36 C126 41.94 126 47.88 126 54 C124.02 54 122.04 54 120 54 C120 59.94 120 65.88 120 72 C118.02 72 116.04 72 114 72 C114 73.98 114 75.96 114 78 C125.88 78 137.76 78 150 78 C150 81.96 150 85.92 150 90 C148.02 90 146.04 90 144 90 C144 95.94 144 101.88 144 108 C151.92 108 159.84 108 168 108 C168 113.94 168 119.88 168 126 C166.02 126 164.04 126 162 126 C162 127.98 162 129.96 162 132 C171.9 132 181.8 132 192 132 C192 133.98 192 135.96 192 138 C188.04 138 184.08 138 180 138 C180 139.98 180 141.96 180 144 C178.02 144 176.04 144 174 144 C174 145.98 174 147.96 174 150 C172.02 150 170.04 150 168 150 C168 153.96 168 157.92 168 162 C164.04 162 160.08 162 156 162 C156 160.02 156 158.04 156 156 C157.98 156 159.96 156 162 156 C162 154.02 162 152.04 162 150 C156.06 150 150.12 150 144 150 C144 146.04 144 142.08 144 138 C145.98 138 147.96 138 150 138 C150 134.04 150 130.08 150 126 C146.04 126 142.08 126 138 126 C138 127.98 138 129.96 138 132 C132.06 132 126.12 132 120 132 C120 122.1 120 112.2 120 102 C116.04 102 112.08 102 108 102 C108 103.98 108 105.96 108 108 C100.08 108 92.16 108 84 108 C84 102.06 84 96.12 84 90 C85.98 90 87.96 90 90 90 C90 86.04 90 82.08 90 78 C66.24 78 42.48 78 18 78 C18 76.02 18 74.04 18 72 C16.02 72 14.04 72 12 72 C12 66.06 12 60.12 12 54 C10.02 54 8.04 54 6 54 C6 44.1 6 34.2 6 24 C4.02 24 2.04 24 0 24 C0 16.08 0 8.16 0 0 Z " fill="#F7E901" transform="translate(12,0)"/>
<path d="M0 0 C1.98 0 3.96 0 6 0 C6 15.84 6 31.68 6 48 C4.02 48 2.04 48 0 48 C0 51.96 0 55.92 0 60 C1.98 60 3.96 60 6 60 C6 63.96 6 67.92 6 72 C17.88 72 29.76 72 42 72 C42 70.02 42 68.04 42 66 C47.94 66 53.88 66 60 66 C60 64.02 60 62.04 60 60 C67.92 60 75.84 60 84 60 C84 58.02 84 56.04 84 54 C91.92 54 99.84 54 108 54 C108 55.98 108 57.96 108 60 C113.94 60 119.88 60 126 60 C126 61.98 126 63.96 126 66 C127.98 66 129.96 66 132 66 C132 67.98 132 69.96 132 72 C133.98 72 135.96 72 138 72 C138 73.98 138 75.96 138 78 C141.96 78 145.92 78 150 78 C150 79.98 150 81.96 150 84 C151.98 84 153.96 84 156 84 C156 87.96 156 91.92 156 96 C157.98 96 159.96 96 162 96 C162 99.96 162 103.92 162 108 C163.98 108 165.96 108 168 108 C168 109.98 168 111.96 168 114 C169.98 114 171.96 114 174 114 C174 123.9 174 133.8 174 144 C172.02 144 170.04 144 168 144 C168 140.04 168 136.08 168 132 C166.02 132 164.04 132 162 132 C162 130.02 162 128.04 162 126 C160.02 126 158.04 126 156 126 C156 122.04 156 118.08 156 114 C154.02 114 152.04 114 150 114 C150 112.02 150 110.04 150 108 C148.02 108 146.04 108 144 108 C144 104.04 144 100.08 144 96 C142.02 96 140.04 96 138 96 C138 94.02 138 92.04 138 90 C134.04 90 130.08 90 126 90 C126 88.02 126 86.04 126 84 C120.06 84 114.12 84 108 84 C108 82.02 108 80.04 108 78 C90.18 78 72.36 78 54 78 C54 79.98 54 81.96 54 84 C42.12 84 30.24 84 18 84 C18 87.96 18 91.92 18 96 C14.04 96 10.08 96 6 96 C6 94.02 6 92.04 6 90 C4.02 90 2.04 90 0 90 C0 91.98 0 93.96 0 96 C-3.96 96 -7.92 96 -12 96 C-12 88.08 -12 80.16 -12 72 C-10.02 72 -8.04 72 -6 72 C-6 60.12 -6 48.24 -6 36 C-4.02 36 -2.04 36 0 36 C0 24.12 0 12.24 0 0 Z " fill="#EBB800" transform="translate(150,186)"/>
<path d="M0 0 C7.92 0 15.84 0 24 0 C24 1.98 24 3.96 24 6 C29.94 6 35.88 6 42 6 C42 7.98 42 9.96 42 12 C45.96 12 49.92 12 54 12 C54 13.98 54 15.96 54 18 C57.96 18 61.92 18 66 18 C66 19.98 66 21.96 66 24 C69.96 24 73.92 24 78 24 C78 25.98 78 27.96 78 30 C79.98 30 81.96 30 84 30 C84 31.98 84 33.96 84 36 C87.96 36 91.92 36 96 36 C96 37.98 96 39.96 96 42 C101.94 42 107.88 42 114 42 C114 43.98 114 45.96 114 48 C106.08 48 98.16 48 90 48 C90 49.98 90 51.96 90 54 C86.04 54 82.08 54 78 54 C78 52.02 78 50.04 78 48 C76.02 48 74.04 48 72 48 C72 46.02 72 44.04 72 42 C68.04 42 64.08 42 60 42 C60 40.02 60 38.04 60 36 C56.04 36 52.08 36 48 36 C48 34.02 48 32.04 48 30 C44.04 30 40.08 30 36 30 C36 28.02 36 26.04 36 24 C30.06 24 24.12 24 18 24 C18 27.96 18 31.92 18 36 C19.98 36 21.96 36 24 36 C24 41.94 24 47.88 24 54 C20.04 54 16.08 54 12 54 C12 52.02 12 50.04 12 48 C10.02 48 8.04 48 6 48 C6 46.02 6 44.04 6 42 C4.02 42 2.04 42 0 42 C0 40.02 0 38.04 0 36 C-1.98 36 -3.96 36 -6 36 C-6 34.02 -6 32.04 -6 30 C-7.98 30 -9.96 30 -12 30 C-12 28.02 -12 26.04 -12 24 C-17.94 24 -23.88 24 -30 24 C-30 31.92 -30 39.84 -30 48 C-31.98 48 -33.96 48 -36 48 C-36 53.94 -36 59.88 -36 66 C-39.96 66 -43.92 66 -48 66 C-48 64.02 -48 62.04 -48 60 C-49.98 60 -51.96 60 -54 60 C-54 48.12 -54 36.24 -54 24 C-59.94 24 -65.88 24 -72 24 C-72 22.02 -72 20.04 -72 18 C-66.06 18 -60.12 18 -54 18 C-54 16.02 -54 14.04 -54 12 C-46.08 12 -38.16 12 -30 12 C-30 13.98 -30 15.96 -30 18 C-26.04 18 -22.08 18 -18 18 C-18 16.02 -18 14.04 -18 12 C-12.06 12 -6.12 12 0 12 C0 13.98 0 15.96 0 18 C1.98 18 3.96 18 6 18 C6 14.04 6 10.08 6 6 C4.02 6 2.04 6 0 6 C0 4.02 0 2.04 0 0 Z " fill="#161F2B" transform="translate(276,108)"/>
<path d="M0 0 C1.98 0 3.96 0 6 0 C6 15.84 6 31.68 6 48 C4.02 48 2.04 48 0 48 C0 51.96 0 55.92 0 60 C1.98 60 3.96 60 6 60 C6 63.96 6 67.92 6 72 C17.88 72 29.76 72 42 72 C42 70.02 42 68.04 42 66 C47.94 66 53.88 66 60 66 C60 64.02 60 62.04 60 60 C61.98 60 63.96 60 66 60 C66 63.96 66 67.92 66 72 C79.86 72 93.72 72 108 72 C108 73.98 108 75.96 108 78 C90.18 78 72.36 78 54 78 C54 79.98 54 81.96 54 84 C42.12 84 30.24 84 18 84 C18 87.96 18 91.92 18 96 C14.04 96 10.08 96 6 96 C6 94.02 6 92.04 6 90 C4.02 90 2.04 90 0 90 C0 91.98 0 93.96 0 96 C-3.96 96 -7.92 96 -12 96 C-12 88.08 -12 80.16 -12 72 C-10.02 72 -8.04 72 -6 72 C-6 60.12 -6 48.24 -6 36 C-4.02 36 -2.04 36 0 36 C0 24.12 0 12.24 0 0 Z " fill="#EBB800" transform="translate(150,186)"/>
<path d="M0 0 C17.82 0 35.64 0 54 0 C54 1.98 54 3.96 54 6 C46.08 6 38.16 6 30 6 C30 9.96 30 13.92 30 18 C31.98 18 33.96 18 36 18 C36 21.96 36 25.92 36 30 C37.98 30 39.96 30 42 30 C42 33.96 42 37.92 42 42 C43.98 42 45.96 42 48 42 C48 45.96 48 49.92 48 54 C40.08 54 32.16 54 24 54 C24 52.02 24 50.04 24 48 C22.02 48 20.04 48 18 48 C18 51.96 18 55.92 18 60 C8.1 60 -1.8 60 -12 60 C-12 58.02 -12 56.04 -12 54 C-13.98 54 -15.96 54 -18 54 C-18 52.02 -18 50.04 -18 48 C-14.04 48 -10.08 48 -6 48 C-6 49.98 -6 51.96 -6 54 C-0.06 54 5.88 54 12 54 C12 50.04 12 46.08 12 42 C10.02 42 8.04 42 6 42 C6 34.08 6 26.16 6 18 C4.02 18 2.04 18 0 18 C0 12.06 0 6.12 0 0 Z " fill="#CB8500" transform="translate(342,282)"/>
<path d="M0 0 C1.98 0 3.96 0 6 0 C6 5.94 6 11.88 6 18 C13.92 18 21.84 18 30 18 C30 23.94 30 29.88 30 36 C28.02 36 26.04 36 24 36 C24 37.98 24 39.96 24 42 C33.9 42 43.8 42 54 42 C54 43.98 54 45.96 54 48 C50.04 48 46.08 48 42 48 C42 49.98 42 51.96 42 54 C40.02 54 38.04 54 36 54 C36 55.98 36 57.96 36 60 C34.02 60 32.04 60 30 60 C30 63.96 30 67.92 30 72 C26.04 72 22.08 72 18 72 C18 70.02 18 68.04 18 66 C19.98 66 21.96 66 24 66 C24 64.02 24 62.04 24 60 C18.06 60 12.12 60 6 60 C6 56.04 6 52.08 6 48 C7.98 48 9.96 48 12 48 C12 44.04 12 40.08 12 36 C8.04 36 4.08 36 0 36 C0 37.98 0 39.96 0 42 C-5.94 42 -11.88 42 -18 42 C-18 32.1 -18 22.2 -18 12 C-21.96 12 -25.92 12 -30 12 C-30 10.02 -30 8.04 -30 6 C-24.06 6 -18.12 6 -12 6 C-12 7.98 -12 9.96 -12 12 C-8.04 12 -4.08 12 0 12 C0 8.04 0 4.08 0 0 Z " fill="#7E5701" transform="translate(150,90)"/>
<path d="M0 0 C1.98 0 3.96 0 6 0 C6 1.98 6 3.96 6 6 C7.98 6 9.96 6 12 6 C12 7.98 12 9.96 12 12 C13.98 12 15.96 12 18 12 C18 13.98 18 15.96 18 18 C21.96 18 25.92 18 30 18 C30 14.04 30 10.08 30 6 C31.98 6 33.96 6 36 6 C36 7.98 36 9.96 36 12 C39.96 12 43.92 12 48 12 C48 13.98 48 15.96 48 18 C49.98 18 51.96 18 54 18 C54 19.98 54 21.96 54 24 C57.96 24 61.92 24 66 24 C66 25.98 66 27.96 66 30 C67.98 30 69.96 30 72 30 C72 33.96 72 37.92 72 42 C68.04 42 64.08 42 60 42 C60 40.02 60 38.04 60 36 C56.04 36 52.08 36 48 36 C48 37.98 48 39.96 48 42 C46.02 42 44.04 42 42 42 C42 38.04 42 34.08 42 30 C36.06 30 30.12 30 24 30 C24 31.98 24 33.96 24 36 C22.02 36 20.04 36 18 36 C18 37.98 18 39.96 18 42 C14.04 42 10.08 42 6 42 C6 40.02 6 38.04 6 36 C4.02 36 2.04 36 0 36 C0 24.12 0 12.24 0 0 Z " fill="#EBB800" transform="translate(270,144)"/>
<path d="M0 0 C7.92 0 15.84 0 24 0 C24 1.98 24 3.96 24 6 C27.96 6 31.92 6 36 6 C36 7.98 36 9.96 36 12 C39.96 12 43.92 12 48 12 C48 13.98 48 15.96 48 18 C49.98 18 51.96 18 54 18 C54 19.98 54 21.96 54 24 C57.96 24 61.92 24 66 24 C66 25.98 66 27.96 66 30 C71.94 30 77.88 30 84 30 C84 31.98 84 33.96 84 36 C76.08 36 68.16 36 60 36 C60 37.98 60 39.96 60 42 C56.04 42 52.08 42 48 42 C48 40.02 48 38.04 48 36 C46.02 36 44.04 36 42 36 C42 34.02 42 32.04 42 30 C38.04 30 34.08 30 30 30 C30 28.02 30 26.04 30 24 C26.04 24 22.08 24 18 24 C18 22.02 18 20.04 18 18 C14.04 18 10.08 18 6 18 C6 16.02 6 14.04 6 12 C0.06 12 -5.88 12 -12 12 C-12 10.02 -12 8.04 -12 6 C-8.04 6 -4.08 6 0 6 C0 4.02 0 2.04 0 0 Z " fill="#CB8500" transform="translate(306,120)"/>
<path d="M0 0 C7.92 0 15.84 0 24 0 C24 11.88 24 23.76 24 36 C22.02 36 20.04 36 18 36 C18 41.94 18 47.88 18 54 C14.04 54 10.08 54 6 54 C6 52.02 6 50.04 6 48 C4.02 48 2.04 48 0 48 C0 36.12 0 24.24 0 12 C-5.94 12 -11.88 12 -18 12 C-18 10.02 -18 8.04 -18 6 C-12.06 6 -6.12 6 0 6 C0 4.02 0 2.04 0 0 Z " fill="#7E5701" transform="translate(222,120)"/>
<path d="M0 0 C7.92 0 15.84 0 24 0 C24 1.98 24 3.96 24 6 C37.86 6 51.72 6 66 6 C66 4.02 66 2.04 66 0 C73.92 0 81.84 0 90 0 C90 1.98 90 3.96 90 6 C88.02 6 86.04 6 84 6 C84 7.98 84 9.96 84 12 C80.04 12 76.08 12 72 12 C72 13.98 72 15.96 72 18 C48.24 18 24.48 18 0 18 C0 12.06 0 6.12 0 0 Z " fill="#EBB800" transform="translate(336,264)"/>
<path d="M0 0 C3.96 0 7.92 0 12 0 C12 1.98 12 3.96 12 6 C13.98 6 15.96 6 18 6 C18 9.96 18 13.92 18 18 C19.98 18 21.96 18 24 18 C24 21.96 24 25.92 24 30 C25.98 30 27.96 30 30 30 C30 31.98 30 33.96 30 36 C31.98 36 33.96 36 36 36 C36 45.9 36 55.8 36 66 C34.02 66 32.04 66 30 66 C30 62.04 30 58.08 30 54 C28.02 54 26.04 54 24 54 C24 52.02 24 50.04 24 48 C22.02 48 20.04 48 18 48 C18 44.04 18 40.08 18 36 C16.02 36 14.04 36 12 36 C12 34.02 12 32.04 12 30 C10.02 30 8.04 30 6 30 C6 26.04 6 22.08 6 18 C4.02 18 2.04 18 0 18 C0 16.02 0 14.04 0 12 C-3.96 12 -7.92 12 -12 12 C-12 10.02 -12 8.04 -12 6 C-8.04 6 -4.08 6 0 6 C0 4.02 0 2.04 0 0 Z " fill="#EBB800" transform="translate(288,264)"/>
<path d="M0 0 C5.94 0 11.88 0 18 0 C18 3.96 18 7.92 18 12 C19.98 12 21.96 12 24 12 C24 15.96 24 19.92 24 24 C22.02 24 20.04 24 18 24 C18 25.98 18 27.96 18 30 C16.02 30 14.04 30 12 30 C12 31.98 12 33.96 12 36 C8.04 36 4.08 36 0 36 C0 34.02 0 32.04 0 30 C-1.98 30 -3.96 30 -6 30 C-6 28.02 -6 26.04 -6 24 C-7.98 24 -9.96 24 -12 24 C-12 20.04 -12 16.08 -12 12 C-10.02 12 -8.04 12 -6 12 C-6 10.02 -6 8.04 -6 6 C-4.02 6 -2.04 6 0 6 C0 4.02 0 2.04 0 0 Z " fill="#AB340E" transform="translate(372,222)"/>
<path d="M0 0 C1.98 0 3.96 0 6 0 C6 1.98 6 3.96 6 6 C7.98 6 9.96 6 12 6 C12 7.98 12 9.96 12 12 C13.98 12 15.96 12 18 12 C18 13.98 18 15.96 18 18 C19.98 18 21.96 18 24 18 C24 23.94 24 29.88 24 36 C22.02 36 20.04 36 18 36 C18 37.98 18 39.96 18 42 C14.04 42 10.08 42 6 42 C6 40.02 6 38.04 6 36 C4.02 36 2.04 36 0 36 C0 24.12 0 12.24 0 0 Z " fill="#7E5701" transform="translate(270,144)"/>
<path d="M0 0 C25.74 0 51.48 0 78 0 C78 5.94 78 11.88 78 18 C76.02 18 74.04 18 72 18 C72 14.04 72 10.08 72 6 C48.24 6 24.48 6 0 6 C0 4.02 0 2.04 0 0 Z " fill="#161F2B" transform="translate(30,72)"/>
<path d="M0 0 C1.98 0 3.96 0 6 0 C6 1.98 6 3.96 6 6 C7.98 6 9.96 6 12 6 C12 17.88 12 29.76 12 42 C13.98 42 15.96 42 18 42 C18 43.98 18 45.96 18 48 C19.98 48 21.96 48 24 48 C24 53.94 24 59.88 24 66 C22.02 66 20.04 66 18 66 C18 62.04 18 58.08 18 54 C16.02 54 14.04 54 12 54 C12 52.02 12 50.04 12 48 C10.02 48 8.04 48 6 48 C6 36.12 6 24.24 6 12 C4.02 12 2.04 12 0 12 C0 8.04 0 4.08 0 0 Z " fill="#161F2B" transform="translate(420,180)"/>
<path d="M0 0 C1.98 0 3.96 0 6 0 C6 15.84 6 31.68 6 48 C4.02 48 2.04 48 0 48 C0 55.92 0 63.84 0 72 C-1.98 72 -3.96 72 -6 72 C-6 60.12 -6 48.24 -6 36 C-4.02 36 -2.04 36 0 36 C0 24.12 0 12.24 0 0 Z " fill="#161F2B" transform="translate(150,186)"/>
<path d="M0 0 C17.82 0 35.64 0 54 0 C54 1.98 54 3.96 54 6 C46.08 6 38.16 6 30 6 C30 9.96 30 13.92 30 18 C28.02 18 26.04 18 24 18 C24 14.04 24 10.08 24 6 C18.06 6 12.12 6 6 6 C6 9.96 6 13.92 6 18 C4.02 18 2.04 18 0 18 C0 12.06 0 6.12 0 0 Z " fill="#8A6F2B" transform="translate(342,282)"/>
<path d="M0 0 C1.98 0 3.96 0 6 0 C6 1.98 6 3.96 6 6 C9.96 6 13.92 6 18 6 C18 7.98 18 9.96 18 12 C23.94 12 29.88 12 36 12 C36 13.98 36 15.96 36 18 C28.08 18 20.16 18 12 18 C12 19.98 12 21.96 12 24 C8.04 24 4.08 24 0 24 C0 22.02 0 20.04 0 18 C-1.98 18 -3.96 18 -6 18 C-6 16.02 -6 14.04 -6 12 C-4.02 12 -2.04 12 0 12 C0 8.04 0 4.08 0 0 Z " fill="#8A6F2B" transform="translate(354,138)"/>
<path d="M0 0 C9.9 0 19.8 0 30 0 C30 5.94 30 11.88 30 18 C24.06 18 18.12 18 12 18 C12 16.02 12 14.04 12 12 C8.04 12 4.08 12 0 12 C0 8.04 0 4.08 0 0 Z " fill="#CB8500" transform="translate(324,132)"/>
<path d="M0 0 C1.98 0 3.96 0 6 0 C6 7.92 6 15.84 6 24 C4.02 24 2.04 24 0 24 C0 27.96 0 31.92 0 36 C-3.96 36 -7.92 36 -12 36 C-12 28.08 -12 20.16 -12 12 C-8.04 12 -4.08 12 0 12 C0 8.04 0 4.08 0 0 Z " fill="#F7E901" transform="translate(150,246)"/>
<path d="M0 0 C1.98 0 3.96 0 6 0 C6 1.98 6 3.96 6 6 C7.98 6 9.96 6 12 6 C12 7.98 12 9.96 12 12 C17.94 12 23.88 12 30 12 C30 15.96 30 19.92 30 24 C24.06 24 18.12 24 12 24 C12 22.02 12 20.04 12 18 C8.04 18 4.08 18 0 18 C0 12.06 0 6.12 0 0 Z " fill="#EBB800" transform="translate(324,312)"/>
<path d="M0 0 C5.94 0 11.88 0 18 0 C18 3.96 18 7.92 18 12 C19.98 12 21.96 12 24 12 C24 15.96 24 19.92 24 24 C20.04 24 16.08 24 12 24 C12 22.02 12 20.04 12 18 C10.02 18 8.04 18 6 18 C6 16.02 6 14.04 6 12 C4.02 12 2.04 12 0 12 C0 8.04 0 4.08 0 0 Z " fill="#DC0027" transform="translate(372,222)"/>
<path d="M0 0 C3.96 0 7.92 0 12 0 C12 1.98 12 3.96 12 6 C10.02 6 8.04 6 6 6 C6 9.96 6 13.92 6 18 C-3.9 18 -13.8 18 -24 18 C-24 16.02 -24 14.04 -24 12 C-25.98 12 -27.96 12 -30 12 C-30 10.02 -30 8.04 -30 6 C-26.04 6 -22.08 6 -18 6 C-18 7.98 -18 9.96 -18 12 C-12.06 12 -6.12 12 0 12 C0 8.04 0 4.08 0 0 Z " fill="#CB8500" transform="translate(354,324)"/>
<path d="M0 0 C5.94 0 11.88 0 18 0 C18 9.9 18 19.8 18 30 C21.96 30 25.92 30 30 30 C30 31.98 30 33.96 30 36 C24.06 36 18.12 36 12 36 C12 26.1 12 16.2 12 6 C8.04 6 4.08 6 0 6 C0 4.02 0 2.04 0 0 Z " fill="#161F2B" transform="translate(120,96)"/>
<path d="M0 0 C1.98 0 3.96 0 6 0 C6 5.94 6 11.88 6 18 C13.92 18 21.84 18 30 18 C30 23.94 30 29.88 30 36 C28.02 36 26.04 36 24 36 C24 32.04 24 28.08 24 24 C16.08 24 8.16 24 0 24 C0 16.08 0 8.16 0 0 Z " fill="#161F2B" transform="translate(150,90)"/>
<path d="M0 0 C1.98 0 3.96 0 6 0 C6 1.98 6 3.96 6 6 C7.98 6 9.96 6 12 6 C12 15.9 12 25.8 12 36 C10.02 36 8.04 36 6 36 C6 32.04 6 28.08 6 24 C4.02 24 2.04 24 0 24 C0 16.08 0 8.16 0 0 Z " fill="#EBB800" transform="translate(312,294)"/>
<path d="M0 0 C7.92 0 15.84 0 24 0 C24 1.98 24 3.96 24 6 C22.02 6 20.04 6 18 6 C18 7.98 18 9.96 18 12 C14.04 12 10.08 12 6 12 C6 13.98 6 15.96 6 18 C2.04 18 -1.92 18 -6 18 C-6 16.02 -6 14.04 -6 12 C-4.02 12 -2.04 12 0 12 C0 8.04 0 4.08 0 0 Z " fill="#EBB800" transform="translate(402,264)"/>
<path d="M0 0 C17.82 0 35.64 0 54 0 C54 1.98 54 3.96 54 6 C36.18 6 18.36 6 0 6 C0 4.02 0 2.04 0 0 Z " fill="#161F2B" transform="translate(204,258)"/>
<path d="M0 0 C3.96 0 7.92 0 12 0 C12 1.98 12 3.96 12 6 C10.02 6 8.04 6 6 6 C6 7.98 6 9.96 6 12 C7.98 12 9.96 12 12 12 C12 17.94 12 23.88 12 30 C8.04 30 4.08 30 0 30 C0 20.1 0 10.2 0 0 Z " fill="#161F2B" transform="translate(402,198)"/>
<path d="M0 0 C1.98 0 3.96 0 6 0 C6 1.98 6 3.96 6 6 C17.88 6 29.76 6 42 6 C42 9.96 42 13.92 42 18 C40.02 18 38.04 18 36 18 C36 16.02 36 14.04 36 12 C24.12 12 12.24 12 0 12 C0 8.04 0 4.08 0 0 Z " fill="#161F2B" transform="translate(120,72)"/>
<path d="M0 0 C1.98 0 3.96 0 6 0 C6 1.98 6 3.96 6 6 C11.94 6 17.88 6 24 6 C24 11.94 24 17.88 24 24 C20.04 24 16.08 24 12 24 C12 22.02 12 20.04 12 18 C13.98 18 15.96 18 18 18 C18 16.02 18 14.04 18 12 C12.06 12 6.12 12 0 12 C0 8.04 0 4.08 0 0 Z " fill="#161F2B" transform="translate(156,138)"/>
<path d="M0 0 C1.98 0 3.96 0 6 0 C6 1.98 6 3.96 6 6 C7.98 6 9.96 6 12 6 C12 13.92 12 21.84 12 30 C10.02 30 8.04 30 6 30 C6 28.02 6 26.04 6 24 C4.02 24 2.04 24 0 24 C0 22.02 0 20.04 0 18 C1.98 18 3.96 18 6 18 C6 16.02 6 14.04 6 12 C4.02 12 2.04 12 0 12 C0 8.04 0 4.08 0 0 Z " fill="#EBB800" transform="translate(426,228)"/>
<path d="M0 0 C11.88 0 23.76 0 36 0 C36 1.98 36 3.96 36 6 C26.1 6 16.2 6 6 6 C6 7.98 6 9.96 6 12 C4.02 12 2.04 12 0 12 C0 8.04 0 4.08 0 0 Z " fill="#F2D601" transform="translate(366,156)"/>
<path d="M0 0 C1.98 0 3.96 0 6 0 C6 1.98 6 3.96 6 6 C7.98 6 9.96 6 12 6 C12 9.96 12 13.92 12 18 C8.04 18 4.08 18 0 18 C0 16.02 0 14.04 0 12 C-1.98 12 -3.96 12 -6 12 C-6 10.02 -6 8.04 -6 6 C-4.02 6 -2.04 6 0 6 C0 4.02 0 2.04 0 0 Z " fill="#161F2B" transform="translate(156,264)"/>
<path d="M0 0 C1.98 0 3.96 0 6 0 C6 11.88 6 23.76 6 36 C4.02 36 2.04 36 0 36 C0 24.12 0 12.24 0 0 Z " fill="#161F2B" transform="translate(144,222)"/>
<path d="M0 0 C3.96 0 7.92 0 12 0 C12 1.98 12 3.96 12 6 C15.96 6 19.92 6 24 6 C24 7.98 24 9.96 24 12 C20.04 12 16.08 12 12 12 C12 13.98 12 15.96 12 18 C10.02 18 8.04 18 6 18 C6 14.04 6 10.08 6 6 C4.02 6 2.04 6 0 6 C0 4.02 0 2.04 0 0 Z " fill="#F2D601" transform="translate(306,168)"/>
<path d="M0 0 C3.96 0 7.92 0 12 0 C12 1.98 12 3.96 12 6 C13.98 6 15.96 6 18 6 C18 9.96 18 13.92 18 18 C14.04 18 10.08 18 6 18 C6 14.04 6 10.08 6 6 C4.02 6 2.04 6 0 6 C0 4.02 0 2.04 0 0 Z " fill="#F2D601" transform="translate(402,162)"/>
<path d="M0 0 C5.94 0 11.88 0 18 0 C18 3.96 18 7.92 18 12 C12.06 12 6.12 12 0 12 C0 8.04 0 4.08 0 0 Z " fill="#CB8500" transform="translate(336,138)"/>
<path d="M0 0 C5.94 0 11.88 0 18 0 C18 1.98 18 3.96 18 6 C19.98 6 21.96 6 24 6 C24 7.98 24 9.96 24 12 C22.02 12 20.04 12 18 12 C18 13.98 18 15.96 18 18 C16.02 18 14.04 18 12 18 C12 14.04 12 10.08 12 6 C8.04 6 4.08 6 0 6 C0 4.02 0 2.04 0 0 Z " fill="#F2D601" transform="translate(246,132)"/>
<path d="M0 0 C5.94 0 11.88 0 18 0 C18 1.98 18 3.96 18 6 C19.98 6 21.96 6 24 6 C24 7.98 24 9.96 24 12 C22.02 12 20.04 12 18 12 C18 13.98 18 15.96 18 18 C16.02 18 14.04 18 12 18 C12 14.04 12 10.08 12 6 C8.04 6 4.08 6 0 6 C0 4.02 0 2.04 0 0 Z " fill="#161F2B" transform="translate(150,120)"/>
<path d="M0 0 C1.98 0 3.96 0 6 0 C6 3.96 6 7.92 6 12 C11.94 12 17.88 12 24 12 C24 13.98 24 15.96 24 18 C16.08 18 8.16 18 0 18 C0 12.06 0 6.12 0 0 Z " fill="#161F2B" transform="translate(96,90)"/>
<path d="M0 0 C1.98 0 3.96 0 6 0 C6 5.94 6 11.88 6 18 C4.02 18 2.04 18 0 18 C0 16.02 0 14.04 0 12 C-3.96 12 -7.92 12 -12 12 C-12 10.02 -12 8.04 -12 6 C-8.04 6 -4.08 6 0 6 C0 4.02 0 2.04 0 0 Z " fill="#8A6F2B" transform="translate(288,264)"/>
<path d="M0 0 C9.9 0 19.8 0 30 0 C30 1.98 30 3.96 30 6 C20.1 6 10.2 6 0 6 C0 4.02 0 2.04 0 0 Z " fill="#161F2B" transform="translate(174,264)"/>
<path d="M0 0 C1.98 0 3.96 0 6 0 C6 5.94 6 11.88 6 18 C7.98 18 9.96 18 12 18 C12 19.98 12 21.96 12 24 C8.04 24 4.08 24 0 24 C0 16.08 0 8.16 0 0 Z " fill="#161F2B" transform="translate(138,258)"/>
<path d="M0 0 C9.9 0 19.8 0 30 0 C30 1.98 30 3.96 30 6 C20.1 6 10.2 6 0 6 C0 4.02 0 2.04 0 0 Z " fill="#161F2B" transform="translate(174,132)"/>
<path d="M0 0 C1.98 0 3.96 0 6 0 C6 9.9 6 19.8 6 30 C4.02 30 2.04 30 0 30 C0 20.1 0 10.2 0 0 Z " fill="#161F2B" transform="translate(18,24)"/>
<path d="M0 0 C3.96 0 7.92 0 12 0 C12 1.98 12 3.96 12 6 C10.02 6 8.04 6 6 6 C6 11.94 6 17.88 6 24 C4.02 24 2.04 24 0 24 C0 16.08 0 8.16 0 0 Z " fill="#161F2B" transform="translate(12,0)"/>
<path d="M0 0 C1.98 0 3.96 0 6 0 C6 3.96 6 7.92 6 12 C0.06 12 -5.88 12 -12 12 C-12 10.02 -12 8.04 -12 6 C-8.04 6 -4.08 6 0 6 C0 4.02 0 2.04 0 0 Z " fill="#8A6F2B" transform="translate(384,324)"/>
<path d="M0 0 C3.96 0 7.92 0 12 0 C12 1.98 12 3.96 12 6 C10.02 6 8.04 6 6 6 C6 9.96 6 13.92 6 18 C4.02 18 2.04 18 0 18 C0 12.06 0 6.12 0 0 Z " fill="#161F2B" transform="translate(354,324)"/>
<path d="M0 0 C3.96 0 7.92 0 12 0 C12 5.94 12 11.88 12 18 C10.02 18 8.04 18 6 18 C6 14.04 6 10.08 6 6 C4.02 6 2.04 6 0 6 C0 4.02 0 2.04 0 0 Z " fill="#161F2B" transform="translate(312,312)"/>
<path d="M0 0 C1.98 0 3.96 0 6 0 C6 7.92 6 15.84 6 24 C4.02 24 2.04 24 0 24 C0 16.08 0 8.16 0 0 Z " fill="#8A6F2B" transform="translate(348,300)"/>
<path d="M0 0 C7.92 0 15.84 0 24 0 C24 1.98 24 3.96 24 6 C16.08 6 8.16 6 0 6 C0 4.02 0 2.04 0 0 Z " fill="#161F2B" transform="translate(372,282)"/>
<path d="M0 0 C3.96 0 7.92 0 12 0 C12 1.98 12 3.96 12 6 C13.98 6 15.96 6 18 6 C18 7.98 18 9.96 18 12 C14.04 12 10.08 12 6 12 C6 10.02 6 8.04 6 6 C4.02 6 2.04 6 0 6 C0 4.02 0 2.04 0 0 Z " fill="#8A6F2B" transform="translate(156,258)"/>
<path d="M0 0 C7.92 0 15.84 0 24 0 C24 1.98 24 3.96 24 6 C16.08 6 8.16 6 0 6 C0 4.02 0 2.04 0 0 Z " fill="#161F2B" transform="translate(222,120)"/>
<path d="M0 0 C3.96 0 7.92 0 12 0 C12 5.94 12 11.88 12 18 C10.02 18 8.04 18 6 18 C6 14.04 6 10.08 6 6 C4.02 6 2.04 6 0 6 C0 4.02 0 2.04 0 0 Z " fill="#161F2B" transform="translate(126,36)"/>
<path d="M0 0 C7.92 0 15.84 0 24 0 C24 1.98 24 3.96 24 6 C16.08 6 8.16 6 0 6 C0 4.02 0 2.04 0 0 Z " fill="#161F2B" transform="translate(48,12)"/>
<path d="M0 0 C7.92 0 15.84 0 24 0 C24 1.98 24 3.96 24 6 C16.08 6 8.16 6 0 6 C0 4.02 0 2.04 0 0 Z " fill="#161F2B" transform="translate(24,6)"/>
<path d="M0 0 C1.98 0 3.96 0 6 0 C6 5.94 6 11.88 6 18 C4.02 18 2.04 18 0 18 C0 12.06 0 6.12 0 0 Z " fill="#8A6F2B" transform="translate(336,264)"/>
<path d="M0 0 C5.94 0 11.88 0 18 0 C18 1.98 18 3.96 18 6 C12.06 6 6.12 6 0 6 C0 4.02 0 2.04 0 0 Z " fill="#161F2B" transform="translate(258,264)"/>
<path d="M0 0 C1.98 0 3.96 0 6 0 C6 3.96 6 7.92 6 12 C2.04 12 -1.92 12 -6 12 C-6 10.02 -6 8.04 -6 6 C-4.02 6 -2.04 6 0 6 C0 4.02 0 2.04 0 0 Z " fill="#CB8500" transform="translate(210,246)"/>
<path d="M0 0 C3.96 0 7.92 0 12 0 C12 3.96 12 7.92 12 12 C10.02 12 8.04 12 6 12 C6 10.02 6 8.04 6 6 C4.02 6 2.04 6 0 6 C0 4.02 0 2.04 0 0 Z " fill="#161F2B" transform="translate(426,246)"/>
<path d="M0 0 C3.96 0 7.92 0 12 0 C12 3.96 12 7.92 12 12 C10.02 12 8.04 12 6 12 C6 10.02 6 8.04 6 6 C4.02 6 2.04 6 0 6 C0 4.02 0 2.04 0 0 Z " fill="#EBB800" transform="translate(378,222)"/>
<path d="M0 0 C1.98 0 3.96 0 6 0 C6 1.98 6 3.96 6 6 C7.98 6 9.96 6 12 6 C12 7.98 12 9.96 12 12 C8.04 12 4.08 12 0 12 C0 8.04 0 4.08 0 0 Z " fill="#6A323F" transform="translate(402,216)"/>
<path d="M0 0 C1.98 0 3.96 0 6 0 C6 1.98 6 3.96 6 6 C7.98 6 9.96 6 12 6 C12 7.98 12 9.96 12 12 C8.04 12 4.08 12 0 12 C0 8.04 0 4.08 0 0 Z " fill="#F2D601" transform="translate(342,150)"/>
<path d="M0 0 C5.94 0 11.88 0 18 0 C18 1.98 18 3.96 18 6 C12.06 6 6.12 6 0 6 C0 4.02 0 2.04 0 0 Z " fill="#161F2B" transform="translate(372,150)"/>
<path d="M0 0 C5.94 0 11.88 0 18 0 C18 1.98 18 3.96 18 6 C12.06 6 6.12 6 0 6 C0 4.02 0 2.04 0 0 Z " fill="#F2D601" transform="translate(204,132)"/>
<path d="M0 0 C5.94 0 11.88 0 18 0 C18 1.98 18 3.96 18 6 C12.06 6 6.12 6 0 6 C0 4.02 0 2.04 0 0 Z " fill="#8A6F2B" transform="translate(294,126)"/>
<path d="M0 0 C5.94 0 11.88 0 18 0 C18 1.98 18 3.96 18 6 C12.06 6 6.12 6 0 6 C0 4.02 0 2.04 0 0 Z " fill="#161F2B" transform="translate(204,126)"/>
<path d="M0 0 C1.98 0 3.96 0 6 0 C6 5.94 6 11.88 6 18 C4.02 18 2.04 18 0 18 C0 12.06 0 6.12 0 0 Z " fill="#161F2B" transform="translate(126,54)"/>
<path d="M0 0 C1.98 0 3.96 0 6 0 C6 5.94 6 11.88 6 18 C4.02 18 2.04 18 0 18 C0 12.06 0 6.12 0 0 Z " fill="#161F2B" transform="translate(24,54)"/>
<path d="M0 0 C5.94 0 11.88 0 18 0 C18 1.98 18 3.96 18 6 C12.06 6 6.12 6 0 6 C0 4.02 0 2.04 0 0 Z " fill="#161F2B" transform="translate(108,30)"/>
<path d="M0 0 C5.94 0 11.88 0 18 0 C18 1.98 18 3.96 18 6 C12.06 6 6.12 6 0 6 C0 4.02 0 2.04 0 0 Z " fill="#161F2B" transform="translate(90,24)"/>
<path d="M0 0 C5.94 0 11.88 0 18 0 C18 1.98 18 3.96 18 6 C12.06 6 6.12 6 0 6 C0 4.02 0 2.04 0 0 Z " fill="#161F2B" transform="translate(72,18)"/>
<path d="M0 0 C1.98 0 3.96 0 6 0 C6 3.96 6 7.92 6 12 C4.02 12 2.04 12 0 12 C0 8.04 0 4.08 0 0 Z " fill="#161F2B" transform="translate(384,324)"/>
<path d="M0 0 C1.98 0 3.96 0 6 0 C6 3.96 6 7.92 6 12 C4.02 12 2.04 12 0 12 C0 8.04 0 4.08 0 0 Z " fill="#161F2B" transform="translate(378,312)"/>
<path d="M0 0 C3.96 0 7.92 0 12 0 C12 1.98 12 3.96 12 6 C8.04 6 4.08 6 0 6 C0 4.02 0 2.04 0 0 Z " fill="#CB8500" transform="translate(312,312)"/>
<path d="M0 0 C1.98 0 3.96 0 6 0 C6 3.96 6 7.92 6 12 C4.02 12 2.04 12 0 12 C0 8.04 0 4.08 0 0 Z " fill="#F2D601" transform="translate(342,300)"/>
<path d="M0 0 C1.98 0 3.96 0 6 0 C6 3.96 6 7.92 6 12 C4.02 12 2.04 12 0 12 C0 8.04 0 4.08 0 0 Z " fill="#161F2B" transform="translate(372,300)"/>
<path d="M0 0 C1.98 0 3.96 0 6 0 C6 3.96 6 7.92 6 12 C4.02 12 2.04 12 0 12 C0 8.04 0 4.08 0 0 Z " fill="#161F2B" transform="translate(306,300)"/>
<path d="M0 0 C3.96 0 7.92 0 12 0 C12 1.98 12 3.96 12 6 C8.04 6 4.08 6 0 6 C0 4.02 0 2.04 0 0 Z " fill="#CB8500" transform="translate(300,294)"/>
<path d="M0 0 C1.98 0 3.96 0 6 0 C6 3.96 6 7.92 6 12 C4.02 12 2.04 12 0 12 C0 8.04 0 4.08 0 0 Z " fill="#161F2B" transform="translate(366,288)"/>
<path d="M0 0 C1.98 0 3.96 0 6 0 C6 3.96 6 7.92 6 12 C4.02 12 2.04 12 0 12 C0 8.04 0 4.08 0 0 Z " fill="#A56F01" transform="translate(348,288)"/>
<path d="M0 0 C1.98 0 3.96 0 6 0 C6 3.96 6 7.92 6 12 C4.02 12 2.04 12 0 12 C0 8.04 0 4.08 0 0 Z " fill="#F2D601" transform="translate(336,282)"/>
<path d="M0 0 C1.98 0 3.96 0 6 0 C6 3.96 6 7.92 6 12 C4.02 12 2.04 12 0 12 C0 8.04 0 4.08 0 0 Z " fill="#161F2B" transform="translate(294,282)"/>
<path d="M0 0 C3.96 0 7.92 0 12 0 C12 1.98 12 3.96 12 6 C8.04 6 4.08 6 0 6 C0 4.02 0 2.04 0 0 Z " fill="#161F2B" transform="translate(396,276)"/>
<path d="M0 0 C3.96 0 7.92 0 12 0 C12 1.98 12 3.96 12 6 C8.04 6 4.08 6 0 6 C0 4.02 0 2.04 0 0 Z " fill="#161F2B" transform="translate(408,270)"/>
<path d="M0 0 C3.96 0 7.92 0 12 0 C12 1.98 12 3.96 12 6 C8.04 6 4.08 6 0 6 C0 4.02 0 2.04 0 0 Z " fill="#161F2B" transform="translate(276,270)"/>
<path d="M0 0 C3.96 0 7.92 0 12 0 C12 1.98 12 3.96 12 6 C8.04 6 4.08 6 0 6 C0 4.02 0 2.04 0 0 Z " fill="#CB8500" transform="translate(276,264)"/>
<path d="M0 0 C3.96 0 7.92 0 12 0 C12 1.98 12 3.96 12 6 C8.04 6 4.08 6 0 6 C0 4.02 0 2.04 0 0 Z " fill="#CB8500" transform="translate(156,258)"/>
<path d="M0 0 C3.96 0 7.92 0 12 0 C12 1.98 12 3.96 12 6 C8.04 6 4.08 6 0 6 C0 4.02 0 2.04 0 0 Z " fill="#DC0027" transform="translate(372,252)"/>
<path d="M0 0 C1.98 0 3.96 0 6 0 C6 3.96 6 7.92 6 12 C4.02 12 2.04 12 0 12 C0 8.04 0 4.08 0 0 Z " fill="#EBB800" transform="translate(150,246)"/>
<path d="M0 0 C1.98 0 3.96 0 6 0 C6 3.96 6 7.92 6 12 C4.02 12 2.04 12 0 12 C0 8.04 0 4.08 0 0 Z " fill="#F2D601" transform="translate(426,228)"/>
<path d="M0 0 C1.98 0 3.96 0 6 0 C6 3.96 6 7.92 6 12 C4.02 12 2.04 12 0 12 C0 8.04 0 4.08 0 0 Z " fill="#8A6F2B" transform="translate(150,222)"/>
<path d="M0 0 C1.98 0 3.96 0 6 0 C6 3.96 6 7.92 6 12 C4.02 12 2.04 12 0 12 C0 8.04 0 4.08 0 0 Z " fill="#EBB800" transform="translate(420,216)"/>
<path d="M0 0 C1.98 0 3.96 0 6 0 C6 3.96 6 7.92 6 12 C4.02 12 2.04 12 0 12 C0 8.04 0 4.08 0 0 Z " fill="#EBB800" transform="translate(420,180)"/>
<path d="M0 0 C1.98 0 3.96 0 6 0 C6 3.96 6 7.92 6 12 C4.02 12 2.04 12 0 12 C0 8.04 0 4.08 0 0 Z " fill="#F2D601" transform="translate(414,180)"/>
<path d="M0 0 C3.96 0 7.92 0 12 0 C12 1.98 12 3.96 12 6 C8.04 6 4.08 6 0 6 C0 4.02 0 2.04 0 0 Z " fill="#CB8500" transform="translate(330,180)"/>
<path d="M0 0 C3.96 0 7.92 0 12 0 C12 1.98 12 3.96 12 6 C8.04 6 4.08 6 0 6 C0 4.02 0 2.04 0 0 Z " fill="#EBB800" transform="translate(318,180)"/>
<path d="M0 0 C3.96 0 7.92 0 12 0 C12 1.98 12 3.96 12 6 C8.04 6 4.08 6 0 6 C0 4.02 0 2.04 0 0 Z " fill="#8A6F2B" transform="translate(318,174)"/>
<path d="M0 0 C1.98 0 3.96 0 6 0 C6 3.96 6 7.92 6 12 C4.02 12 2.04 12 0 12 C0 8.04 0 4.08 0 0 Z " fill="#161F2B" transform="translate(156,174)"/>
<path d="M0 0 C1.98 0 3.96 0 6 0 C6 3.96 6 7.92 6 12 C4.02 12 2.04 12 0 12 C0 8.04 0 4.08 0 0 Z " fill="#161F2B" transform="translate(414,168)"/>
<path d="M0 0 C3.96 0 7.92 0 12 0 C12 1.98 12 3.96 12 6 C8.04 6 4.08 6 0 6 C0 4.02 0 2.04 0 0 Z " fill="#8A6F2B" transform="translate(306,168)"/>
<path d="M0 0 C1.98 0 3.96 0 6 0 C6 3.96 6 7.92 6 12 C4.02 12 2.04 12 0 12 C0 8.04 0 4.08 0 0 Z " fill="#F2D601" transform="translate(294,162)"/>
<path d="M0 0 C1.98 0 3.96 0 6 0 C6 3.96 6 7.92 6 12 C4.02 12 2.04 12 0 12 C0 8.04 0 4.08 0 0 Z " fill="#A56F01" transform="translate(270,168)"/>
<path d="M0 0 C3.96 0 7.92 0 12 0 C12 1.98 12 3.96 12 6 C8.04 6 4.08 6 0 6 C0 4.02 0 2.04 0 0 Z " fill="#161F2B" transform="translate(402,162)"/>
<path d="M0 0 C1.98 0 3.96 0 6 0 C6 3.96 6 7.92 6 12 C4.02 12 2.04 12 0 12 C0 8.04 0 4.08 0 0 Z " fill="#161F2B" transform="translate(162,162)"/>
<path d="M0 0 C3.96 0 7.92 0 12 0 C12 1.98 12 3.96 12 6 C8.04 6 4.08 6 0 6 C0 4.02 0 2.04 0 0 Z " fill="#161F2B" transform="translate(390,156)"/>
<path d="M0 0 C3.96 0 7.92 0 12 0 C12 1.98 12 3.96 12 6 C8.04 6 4.08 6 0 6 C0 4.02 0 2.04 0 0 Z " fill="#EBB800" transform="translate(168,156)"/>
<path d="M0 0 C3.96 0 7.92 0 12 0 C12 1.98 12 3.96 12 6 C8.04 6 4.08 6 0 6 C0 4.02 0 2.04 0 0 Z " fill="#161F2B" transform="translate(360,144)"/>
<path d="M0 0 C1.98 0 3.96 0 6 0 C6 3.96 6 7.92 6 12 C4.02 12 2.04 12 0 12 C0 8.04 0 4.08 0 0 Z " fill="#A56F01" transform="translate(354,138)"/>
<path d="M0 0 C3.96 0 7.92 0 12 0 C12 1.98 12 3.96 12 6 C8.04 6 4.08 6 0 6 C0 4.02 0 2.04 0 0 Z " fill="#8A6F2B" transform="translate(336,144)"/>
<path d="M0 0 C3.96 0 7.92 0 12 0 C12 1.98 12 3.96 12 6 C8.04 6 4.08 6 0 6 C0 4.02 0 2.04 0 0 Z " fill="#8A6F2B" transform="translate(324,138)"/>
<path d="M0 0 C3.96 0 7.92 0 12 0 C12 1.98 12 3.96 12 6 C8.04 6 4.08 6 0 6 C0 4.02 0 2.04 0 0 Z " fill="#F2D601" transform="translate(192,138)"/>
<path d="M0 0 C3.96 0 7.92 0 12 0 C12 1.98 12 3.96 12 6 C8.04 6 4.08 6 0 6 C0 4.02 0 2.04 0 0 Z " fill="#161F2B" transform="translate(342,132)"/>
<path d="M0 0 C3.96 0 7.92 0 12 0 C12 1.98 12 3.96 12 6 C8.04 6 4.08 6 0 6 C0 4.02 0 2.04 0 0 Z " fill="#8A6F2B" transform="translate(312,132)"/>
<path d="M0 0 C1.98 0 3.96 0 6 0 C6 3.96 6 7.92 6 12 C4.02 12 2.04 12 0 12 C0 8.04 0 4.08 0 0 Z " fill="#EBB800" transform="translate(294,132)"/>
<path d="M0 0 C3.96 0 7.92 0 12 0 C12 1.98 12 3.96 12 6 C8.04 6 4.08 6 0 6 C0 4.02 0 2.04 0 0 Z " fill="#161F2B" transform="translate(330,126)"/>
<path d="M0 0 C3.96 0 7.92 0 12 0 C12 1.98 12 3.96 12 6 C8.04 6 4.08 6 0 6 C0 4.02 0 2.04 0 0 Z " fill="#161F2B" transform="translate(318,120)"/>
<path d="M0 0 C3.96 0 7.92 0 12 0 C12 1.98 12 3.96 12 6 C8.04 6 4.08 6 0 6 C0 4.02 0 2.04 0 0 Z " fill="#A56F01" transform="translate(306,120)"/>
<path d="M0 0 C3.96 0 7.92 0 12 0 C12 1.98 12 3.96 12 6 C8.04 6 4.08 6 0 6 C0 4.02 0 2.04 0 0 Z " fill="#703D1F" transform="translate(138,120)"/>
<path d="M0 0 C1.98 0 3.96 0 6 0 C6 3.96 6 7.92 6 12 C4.02 12 2.04 12 0 12 C0 8.04 0 4.08 0 0 Z " fill="#703D1F" transform="translate(168,114)"/>
<path d="M0 0 C1.98 0 3.96 0 6 0 C6 3.96 6 7.92 6 12 C4.02 12 2.04 12 0 12 C0 8.04 0 4.08 0 0 Z " fill="#EBB800" transform="translate(102,90)"/>
<path d="M0 0 C1.98 0 3.96 0 6 0 C6 3.96 6 7.92 6 12 C4.02 12 2.04 12 0 12 C0 8.04 0 4.08 0 0 Z " fill="#EBB800" transform="translate(126,42)"/>
<path d="M0 0 C1.98 0 3.96 0 6 0 C6 1.98 6 3.96 6 6 C4.02 6 2.04 6 0 6 C0 4.02 0 2.04 0 0 Z " fill="#8A6F2B" transform="translate(348,336)"/>
<path d="M0 0 C1.98 0 3.96 0 6 0 C6 1.98 6 3.96 6 6 C4.02 6 2.04 6 0 6 C0 4.02 0 2.04 0 0 Z " fill="#161F2B" transform="translate(342,336)"/>
<path d="M0 0 C1.98 0 3.96 0 6 0 C6 1.98 6 3.96 6 6 C4.02 6 2.04 6 0 6 C0 4.02 0 2.04 0 0 Z " fill="#8A6F2B" transform="translate(336,336)"/>
<path d="M0 0 C1.98 0 3.96 0 6 0 C6 1.98 6 3.96 6 6 C4.02 6 2.04 6 0 6 C0 4.02 0 2.04 0 0 Z " fill="#161F2B" transform="translate(330,336)"/>
<path d="M0 0 C1.98 0 3.96 0 6 0 C6 1.98 6 3.96 6 6 C4.02 6 2.04 6 0 6 C0 4.02 0 2.04 0 0 Z " fill="#161F2B" transform="translate(372,330)"/>
<path d="M0 0 C1.98 0 3.96 0 6 0 C6 1.98 6 3.96 6 6 C4.02 6 2.04 6 0 6 C0 4.02 0 2.04 0 0 Z " fill="#8A6F2B" transform="translate(366,330)"/>
<path d="M0 0 C1.98 0 3.96 0 6 0 C6 1.98 6 3.96 6 6 C4.02 6 2.04 6 0 6 C0 4.02 0 2.04 0 0 Z " fill="#CB8500" transform="translate(348,330)"/>
<path d="M0 0 C1.98 0 3.96 0 6 0 C6 1.98 6 3.96 6 6 C4.02 6 2.04 6 0 6 C0 4.02 0 2.04 0 0 Z " fill="#161F2B" transform="translate(324,330)"/>
<path d="M0 0 C1.98 0 3.96 0 6 0 C6 1.98 6 3.96 6 6 C4.02 6 2.04 6 0 6 C0 4.02 0 2.04 0 0 Z " fill="#A56F01" transform="translate(378,324)"/>
<path d="M0 0 C1.98 0 3.96 0 6 0 C6 1.98 6 3.96 6 6 C4.02 6 2.04 6 0 6 C0 4.02 0 2.04 0 0 Z " fill="#A56F01" transform="translate(366,324)"/>
<path d="M0 0 C1.98 0 3.96 0 6 0 C6 1.98 6 3.96 6 6 C4.02 6 2.04 6 0 6 C0 4.02 0 2.04 0 0 Z " fill="#CB8500" transform="translate(324,324)"/>
<path d="M0 0 C1.98 0 3.96 0 6 0 C6 1.98 6 3.96 6 6 C4.02 6 2.04 6 0 6 C0 4.02 0 2.04 0 0 Z " fill="#A56F01" transform="translate(354,318)"/>
<path d="M0 0 C1.98 0 3.96 0 6 0 C6 1.98 6 3.96 6 6 C4.02 6 2.04 6 0 6 C0 4.02 0 2.04 0 0 Z " fill="#A56F01" transform="translate(372,312)"/>
<path d="M0 0 C1.98 0 3.96 0 6 0 C6 1.98 6 3.96 6 6 C4.02 6 2.04 6 0 6 C0 4.02 0 2.04 0 0 Z " fill="#F2D601" transform="translate(330,312)"/>
<path d="M0 0 C1.98 0 3.96 0 6 0 C6 1.98 6 3.96 6 6 C4.02 6 2.04 6 0 6 C0 4.02 0 2.04 0 0 Z " fill="#161F2B" transform="translate(312,312)"/>
<path d="M0 0 C1.98 0 3.96 0 6 0 C6 1.98 6 3.96 6 6 C4.02 6 2.04 6 0 6 C0 4.02 0 2.04 0 0 Z " fill="#F2D601" transform="translate(324,306)"/>
<path d="M0 0 C1.98 0 3.96 0 6 0 C6 1.98 6 3.96 6 6 C4.02 6 2.04 6 0 6 C0 4.02 0 2.04 0 0 Z " fill="#CB8500" transform="translate(312,306)"/>
<path d="M0 0 C1.98 0 3.96 0 6 0 C6 1.98 6 3.96 6 6 C4.02 6 2.04 6 0 6 C0 4.02 0 2.04 0 0 Z " fill="#A56F01" transform="translate(366,300)"/>
<path d="M0 0 C1.98 0 3.96 0 6 0 C6 1.98 6 3.96 6 6 C4.02 6 2.04 6 0 6 C0 4.02 0 2.04 0 0 Z " fill="#EBB800" transform="translate(342,300)"/>
<path d="M0 0 C1.98 0 3.96 0 6 0 C6 1.98 6 3.96 6 6 C4.02 6 2.04 6 0 6 C0 4.02 0 2.04 0 0 Z " fill="#F2D601" transform="translate(318,294)"/>
<path d="M0 0 C1.98 0 3.96 0 6 0 C6 1.98 6 3.96 6 6 C4.02 6 2.04 6 0 6 C0 4.02 0 2.04 0 0 Z " fill="#161F2B" transform="translate(300,294)"/>
<path d="M0 0 C1.98 0 3.96 0 6 0 C6 1.98 6 3.96 6 6 C4.02 6 2.04 6 0 6 C0 4.02 0 2.04 0 0 Z " fill="#A56F01" transform="translate(360,288)"/>
<path d="M0 0 C1.98 0 3.96 0 6 0 C6 1.98 6 3.96 6 6 C4.02 6 2.04 6 0 6 C0 4.02 0 2.04 0 0 Z " fill="#F2D601" transform="translate(312,288)"/>
<path d="M0 0 C1.98 0 3.96 0 6 0 C6 1.98 6 3.96 6 6 C4.02 6 2.04 6 0 6 C0 4.02 0 2.04 0 0 Z " fill="#CB8500" transform="translate(300,288)"/>
<path d="M0 0 C1.98 0 3.96 0 6 0 C6 1.98 6 3.96 6 6 C4.02 6 2.04 6 0 6 C0 4.02 0 2.04 0 0 Z " fill="#EBB800" transform="translate(336,282)"/>
<path d="M0 0 C1.98 0 3.96 0 6 0 C6 1.98 6 3.96 6 6 C4.02 6 2.04 6 0 6 C0 4.02 0 2.04 0 0 Z " fill="#CB8500" transform="translate(390,276)"/>
<path d="M0 0 C1.98 0 3.96 0 6 0 C6 1.98 6 3.96 6 6 C4.02 6 2.04 6 0 6 C0 4.02 0 2.04 0 0 Z " fill="#CB8500" transform="translate(342,276)"/>
<path d="M0 0 C1.98 0 3.96 0 6 0 C6 1.98 6 3.96 6 6 C4.02 6 2.04 6 0 6 C0 4.02 0 2.04 0 0 Z " fill="#F2D601" transform="translate(306,276)"/>
<path d="M0 0 C1.98 0 3.96 0 6 0 C6 1.98 6 3.96 6 6 C4.02 6 2.04 6 0 6 C0 4.02 0 2.04 0 0 Z " fill="#CB8500" transform="translate(294,276)"/>
<path d="M0 0 C1.98 0 3.96 0 6 0 C6 1.98 6 3.96 6 6 C4.02 6 2.04 6 0 6 C0 4.02 0 2.04 0 0 Z " fill="#161F2B" transform="translate(288,276)"/>
<path d="M0 0 C1.98 0 3.96 0 6 0 C6 1.98 6 3.96 6 6 C4.02 6 2.04 6 0 6 C0 4.02 0 2.04 0 0 Z " fill="#CB8500" transform="translate(402,270)"/>
<path d="M0 0 C1.98 0 3.96 0 6 0 C6 1.98 6 3.96 6 6 C4.02 6 2.04 6 0 6 C0 4.02 0 2.04 0 0 Z " fill="#EBB800" transform="translate(144,270)"/>
<path d="M0 0 C1.98 0 3.96 0 6 0 C6 1.98 6 3.96 6 6 C4.02 6 2.04 6 0 6 C0 4.02 0 2.04 0 0 Z " fill="#161F2B" transform="translate(420,264)"/>
<path d="M0 0 C1.98 0 3.96 0 6 0 C6 1.98 6 3.96 6 6 C4.02 6 2.04 6 0 6 C0 4.02 0 2.04 0 0 Z " fill="#CB8500" transform="translate(414,264)"/>
<path d="M0 0 C1.98 0 3.96 0 6 0 C6 1.98 6 3.96 6 6 C4.02 6 2.04 6 0 6 C0 4.02 0 2.04 0 0 Z " fill="#F2D601" transform="translate(396,264)"/>
<path d="M0 0 C1.98 0 3.96 0 6 0 C6 1.98 6 3.96 6 6 C4.02 6 2.04 6 0 6 C0 4.02 0 2.04 0 0 Z " fill="#F2D601" transform="translate(360,264)"/>
<path d="M0 0 C1.98 0 3.96 0 6 0 C6 1.98 6 3.96 6 6 C4.02 6 2.04 6 0 6 C0 4.02 0 2.04 0 0 Z " fill="#EBB800" transform="translate(150,264)"/>
<path d="M0 0 C1.98 0 3.96 0 6 0 C6 1.98 6 3.96 6 6 C4.02 6 2.04 6 0 6 C0 4.02 0 2.04 0 0 Z " fill="#F7E901" transform="translate(144,264)"/>
<path d="M0 0 C1.98 0 3.96 0 6 0 C6 1.98 6 3.96 6 6 C4.02 6 2.04 6 0 6 C0 4.02 0 2.04 0 0 Z " fill="#161F2B" transform="translate(426,258)"/>
<path d="M0 0 C1.98 0 3.96 0 6 0 C6 1.98 6 3.96 6 6 C4.02 6 2.04 6 0 6 C0 4.02 0 2.04 0 0 Z " fill="#EBB800" transform="translate(420,258)"/>
<path d="M0 0 C1.98 0 3.96 0 6 0 C6 1.98 6 3.96 6 6 C4.02 6 2.04 6 0 6 C0 4.02 0 2.04 0 0 Z " fill="#F2D601" transform="translate(414,258)"/>
<path d="M0 0 C1.98 0 3.96 0 6 0 C6 1.98 6 3.96 6 6 C4.02 6 2.04 6 0 6 C0 4.02 0 2.04 0 0 Z " fill="#CB8500" transform="translate(258,258)"/>
<path d="M0 0 C1.98 0 3.96 0 6 0 C6 1.98 6 3.96 6 6 C4.02 6 2.04 6 0 6 C0 4.02 0 2.04 0 0 Z " fill="#CB8500" transform="translate(198,258)"/>
<path d="M0 0 C1.98 0 3.96 0 6 0 C6 1.98 6 3.96 6 6 C4.02 6 2.04 6 0 6 C0 4.02 0 2.04 0 0 Z " fill="#8A6F2B" transform="translate(156,258)"/>
<path d="M0 0 C1.98 0 3.96 0 6 0 C6 1.98 6 3.96 6 6 C4.02 6 2.04 6 0 6 C0 4.02 0 2.04 0 0 Z " fill="#EBB800" transform="translate(144,258)"/>
<path d="M0 0 C1.98 0 3.96 0 6 0 C6 1.98 6 3.96 6 6 C4.02 6 2.04 6 0 6 C0 4.02 0 2.04 0 0 Z " fill="#EBB800" transform="translate(384,252)"/>
<path d="M0 0 C1.98 0 3.96 0 6 0 C6 1.98 6 3.96 6 6 C4.02 6 2.04 6 0 6 C0 4.02 0 2.04 0 0 Z " fill="#EBB800" transform="translate(366,252)"/>
<path d="M0 0 C1.98 0 3.96 0 6 0 C6 1.98 6 3.96 6 6 C4.02 6 2.04 6 0 6 C0 4.02 0 2.04 0 0 Z " fill="#8A6F2B" transform="translate(204,252)"/>
<path d="M0 0 C1.98 0 3.96 0 6 0 C6 1.98 6 3.96 6 6 C4.02 6 2.04 6 0 6 C0 4.02 0 2.04 0 0 Z " fill="#F2D601" transform="translate(186,252)"/>
<path d="M0 0 C1.98 0 3.96 0 6 0 C6 1.98 6 3.96 6 6 C4.02 6 2.04 6 0 6 C0 4.02 0 2.04 0 0 Z " fill="#8A6F2B" transform="translate(426,246)"/>
<path d="M0 0 C1.98 0 3.96 0 6 0 C6 1.98 6 3.96 6 6 C4.02 6 2.04 6 0 6 C0 4.02 0 2.04 0 0 Z " fill="#EBB800" transform="translate(390,246)"/>
<path d="M0 0 C1.98 0 3.96 0 6 0 C6 1.98 6 3.96 6 6 C4.02 6 2.04 6 0 6 C0 4.02 0 2.04 0 0 Z " fill="#EBB800" transform="translate(360,246)"/>
<path d="M0 0 C1.98 0 3.96 0 6 0 C6 1.98 6 3.96 6 6 C4.02 6 2.04 6 0 6 C0 4.02 0 2.04 0 0 Z " fill="#8A6F2B" transform="translate(210,246)"/>
<path d="M0 0 C1.98 0 3.96 0 6 0 C6 1.98 6 3.96 6 6 C4.02 6 2.04 6 0 6 C0 4.02 0 2.04 0 0 Z " fill="#EBB800" transform="translate(204,246)"/>
<path d="M0 0 C1.98 0 3.96 0 6 0 C6 1.98 6 3.96 6 6 C4.02 6 2.04 6 0 6 C0 4.02 0 2.04 0 0 Z " fill="#F2D601" transform="translate(198,246)"/>
<path d="M0 0 C1.98 0 3.96 0 6 0 C6 1.98 6 3.96 6 6 C4.02 6 2.04 6 0 6 C0 4.02 0 2.04 0 0 Z " fill="#F2D601" transform="translate(228,240)"/>
<path d="M0 0 C1.98 0 3.96 0 6 0 C6 1.98 6 3.96 6 6 C4.02 6 2.04 6 0 6 C0 4.02 0 2.04 0 0 Z " fill="#E86D48" transform="translate(390,234)"/>
<path d="M0 0 C1.98 0 3.96 0 6 0 C6 1.98 6 3.96 6 6 C4.02 6 2.04 6 0 6 C0 4.02 0 2.04 0 0 Z " fill="#EBB800" transform="translate(426,228)"/>
<path d="M0 0 C1.98 0 3.96 0 6 0 C6 1.98 6 3.96 6 6 C4.02 6 2.04 6 0 6 C0 4.02 0 2.04 0 0 Z " fill="#F2D601" transform="translate(420,228)"/>
<path d="M0 0 C1.98 0 3.96 0 6 0 C6 1.98 6 3.96 6 6 C4.02 6 2.04 6 0 6 C0 4.02 0 2.04 0 0 Z " fill="#EBB800" transform="translate(390,228)"/>
<path d="M0 0 C1.98 0 3.96 0 6 0 C6 1.98 6 3.96 6 6 C4.02 6 2.04 6 0 6 C0 4.02 0 2.04 0 0 Z " fill="#E86D48" transform="translate(384,228)"/>
<path d="M0 0 C1.98 0 3.96 0 6 0 C6 1.98 6 3.96 6 6 C4.02 6 2.04 6 0 6 C0 4.02 0 2.04 0 0 Z " fill="#EBB800" transform="translate(360,228)"/>
<path d="M0 0 C1.98 0 3.96 0 6 0 C6 1.98 6 3.96 6 6 C4.02 6 2.04 6 0 6 C0 4.02 0 2.04 0 0 Z " fill="#D04A66" transform="translate(408,222)"/>
<path d="M0 0 C1.98 0 3.96 0 6 0 C6 1.98 6 3.96 6 6 C4.02 6 2.04 6 0 6 C0 4.02 0 2.04 0 0 Z " fill="#E86D48" transform="translate(378,222)"/>
<path d="M0 0 C1.98 0 3.96 0 6 0 C6 1.98 6 3.96 6 6 C4.02 6 2.04 6 0 6 C0 4.02 0 2.04 0 0 Z " fill="#EBB800" transform="translate(366,222)"/>
<path d="M0 0 C1.98 0 3.96 0 6 0 C6 1.98 6 3.96 6 6 C4.02 6 2.04 6 0 6 C0 4.02 0 2.04 0 0 Z " fill="#F2D601" transform="translate(420,210)"/>
<path d="M0 0 C1.98 0 3.96 0 6 0 C6 1.98 6 3.96 6 6 C4.02 6 2.04 6 0 6 C0 4.02 0 2.04 0 0 Z " fill="#F2D601" transform="translate(420,192)"/>
<path d="M0 0 C1.98 0 3.96 0 6 0 C6 1.98 6 3.96 6 6 C4.02 6 2.04 6 0 6 C0 4.02 0 2.04 0 0 Z " fill="#161F2B" transform="translate(420,180)"/>
<path d="M0 0 C1.98 0 3.96 0 6 0 C6 1.98 6 3.96 6 6 C4.02 6 2.04 6 0 6 C0 4.02 0 2.04 0 0 Z " fill="#EBB800" transform="translate(414,180)"/>
<path d="M0 0 C1.98 0 3.96 0 6 0 C6 1.98 6 3.96 6 6 C4.02 6 2.04 6 0 6 C0 4.02 0 2.04 0 0 Z " fill="#EBB800" transform="translate(288,180)"/>
<path d="M0 0 C1.98 0 3.96 0 6 0 C6 1.98 6 3.96 6 6 C4.02 6 2.04 6 0 6 C0 4.02 0 2.04 0 0 Z " fill="#A56F01" transform="translate(282,180)"/>
<path d="M0 0 C1.98 0 3.96 0 6 0 C6 1.98 6 3.96 6 6 C4.02 6 2.04 6 0 6 C0 4.02 0 2.04 0 0 Z " fill="#EBB800" transform="translate(270,180)"/>
<path d="M0 0 C1.98 0 3.96 0 6 0 C6 1.98 6 3.96 6 6 C4.02 6 2.04 6 0 6 C0 4.02 0 2.04 0 0 Z " fill="#CB8500" transform="translate(312,174)"/>
<path d="M0 0 C1.98 0 3.96 0 6 0 C6 1.98 6 3.96 6 6 C4.02 6 2.04 6 0 6 C0 4.02 0 2.04 0 0 Z " fill="#EBB800" transform="translate(306,174)"/>
<path d="M0 0 C1.98 0 3.96 0 6 0 C6 1.98 6 3.96 6 6 C4.02 6 2.04 6 0 6 C0 4.02 0 2.04 0 0 Z " fill="#F2D601" transform="translate(300,174)"/>
<path d="M0 0 C1.98 0 3.96 0 6 0 C6 1.98 6 3.96 6 6 C4.02 6 2.04 6 0 6 C0 4.02 0 2.04 0 0 Z " fill="#A56F01" transform="translate(288,174)"/>
<path d="M0 0 C1.98 0 3.96 0 6 0 C6 1.98 6 3.96 6 6 C4.02 6 2.04 6 0 6 C0 4.02 0 2.04 0 0 Z " fill="#EBB800" transform="translate(408,168)"/>
<path d="M0 0 C1.98 0 3.96 0 6 0 C6 1.98 6 3.96 6 6 C4.02 6 2.04 6 0 6 C0 4.02 0 2.04 0 0 Z " fill="#F2D601" transform="translate(402,168)"/>
<path d="M0 0 C1.98 0 3.96 0 6 0 C6 1.98 6 3.96 6 6 C4.02 6 2.04 6 0 6 C0 4.02 0 2.04 0 0 Z " fill="#EBB800" transform="translate(300,168)"/>
<path d="M0 0 C1.98 0 3.96 0 6 0 C6 1.98 6 3.96 6 6 C4.02 6 2.04 6 0 6 C0 4.02 0 2.04 0 0 Z " fill="#EBB800" transform="translate(222,168)"/>
<path d="M0 0 C1.98 0 3.96 0 6 0 C6 1.98 6 3.96 6 6 C4.02 6 2.04 6 0 6 C0 4.02 0 2.04 0 0 Z " fill="#EBB800" transform="translate(396,162)"/>
<path d="M0 0 C1.98 0 3.96 0 6 0 C6 1.98 6 3.96 6 6 C4.02 6 2.04 6 0 6 C0 4.02 0 2.04 0 0 Z " fill="#F2D601" transform="translate(390,162)"/>
<path d="M0 0 C1.98 0 3.96 0 6 0 C6 1.98 6 3.96 6 6 C4.02 6 2.04 6 0 6 C0 4.02 0 2.04 0 0 Z " fill="#CB8500" transform="translate(366,162)"/>
<path d="M0 0 C1.98 0 3.96 0 6 0 C6 1.98 6 3.96 6 6 C4.02 6 2.04 6 0 6 C0 4.02 0 2.04 0 0 Z " fill="#EBB800" transform="translate(360,162)"/>
<path d="M0 0 C1.98 0 3.96 0 6 0 C6 1.98 6 3.96 6 6 C4.02 6 2.04 6 0 6 C0 4.02 0 2.04 0 0 Z " fill="#F2D601" transform="translate(354,162)"/>
<path d="M0 0 C1.98 0 3.96 0 6 0 C6 1.98 6 3.96 6 6 C4.02 6 2.04 6 0 6 C0 4.02 0 2.04 0 0 Z " fill="#8A6F2B" transform="translate(300,162)"/>
<path d="M0 0 C1.98 0 3.96 0 6 0 C6 1.98 6 3.96 6 6 C4.02 6 2.04 6 0 6 C0 4.02 0 2.04 0 0 Z " fill="#EBB800" transform="translate(294,162)"/>
<path d="M0 0 C1.98 0 3.96 0 6 0 C6 1.98 6 3.96 6 6 C4.02 6 2.04 6 0 6 C0 4.02 0 2.04 0 0 Z " fill="#703D1F" transform="translate(288,162)"/>
<path d="M0 0 C1.98 0 3.96 0 6 0 C6 1.98 6 3.96 6 6 C4.02 6 2.04 6 0 6 C0 4.02 0 2.04 0 0 Z " fill="#EBB800" transform="translate(168,162)"/>
<path d="M0 0 C1.98 0 3.96 0 6 0 C6 1.98 6 3.96 6 6 C4.02 6 2.04 6 0 6 C0 4.02 0 2.04 0 0 Z " fill="#EBB800" transform="translate(384,156)"/>
<path d="M0 0 C1.98 0 3.96 0 6 0 C6 1.98 6 3.96 6 6 C4.02 6 2.04 6 0 6 C0 4.02 0 2.04 0 0 Z " fill="#EBB800" transform="translate(366,156)"/>
<path d="M0 0 C1.98 0 3.96 0 6 0 C6 1.98 6 3.96 6 6 C4.02 6 2.04 6 0 6 C0 4.02 0 2.04 0 0 Z " fill="#EBB800" transform="translate(348,156)"/>
<path d="M0 0 C1.98 0 3.96 0 6 0 C6 1.98 6 3.96 6 6 C4.02 6 2.04 6 0 6 C0 4.02 0 2.04 0 0 Z " fill="#F2D601" transform="translate(318,156)"/>
<path d="M0 0 C1.98 0 3.96 0 6 0 C6 1.98 6 3.96 6 6 C4.02 6 2.04 6 0 6 C0 4.02 0 2.04 0 0 Z " fill="#703D1F" transform="translate(282,156)"/>
<path d="M0 0 C1.98 0 3.96 0 6 0 C6 1.98 6 3.96 6 6 C4.02 6 2.04 6 0 6 C0 4.02 0 2.04 0 0 Z " fill="#EBB800" transform="translate(240,156)"/>
<path d="M0 0 C1.98 0 3.96 0 6 0 C6 1.98 6 3.96 6 6 C4.02 6 2.04 6 0 6 C0 4.02 0 2.04 0 0 Z " fill="#161F2B" transform="translate(168,156)"/>
<path d="M0 0 C1.98 0 3.96 0 6 0 C6 1.98 6 3.96 6 6 C4.02 6 2.04 6 0 6 C0 4.02 0 2.04 0 0 Z " fill="#EBB800" transform="translate(342,150)"/>
<path d="M0 0 C1.98 0 3.96 0 6 0 C6 1.98 6 3.96 6 6 C4.02 6 2.04 6 0 6 C0 4.02 0 2.04 0 0 Z " fill="#F2D601" transform="translate(336,150)"/>
<path d="M0 0 C1.98 0 3.96 0 6 0 C6 1.98 6 3.96 6 6 C4.02 6 2.04 6 0 6 C0 4.02 0 2.04 0 0 Z " fill="#703D1F" transform="translate(276,150)"/>
<path d="M0 0 C1.98 0 3.96 0 6 0 C6 1.98 6 3.96 6 6 C4.02 6 2.04 6 0 6 C0 4.02 0 2.04 0 0 Z " fill="#A56F01" transform="translate(240,150)"/>
<path d="M0 0 C1.98 0 3.96 0 6 0 C6 1.98 6 3.96 6 6 C4.02 6 2.04 6 0 6 C0 4.02 0 2.04 0 0 Z " fill="#EBB800" transform="translate(180,150)"/>
<path d="M0 0 C1.98 0 3.96 0 6 0 C6 1.98 6 3.96 6 6 C4.02 6 2.04 6 0 6 C0 4.02 0 2.04 0 0 Z " fill="#CB8500" transform="translate(348,144)"/>
<path d="M0 0 C1.98 0 3.96 0 6 0 C6 1.98 6 3.96 6 6 C4.02 6 2.04 6 0 6 C0 4.02 0 2.04 0 0 Z " fill="#EBB800" transform="translate(330,144)"/>
<path d="M0 0 C1.98 0 3.96 0 6 0 C6 1.98 6 3.96 6 6 C4.02 6 2.04 6 0 6 C0 4.02 0 2.04 0 0 Z " fill="#F2D601" transform="translate(324,144)"/>
<path d="M0 0 C1.98 0 3.96 0 6 0 C6 1.98 6 3.96 6 6 C4.02 6 2.04 6 0 6 C0 4.02 0 2.04 0 0 Z " fill="#F2D601" transform="translate(300,144)"/>
<path d="M0 0 C1.98 0 3.96 0 6 0 C6 1.98 6 3.96 6 6 C4.02 6 2.04 6 0 6 C0 4.02 0 2.04 0 0 Z " fill="#703D1F" transform="translate(270,144)"/>
<path d="M0 0 C1.98 0 3.96 0 6 0 C6 1.98 6 3.96 6 6 C4.02 6 2.04 6 0 6 C0 4.02 0 2.04 0 0 Z " fill="#EBB800" transform="translate(186,144)"/>
<path d="M0 0 C1.98 0 3.96 0 6 0 C6 1.98 6 3.96 6 6 C4.02 6 2.04 6 0 6 C0 4.02 0 2.04 0 0 Z " fill="#694118" transform="translate(180,144)"/>
<path d="M0 0 C1.98 0 3.96 0 6 0 C6 1.98 6 3.96 6 6 C4.02 6 2.04 6 0 6 C0 4.02 0 2.04 0 0 Z " fill="#161F2B" transform="translate(354,138)"/>
<path d="M0 0 C1.98 0 3.96 0 6 0 C6 1.98 6 3.96 6 6 C4.02 6 2.04 6 0 6 C0 4.02 0 2.04 0 0 Z " fill="#A56F01" transform="translate(348,138)"/>
<path d="M0 0 C1.98 0 3.96 0 6 0 C6 1.98 6 3.96 6 6 C4.02 6 2.04 6 0 6 C0 4.02 0 2.04 0 0 Z " fill="#EBB800" transform="translate(318,138)"/>
<path d="M0 0 C1.98 0 3.96 0 6 0 C6 1.98 6 3.96 6 6 C4.02 6 2.04 6 0 6 C0 4.02 0 2.04 0 0 Z " fill="#F2D601" transform="translate(312,138)"/>
<path d="M0 0 C1.98 0 3.96 0 6 0 C6 1.98 6 3.96 6 6 C4.02 6 2.04 6 0 6 C0 4.02 0 2.04 0 0 Z " fill="#EBB800" transform="translate(264,138)"/>
<path d="M0 0 C1.98 0 3.96 0 6 0 C6 1.98 6 3.96 6 6 C4.02 6 2.04 6 0 6 C0 4.02 0 2.04 0 0 Z " fill="#EBB800" transform="translate(192,138)"/>
<path d="M0 0 C1.98 0 3.96 0 6 0 C6 1.98 6 3.96 6 6 C4.02 6 2.04 6 0 6 C0 4.02 0 2.04 0 0 Z " fill="#694118" transform="translate(186,138)"/>
<path d="M0 0 C1.98 0 3.96 0 6 0 C6 1.98 6 3.96 6 6 C4.02 6 2.04 6 0 6 C0 4.02 0 2.04 0 0 Z " fill="#703D1F" transform="translate(162,138)"/>
<path d="M0 0 C1.98 0 3.96 0 6 0 C6 1.98 6 3.96 6 6 C4.02 6 2.04 6 0 6 C0 4.02 0 2.04 0 0 Z " fill="#A56F01" transform="translate(336,132)"/>
<path d="M0 0 C1.98 0 3.96 0 6 0 C6 1.98 6 3.96 6 6 C4.02 6 2.04 6 0 6 C0 4.02 0 2.04 0 0 Z " fill="#EBB800" transform="translate(306,132)"/>
<path d="M0 0 C1.98 0 3.96 0 6 0 C6 1.98 6 3.96 6 6 C4.02 6 2.04 6 0 6 C0 4.02 0 2.04 0 0 Z " fill="#F2D601" transform="translate(300,132)"/>
<path d="M0 0 C1.98 0 3.96 0 6 0 C6 1.98 6 3.96 6 6 C4.02 6 2.04 6 0 6 C0 4.02 0 2.04 0 0 Z " fill="#EBB800" transform="translate(258,132)"/>
<path d="M0 0 C1.98 0 3.96 0 6 0 C6 1.98 6 3.96 6 6 C4.02 6 2.04 6 0 6 C0 4.02 0 2.04 0 0 Z " fill="#EBB800" transform="translate(204,132)"/>
<path d="M0 0 C1.98 0 3.96 0 6 0 C6 1.98 6 3.96 6 6 C4.02 6 2.04 6 0 6 C0 4.02 0 2.04 0 0 Z " fill="#703D1F" transform="translate(168,132)"/>
<path d="M0 0 C1.98 0 3.96 0 6 0 C6 1.98 6 3.96 6 6 C4.02 6 2.04 6 0 6 C0 4.02 0 2.04 0 0 Z " fill="#A56F01" transform="translate(324,126)"/>
<path d="M0 0 C1.98 0 3.96 0 6 0 C6 1.98 6 3.96 6 6 C4.02 6 2.04 6 0 6 C0 4.02 0 2.04 0 0 Z " fill="#703D1F" transform="translate(240,126)"/>
<path d="M0 0 C1.98 0 3.96 0 6 0 C6 1.98 6 3.96 6 6 C4.02 6 2.04 6 0 6 C0 4.02 0 2.04 0 0 Z " fill="#703D1F" transform="translate(222,126)"/>
<path d="M0 0 C1.98 0 3.96 0 6 0 C6 1.98 6 3.96 6 6 C4.02 6 2.04 6 0 6 C0 4.02 0 2.04 0 0 Z " fill="#EBB800" transform="translate(114,96)"/>
<path d="M0 0 C1.98 0 3.96 0 6 0 C6 1.98 6 3.96 6 6 C4.02 6 2.04 6 0 6 C0 4.02 0 2.04 0 0 Z " fill="#EBB800" transform="translate(150,84)"/>
<path d="M0 0 C1.98 0 3.96 0 6 0 C6 1.98 6 3.96 6 6 C4.02 6 2.04 6 0 6 C0 4.02 0 2.04 0 0 Z " fill="#EBB800" transform="translate(120,66)"/>
<path d="M0 0 C1.98 0 3.96 0 6 0 C6 1.98 6 3.96 6 6 C4.02 6 2.04 6 0 6 C0 4.02 0 2.04 0 0 Z " fill="#EBB800" transform="translate(120,36)"/>
<path d="M0 0 C1.98 0 3.96 0 6 0 C6 1.98 6 3.96 6 6 C4.02 6 2.04 6 0 6 C0 4.02 0 2.04 0 0 Z " fill="#EBB800" transform="translate(102,30)"/>
<path d="M0 0 C1.98 0 3.96 0 6 0 C6 1.98 6 3.96 6 6 C4.02 6 2.04 6 0 6 C0 4.02 0 2.04 0 0 Z " fill="#EBB800" transform="translate(84,24)"/>
<path d="M0 0 C1.98 0 3.96 0 6 0 C6 1.98 6 3.96 6 6 C4.02 6 2.04 6 0 6 C0 4.02 0 2.04 0 0 Z " fill="#EBB800" transform="translate(66,18)"/>
<path d="M0 0 C1.98 0 3.96 0 6 0 C6 1.98 6 3.96 6 6 C4.02 6 2.04 6 0 6 C0 4.02 0 2.04 0 0 Z " fill="#EBB800" transform="translate(18,18)"/>
<path d="M0 0 C1.98 0 3.96 0 6 0 C6 1.98 6 3.96 6 6 C4.02 6 2.04 6 0 6 C0 4.02 0 2.04 0 0 Z " fill="#EBB800" transform="translate(42,12)"/>
<path d="M0 0 C1.98 0 3.96 0 6 0 C6 1.98 6 3.96 6 6 C4.02 6 2.04 6 0 6 C0 4.02 0 2.04 0 0 Z " fill="#EBB800" transform="translate(18,6)"/>
</svg>
